<svg width="156" height="156" viewBox="0 0 156 156" fill="none" xmlns="http://www.w3.org/2000/svg">
<g clip-path="url(#clip0_2091_27303)">
<path fill-rule="evenodd" clip-rule="evenodd" d="M98.868 92.8033C111.129 84.3873 122.57 73.4418 128.412 59.7767C130.538 54.8048 131.426 49.6505 132.383 44.3817C132.451 44.0124 132.205 43.6563 131.834 43.5879C131.462 43.521 131.106 43.7671 131.039 44.1388C130.1 49.3056 129.241 54.3637 127.156 59.2394C121.397 72.7107 110.082 83.4723 97.988 91.7515L97.8457 91.5757C96.3051 89.663 93.1087 88.7255 89.3057 88.6189C83.8544 88.4653 77.1563 89.9442 72.7658 92.1123C70.7931 93.087 69.2799 94.2137 68.4893 95.3768C67.8724 96.2832 67.6652 97.2255 67.9166 98.1639C68.4535 100.163 70.5866 101.193 73.5857 101.359C79.858 101.709 89.9944 98.4978 93.9995 95.9933C95.2499 95.2108 96.4989 94.4033 97.7392 93.5692C98.0194 93.8983 98.2923 94.2216 98.5435 94.548C99.2565 95.4801 99.7986 96.454 99.8194 97.8077C99.8495 99.9175 98.984 101.985 97.7154 103.906C95.7333 106.901 92.7589 109.531 90.4108 111.386C77.3327 121.717 63.1972 122.917 50.6042 120.998C37.8868 119.058 26.725 113.949 19.7362 111.727C19.377 111.612 18.994 111.812 18.8789 112.171C18.7639 112.53 18.9631 112.915 19.3232 113.028C26.3569 115.266 37.5965 120.396 50.3991 122.348C63.3262 124.32 77.8321 123.063 91.2576 112.459C93.7038 110.527 96.791 107.779 98.8546 104.66C100.282 102.5 101.219 100.161 101.185 97.7871C101.154 95.6564 100.108 94.2814 98.868 92.8033ZM96.852 92.5198L96.782 92.4315C95.4355 90.7594 92.5931 90.0776 89.2676 89.9849C84.0294 89.8372 77.5917 91.2534 73.3708 93.3386C71.9232 94.0526 70.7428 94.8405 69.9873 95.6782C69.365 96.3698 69.0402 97.0803 69.2371 97.809C69.4199 98.4983 69.9085 98.9844 70.593 99.3244C71.396 99.7249 72.4494 99.9281 73.6607 99.9962C79.6878 100.331 89.4267 97.2421 93.2749 94.8351C94.4694 94.0867 95.6634 93.3157 96.852 92.5198Z" fill="white"/>
<path fill-rule="evenodd" clip-rule="evenodd" d="M131.291 41.8758C131.525 42.0621 131.763 42.4077 132.013 42.7823C132.612 43.6739 133.164 44.7903 133.446 45.306C133.628 45.6374 134.043 45.7569 134.374 45.5765C134.705 45.3945 134.826 44.9798 134.644 44.6485C134.298 44.0172 133.56 42.5308 132.817 41.555C132.418 41.0319 131.996 40.6509 131.631 40.5005C131.009 40.2431 130.395 40.5247 129.938 41.4728C129.399 42.5947 128.903 44.9361 127.354 46.3175C127.073 46.5675 127.049 47.0016 127.3 47.2813C127.551 47.5635 127.983 47.5883 128.265 47.3367C129.741 46.019 130.414 43.9477 130.945 42.5933C131.046 42.3361 131.198 42.0463 131.291 41.8758Z" fill="white"/>
</g>
<defs>
<clipPath id="clip0_2091_27303">
<rect width="115.86" height="115.86" fill="white" transform="translate(0 103.158) rotate(-62.9191)"/>
</clipPath>
</defs>
</svg>
