<svg width="40" height="40" viewBox="0 0 40 40" fill="none" xmlns="http://www.w3.org/2000/svg">
<g opacity="0.6">
<path d="M8.43512 33.4085L9.16985 32.3972L8.43512 33.4085ZM6.59152 31.5649L7.6028 30.8301L6.59152 31.5649ZM33.4085 31.5649L32.3972 30.8301L33.4085 31.5649ZM31.5649 33.4085L30.8301 32.3972L31.5649 33.4085ZM31.5649 6.59152L30.8301 7.6028L31.5649 6.59152ZM33.4085 8.43512L32.3972 9.16985L33.4085 8.43512ZM8.43512 6.59152L9.16985 7.6028L8.43512 6.59152ZM6.59152 8.43512L7.6028 9.16985L6.59152 8.43512ZM10.5444 24.2114C10.2404 24.8312 10.4964 25.5801 11.1162 25.8842C11.736 26.1882 12.4849 25.9322 12.7889 25.3124L10.5444 24.2114ZM14.1006 19.8002L15.2228 20.3507L15.2228 20.3507L14.1006 19.8002ZM25.8994 20.1998L27.0217 20.7503L27.0217 20.7503L25.8994 20.1998ZM29.4556 15.7886C29.7596 15.1688 29.5036 14.4199 28.8838 14.1158C28.264 13.8118 27.5151 14.0678 27.2111 14.6876L29.4556 15.7886ZM20 20L18.8431 20.4733L18.8431 20.4733L20 20ZM20 33.75C16.8474 33.75 14.5833 33.7483 12.8301 33.5583C11.1002 33.3709 10.0165 33.0123 9.16985 32.3972L7.70039 34.4197C9.04426 35.3961 10.6182 35.8333 12.5608 36.0438C14.48 36.2517 16.9031 36.25 20 36.25V33.75ZM3.75 20C3.75 23.0969 3.74828 25.52 3.95621 27.4392C4.16668 29.3818 4.60387 30.9557 5.58025 32.2996L7.6028 30.8301C6.98765 29.9835 6.62909 28.8998 6.44167 27.1699C6.25172 25.4167 6.25 23.1526 6.25 20H3.75ZM9.16985 32.3972C8.56852 31.9603 8.03969 31.4315 7.6028 30.8301L5.58025 32.2996C6.17135 33.1132 6.88682 33.8286 7.70039 34.4197L9.16985 32.3972ZM33.75 20C33.75 23.1526 33.7483 25.4167 33.5583 27.1699C33.3709 28.8998 33.0123 29.9835 32.3972 30.8301L34.4197 32.2996C35.3961 30.9557 35.8333 29.3818 36.0438 27.4392C36.2517 25.52 36.25 23.0969 36.25 20H33.75ZM20 36.25C23.0969 36.25 25.52 36.2517 27.4392 36.0438C29.3818 35.8333 30.9557 35.3961 32.2996 34.4197L30.8301 32.3972C29.9835 33.0123 28.8998 33.3709 27.1699 33.5583C25.4167 33.7483 23.1526 33.75 20 33.75V36.25ZM32.3972 30.8301C31.9603 31.4315 31.4315 31.9603 30.8301 32.3972L32.2996 34.4197C33.1132 33.8287 33.8287 33.1132 34.4197 32.2996L32.3972 30.8301ZM20 6.25C23.1526 6.25 25.4167 6.25172 27.1699 6.44167C28.8998 6.62909 29.9835 6.98765 30.8301 7.6028L32.2996 5.58025C30.9557 4.60387 29.3818 4.16668 27.4392 3.95621C25.52 3.74828 23.0969 3.75 20 3.75V6.25ZM36.25 20C36.25 16.9031 36.2517 14.48 36.0438 12.5608C35.8333 10.6182 35.3961 9.04426 34.4197 7.70039L32.3972 9.16985C33.0123 10.0165 33.3709 11.1002 33.5583 12.8301C33.7483 14.5833 33.75 16.8474 33.75 20H36.25ZM30.8301 7.6028C31.4315 8.03969 31.9603 8.56852 32.3972 9.16985L34.4197 7.70039C33.8286 6.88682 33.1132 6.17135 32.2996 5.58025L30.8301 7.6028ZM20 3.75C16.9031 3.75 14.48 3.74828 12.5608 3.95621C10.6182 4.16668 9.04426 4.60387 7.70039 5.58025L9.16985 7.6028C10.0165 6.98765 11.1002 6.62909 12.8301 6.44167C14.5833 6.25172 16.8474 6.25 20 6.25V3.75ZM6.25 20C6.25 16.8474 6.25172 14.5833 6.44167 12.8301C6.62909 11.1002 6.98765 10.0165 7.6028 9.16985L5.58025 7.70039C4.60387 9.04426 4.16668 10.6182 3.95621 12.5608C3.74828 14.48 3.75 16.9031 3.75 20H6.25ZM7.70039 5.58025C6.88682 6.17135 6.17135 6.88682 5.58025 7.70039L7.6028 9.16985C8.03969 8.56852 8.56852 8.03969 9.16985 7.6028L7.70039 5.58025ZM12.7889 25.3124L15.2228 20.3507L12.9783 19.2497L10.5444 24.2114L12.7889 25.3124ZM27.0217 20.7503L29.4556 15.7886L27.2111 14.6876L24.7772 19.6493L27.0217 20.7503ZM18.8431 20.4733C20.3083 24.055 25.3174 24.2247 27.0217 20.7503L24.7772 19.6493C24.0228 21.1873 21.8055 21.1122 21.1569 19.5267L18.8431 20.4733ZM15.2228 20.3507C15.9772 18.8127 18.1945 18.8878 18.8431 20.4733L21.1569 19.5267C19.6917 15.945 14.6826 15.7753 12.9783 19.2497L15.2228 20.3507Z" fill="#FAFAFA"/>
</g>
</svg>
