<svg width="22" height="22" viewBox="0 0 22 22" xmlns="http://www.w3.org/2000/svg">
<path fill-rule="evenodd" clip-rule="evenodd" d="M10.9995 1.75098C5.89088 1.75098 1.74951 5.89234 1.74951 11.001C1.74951 13.1958 2.51323 15.2113 3.7906 16.7976C4.58464 15.2837 6.17095 14.251 7.99951 14.251H13.9995C15.8281 14.251 17.4144 15.2837 18.2084 16.7976C19.4858 15.2113 20.2495 13.1958 20.2495 11.001C20.2495 5.89234 16.1081 1.75098 10.9995 1.75098ZM17.0826 17.9695C16.6516 16.6802 15.4334 15.751 13.9995 15.751H7.99951C6.56564 15.751 5.34742 16.6802 4.91638 17.9695C6.54304 19.3908 8.67013 20.251 10.9995 20.251C13.3289 20.251 15.456 19.3908 17.0826 17.9695ZM0.249512 11.001C0.249512 5.06392 5.06245 0.250977 10.9995 0.250977C16.9366 0.250977 21.7495 5.06392 21.7495 11.001C21.7495 14.0494 20.4796 16.8026 18.442 18.758C16.5112 20.611 13.8877 21.751 10.9995 21.751C8.11133 21.751 5.48784 20.611 3.55702 18.758C1.5194 16.8026 0.249512 14.0494 0.249512 11.001ZM10.9995 4.75098C9.20459 4.75098 7.74951 6.20605 7.74951 8.00098C7.74951 9.7959 9.20459 11.251 10.9995 11.251C12.7944 11.251 14.2495 9.7959 14.2495 8.00098C14.2495 6.20605 12.7944 4.75098 10.9995 4.75098ZM6.24951 8.00098C6.24951 5.37762 8.37616 3.25098 10.9995 3.25098C13.6229 3.25098 15.7495 5.37762 15.7495 8.00098C15.7495 10.6243 13.6229 12.751 10.9995 12.751C8.37616 12.751 6.24951 10.6243 6.24951 8.00098Z"/>
</svg>
