<svg width="20" height="20" viewBox="0 0 20 20" xmlns="http://www.w3.org/2000/svg">
<path d="M9.86396 1.04152C9.90837 1.04152 9.95332 1.04153 9.99883 1.04153C10.0443 1.04153 10.0893 1.04152 10.1337 1.04152C11.5556 1.04129 12.4233 1.04116 13.1462 1.27605C14.605 1.75003 15.7487 2.89373 16.2226 4.35249C16.2251 4.35994 16.2275 4.3674 16.2298 4.37487H16.4733C19.5613 4.37487 20.8878 8.29326 18.4348 10.169L18.4259 10.1758L16.3749 11.6311C16.2983 11.6854 16.2192 11.7358 16.1378 11.7822C16.1289 11.8054 16.1198 11.8286 16.1105 11.8518C15.8976 12.3806 15.482 13.0152 15.0823 13.4217C14.4309 14.0842 13.7569 14.378 12.6805 14.8471C12.6569 14.8574 12.633 14.8678 12.609 14.8783C12.1453 15.0804 11.6765 15.2638 11.2413 15.3975C11.0351 15.4609 10.827 15.5161 10.6238 15.5563V17.7082H13.3322C13.6773 17.7082 13.9572 17.988 13.9572 18.3332C13.9572 18.6784 13.6773 18.9582 13.3322 18.9582H6.66549C6.32032 18.9582 6.04049 18.6784 6.04049 18.3332C6.04049 17.988 6.32032 17.7082 6.66549 17.7082H9.37383V15.5563C9.17067 15.5161 8.96256 15.4609 8.7564 15.3975C8.32112 15.2638 7.85231 15.0804 7.38868 14.8783C7.36464 14.8678 7.3408 14.8574 7.31715 14.8471C6.24077 14.378 5.56671 14.0842 4.91535 13.4217C4.51567 13.0152 4.10009 12.3806 3.88718 11.8518C3.87759 11.828 3.86824 11.8041 3.85915 11.7802C3.7794 11.736 3.70209 11.6873 3.62758 11.6345L1.57182 10.1758L1.56295 10.169C-0.889986 8.29326 0.436517 4.37487 3.52447 4.37487H3.76783C3.7702 4.3674 3.77259 4.35994 3.77501 4.35249C4.249 2.89373 5.39269 1.75003 6.85145 1.27605C7.57439 1.04116 8.44206 1.04129 9.86396 1.04152ZM3.56805 5.62487H3.52447C1.63538 5.62487 0.821879 8.01755 2.31394 9.16969L3.55714 10.0518C3.54037 9.64994 3.54042 9.20073 3.54049 8.67985C3.54049 8.64801 3.54049 8.61591 3.54049 8.58353L3.54049 7.42991C3.54046 6.69723 3.54044 6.11246 3.56805 5.62487ZM16.4405 10.0519L17.6838 9.16969C19.1759 8.01755 18.3624 5.62487 16.4733 5.62487H16.4296C16.4572 6.11245 16.4572 6.69721 16.4572 7.42986L16.4572 8.58353C16.4572 8.61615 16.4572 8.64848 16.4572 8.68055C16.4572 9.20116 16.4573 9.65016 16.4405 10.0519ZM9.99883 2.29153C8.39911 2.29153 7.74748 2.29924 7.23773 2.46487C6.15951 2.81521 5.31417 3.66055 4.96384 4.73876C4.92859 4.84724 4.89977 4.96599 4.87657 5.10369C4.79267 5.6017 4.79049 6.27332 4.79049 7.49987V8.58353C4.79049 9.95022 4.79658 10.5921 4.96461 11.151C4.98833 11.2299 5.01549 11.3074 5.04674 11.385C5.19811 11.761 5.52253 12.2563 5.80669 12.5454C6.27292 13.0195 6.72454 13.2251 7.88825 13.7324C8.32675 13.9236 8.74887 14.0875 9.1236 14.2027C9.50749 14.3206 9.80213 14.3749 9.99883 14.3749C10.1955 14.3749 10.4902 14.3206 10.8741 14.2027C11.2488 14.0875 11.6709 13.9236 12.1094 13.7324C13.2731 13.2251 13.7247 13.0195 14.191 12.5454C14.4751 12.2563 14.7995 11.761 14.9509 11.385C14.9813 11.3096 15.0077 11.2344 15.031 11.1579C15.201 10.5977 15.2072 9.95608 15.2072 8.58353V7.49987C15.2072 6.27332 15.205 5.6017 15.1211 5.10369C15.0979 4.96599 15.0691 4.84724 15.0338 4.73876C14.6835 3.66055 13.8381 2.81521 12.7599 2.46487C12.2502 2.29924 11.5985 2.29153 9.99883 2.29153Z"/>
</svg>
