<svg width="20" height="19" viewBox="0 0 20 19" xmlns="http://www.w3.org/2000/svg">
<path fill-rule="evenodd" clip-rule="evenodd" d="M14.8248 2.64052C14.3041 2.11983 13.4599 2.11983 12.9392 2.64052L11.526 4.05372L15.1302 4.05371C15.3087 3.57898 15.2066 3.02232 14.8248 2.64052ZM10.0662 3.39244C10.0815 3.37694 10.0964 3.362 10.1108 3.34763L11.8785 1.57986C12.985 0.473379 14.779 0.473379 15.8855 1.57986C16.567 2.26136 16.8286 3.20301 16.6708 4.08456C18.0367 4.28726 19.0846 5.46477 19.0846 6.88705C19.0846 7.68572 18.7537 8.40704 18.2234 8.92134C18.2513 9.39919 18.2513 9.8596 18.2513 10.7275V10.7825C18.2513 11.7771 18.2513 12.56 18.2101 13.1932C18.1681 13.8381 18.081 14.3805 17.8816 14.8848C17.3883 16.1324 16.4377 17.1344 15.2277 17.6595C14.7349 17.8733 14.206 17.9659 13.5846 18.0103C12.9767 18.0537 12.2264 18.0537 11.28 18.0537H8.7226C7.77618 18.0537 7.02589 18.0537 6.41802 18.0103C5.79656 17.9659 5.2677 17.8733 4.7749 17.6595C3.5649 17.1344 2.61426 16.1324 2.12101 14.8848C1.92159 14.3805 1.83454 13.8381 1.79255 13.1932C1.75132 12.5601 1.75133 11.7773 1.75133 10.783L1.75133 10.7561C1.75133 10.3692 1.74357 10.053 1.73672 9.774C1.72851 9.43957 1.72162 9.15861 1.73097 8.87346C1.22897 8.3628 0.917969 7.66111 0.917969 6.88705C0.917969 5.42069 2.03191 4.2145 3.45973 4.06854C3.30794 3.19162 3.57047 2.25725 4.24784 1.57988C5.35433 0.47339 7.1483 0.47339 8.25478 1.57988L10.0225 3.34764C10.0374 3.36248 10.0519 3.37741 10.0662 3.39244ZM8.60731 4.05373L7.19412 2.64054C6.67342 2.11984 5.8292 2.11984 5.3085 2.64054C4.92671 3.02233 4.82462 3.57899 5.00314 4.05372L8.60731 4.05373ZM3.7513 5.55372C3.01492 5.55372 2.41797 6.15067 2.41797 6.88705C2.41797 7.31368 2.61751 7.69333 2.93138 7.9386L2.96181 7.96169C3.18284 8.12452 3.4549 8.22038 3.7513 8.22038H9.2513V5.55373L3.7513 5.55372ZM10.7513 8.22038V5.55373L16.2513 5.55372C16.9877 5.55372 17.5846 6.15067 17.5846 6.88705C17.5846 7.33793 17.3615 7.73678 17.0163 7.97927C16.8 8.13127 16.5372 8.22038 16.2513 8.22038H10.7513ZM9.2513 9.72038H3.7513C3.57532 9.72038 3.40295 9.70427 3.23565 9.67346C3.24293 9.94123 3.25133 10.2779 3.25133 10.7561C3.25133 11.7829 3.25169 12.517 3.28938 13.0957C3.32666 13.6684 3.39818 14.0355 3.51593 14.3333C3.86847 15.2249 4.5401 15.9224 5.37201 16.2834C5.64493 16.4019 5.98428 16.4754 6.52496 16.5141C7.07309 16.5533 7.76984 16.5537 8.7513 16.5537H9.2513V9.72038ZM10.7513 16.5537L10.7513 9.72038H16.2513C16.4205 9.72038 16.5864 9.70549 16.7476 9.67694C16.7512 9.95436 16.7513 10.2922 16.7513 10.7561C16.7513 11.7828 16.7509 12.517 16.7132 13.0957C16.6759 13.6683 16.6044 14.0355 16.4867 14.3333C16.1341 15.2249 15.4625 15.9224 14.6306 16.2834C14.3577 16.4019 14.0183 16.4754 13.4776 16.5141C12.9295 16.5533 12.2328 16.5537 11.2513 16.5537H10.7513Z"/>
</svg>
