<svg width="24" height="24" viewBox="0 0 24 24" fill="none" xmlns="http://www.w3.org/2000/svg">
<path d="M5.06107 20.0451L5.50191 19.4383L5.06107 20.0451ZM3.95491 18.9389L4.56168 18.4981L3.95491 18.9389ZM20.0451 18.9389L19.4383 18.4981L20.0451 18.9389ZM18.9389 20.0451L18.4981 19.4383L18.9389 20.0451ZM12 20.25C10.1084 20.25 8.74999 20.249 7.69804 20.135C6.66013 20.0225 6.00992 19.8074 5.50191 19.4383L4.62023 20.6518C5.42656 21.2377 6.37094 21.5 7.53648 21.6263C8.68798 21.751 10.1418 21.75 12 21.75V20.25ZM2.25 12C2.25 13.4888 2.24923 14.9358 2.37308 16.1761C2.49487 17.3959 2.74694 18.5523 3.34815 19.3798L4.56168 18.4981C4.20798 18.0113 3.98258 17.1981 3.86565 16.0271C3.75077 14.8765 3.75 13.5112 3.75 12H2.25ZM5.50191 19.4383C5.14111 19.1762 4.82382 18.8589 4.56168 18.4981L3.34815 19.3798C3.70281 19.8679 4.13209 20.2972 4.62023 20.6518L5.50191 19.4383ZM20.25 12C20.25 13.5112 20.2492 14.8765 20.1343 16.0271C20.0174 17.1981 19.792 18.0113 19.4383 18.4981L20.6518 19.3798C21.2531 18.5523 21.5051 17.3959 21.6269 16.1761C21.7508 14.9358 21.75 13.4888 21.75 12H20.25ZM12 21.75C13.8582 21.75 15.312 21.751 16.4635 21.6263C17.6291 21.5 18.5734 21.2377 19.3798 20.6518L18.4981 19.4383C17.9901 19.8074 17.3399 20.0225 16.302 20.135C15.25 20.249 13.8916 20.25 12 20.25V21.75ZM19.4383 18.4981C19.1762 18.8589 18.8589 19.1762 18.4981 19.4383L19.3798 20.6518C19.8679 20.2972 20.2972 19.8679 20.6518 19.3798L19.4383 18.4981ZM12 3.75C15.2171 3.75 17.2486 5.12514 18.4985 6.82012C19.7737 8.54948 20.25 10.6381 20.25 12H21.75C21.75 10.3619 21.1958 7.95052 19.7057 5.92988C18.1903 3.87486 15.7219 2.25 12 2.25V3.75ZM12 2.25C8.27815 2.25 5.80965 3.87486 4.29427 5.92988C2.80425 7.95052 2.25 10.3619 2.25 12H3.75C3.75 10.6381 4.22629 8.54948 5.50153 6.82012C6.75142 5.12514 8.78292 3.75 12 3.75V2.25ZM8.25 12C8.25 14.0711 9.92893 15.75 12 15.75V14.25C10.7574 14.25 9.75 13.2426 9.75 12H8.25ZM12 15.75C14.0711 15.75 15.75 14.0711 15.75 12H14.25C14.25 13.2426 13.2426 14.25 12 14.25V15.75ZM15.75 12C15.75 9.92893 14.0711 8.25 12 8.25V9.75C13.2426 9.75 14.25 10.7574 14.25 12H15.75ZM12 8.25C9.92893 8.25 8.25 9.92893 8.25 12H9.75C9.75 10.7574 10.7574 9.75 12 9.75V8.25Z" fill="white"/>
</svg>
