<svg width="18" height="20" viewBox="0 0 18 20" fill="none" xmlns="http://www.w3.org/2000/svg">
<path fill-rule="evenodd" clip-rule="evenodd" d="M6.1875 0C6.5672 0 6.875 0.307804 6.875 0.6875V1.84306C7.48847 1.83333 8.1701 1.83333 8.92736 1.83333H8.94764C9.7049 1.83333 10.3865 1.83333 11 1.84306V0.6875C11 0.307804 11.3078 0 11.6875 0C12.0672 0 12.375 0.307804 12.375 0.6875V1.89162C13.7609 1.9785 14.8257 2.20307 15.7023 2.83997C16.1497 3.16508 16.5433 3.55858 16.8684 4.00605C17.6034 5.01774 17.7892 6.27997 17.8481 7.99729C17.875 8.78307 17.875 9.69734 17.875 10.7607V10.7809C17.875 11.8443 17.875 12.7586 17.8481 13.5444C17.7892 15.2617 17.6034 16.5239 16.8684 17.5356C16.5433 17.9831 16.1497 18.3766 15.7023 18.7017C14.6906 19.4367 13.4284 19.6226 11.711 19.6814C10.9252 19.7083 10.0109 19.7083 8.94739 19.7083H8.896C7.21252 19.7083 5.89289 19.7083 4.84594 19.5949C3.77753 19.4792 2.91185 19.2387 2.17272 18.7017C1.72525 18.3766 1.33174 17.9831 1.00664 17.5356C0.46963 16.7965 0.229172 15.9308 0.113417 14.8624C-1.34272e-05 13.8154 -7.47067e-06 12.4958 1.23955e-07 10.8123L2.33231e-07 10.7607C-3.99573e-08 9.69731 -2.57821e-07 8.78306 0.0269211 7.99729C0.0857589 6.27997 0.271605 5.01774 1.00664 4.00605C1.33174 3.55858 1.72525 3.16508 2.17272 2.83997C3.04934 2.20307 4.11408 1.9785 5.5 1.89162V0.6875C5.5 0.307804 5.8078 0 6.1875 0ZM5.5 3.26998C4.25145 3.35584 3.53079 3.55287 2.98092 3.95237C2.65018 4.19267 2.35933 4.48352 2.11904 4.81425C1.71953 5.36413 1.52251 6.08478 1.43665 7.33333H16.4384C16.3525 6.08478 16.1555 5.36413 15.756 4.81425C15.5157 4.48352 15.2248 4.19267 14.8941 3.95237C14.3442 3.55287 13.6235 3.35584 12.375 3.26998V3.4375C12.375 3.8172 12.0672 4.125 11.6875 4.125C11.3078 4.125 11 3.8172 11 3.4375V3.21822C10.3954 3.20838 9.71444 3.20833 8.9375 3.20833C8.16056 3.20833 7.47962 3.20838 6.875 3.21822V3.4375C6.875 3.8172 6.5672 4.125 6.1875 4.125C5.8078 4.125 5.5 3.8172 5.5 3.4375V3.26998ZM16.4901 8.70833H1.38489C1.37505 9.31295 1.375 9.9939 1.375 10.7708C1.375 12.5048 1.37594 13.75 1.48042 14.7143C1.5835 15.6657 1.78071 16.2617 2.11904 16.7274C2.35933 17.0582 2.65018 17.349 2.98092 17.5893C3.44659 17.9276 4.04262 18.1248 4.99404 18.2279C5.95833 18.3324 7.20356 18.3333 8.9375 18.3333C9.71515 18.3333 10.3966 18.3333 11.0017 18.3234C11.0057 17.8883 11.0192 17.568 11.0649 17.2796C11.4221 15.0243 13.1909 13.2554 15.4463 12.8982C15.7347 12.8526 16.055 12.839 16.4901 12.835C16.5 12.23 16.5 11.5485 16.5 10.7708C16.5 9.9939 16.5 9.31295 16.4901 8.70833ZM16.4382 14.2109C16.067 14.2152 15.8493 14.2265 15.6614 14.2563C13.9944 14.5203 12.687 15.8277 12.423 17.4947C12.3932 17.6827 12.3818 17.9003 12.3776 18.2715C13.6245 18.1856 14.3446 17.9885 14.8941 17.5893C15.2248 17.349 15.5157 17.0582 15.756 16.7274C16.1552 16.1779 16.3522 15.4579 16.4382 14.2109ZM5.5 11.6875C5.5 11.3078 5.8078 11 6.1875 11H11.6875C12.0672 11 12.375 11.3078 12.375 11.6875C12.375 12.0672 12.0672 12.375 11.6875 12.375H6.1875C5.8078 12.375 5.5 12.0672 5.5 11.6875Z" fill="#BABABA"/>
</svg>
