<svg width="60" height="42" viewBox="0 0 60 42" fill="none" xmlns="http://www.w3.org/2000/svg">
<g clip-path="url(#clip0_2_2)">
<path d="M59.999 36V5.99997C59.999 2.68626 57.3127 -3.05176e-05 53.999 -3.05176e-05L5.9994 -3.05176e-05C2.68569 -3.05176e-05 -0.000598907 2.68626 -0.000598907 5.99997V36C-0.000598907 39.3137 2.68569 42 5.9994 42H53.999C57.3127 42 59.999 39.3137 59.999 36Z" fill="url(#paint0_linear_2_2)"/>
<path d="M34.4565 14.002H47.2287V28.002L34.4565 14.002Z" fill="url(#paint1_linear_2_2)" fill-opacity="0.6"/>
<path d="M8.91211 28.002H21.6843V14.002L8.91211 28.002Z" fill="url(#paint2_linear_2_2)" fill-opacity="0.6"/>
<path d="M47.2287 14.002H60.0009V28.002L47.2287 14.002Z" fill="url(#paint3_linear_2_2)" fill-opacity="0.6"/>
<path d="M21.6843 28.002H34.4565V14.002L21.6843 28.002Z" fill="url(#paint4_linear_2_2)" fill-opacity="0.6"/>
<mask id="mask0_2_2" style="mask-type:alpha" maskUnits="userSpaceOnUse" x="0" y="0" width="60" height="42">
<path d="M60 36V6.00001C60 2.6863 57.3137 7.62939e-06 54 7.62939e-06L6.0004 7.62939e-06C2.68669 7.62939e-06 0.000400543 2.6863 0.000400543 6.00001V36C0.000400543 39.3137 2.68669 42 6.0004 42H54C57.3137 42 60 39.3137 60 36Z" fill="url(#paint5_linear_2_2)"/>
</mask>
<g mask="url(#mask0_2_2)">
<path d="M34.456 3.05176e-05H47.2283V14L34.456 3.05176e-05Z" fill="url(#paint6_linear_2_2)" fill-opacity="0.6"/>
<path d="M8.91162 14H21.6838V3.05176e-05L8.91162 14Z" fill="url(#paint7_linear_2_2)" fill-opacity="0.6"/>
<path d="M47.2283 3.05176e-05H60.0005V14L47.2283 3.05176e-05Z" fill="url(#paint8_linear_2_2)" fill-opacity="0.6"/>
<path d="M21.6838 14H34.456V3.05176e-05L21.6838 14Z" fill="url(#paint9_linear_2_2)" fill-opacity="0.6"/>
<path d="M34.456 27.9981H47.2283V41.9981L34.456 27.9981Z" fill="url(#paint10_linear_2_2)" fill-opacity="0.6"/>
<path d="M8.91162 41.9981H21.6838V27.9981L8.91162 41.9981Z" fill="url(#paint11_linear_2_2)" fill-opacity="0.6"/>
<path d="M47.2283 27.9981H60.0005V41.9981L47.2283 27.9981Z" fill="url(#paint12_linear_2_2)" fill-opacity="0.6"/>
<path d="M21.6838 41.9981H34.456V27.9981L21.6838 41.9981Z" fill="url(#paint13_linear_2_2)" fill-opacity="0.6"/>
</g>
</g>
<defs>
<linearGradient id="paint0_linear_2_2" x1="59.999" y1="21" x2="-0.000631094" y2="21" gradientUnits="userSpaceOnUse">
<stop stop-color="#FBAD3A"/>
<stop offset="1" stop-color="#FF9519"/>
</linearGradient>
<linearGradient id="paint1_linear_2_2" x1="34.4565" y1="14.002" x2="34.4565" y2="28.002" gradientUnits="userSpaceOnUse">
<stop stop-color="white" stop-opacity="0.5"/>
<stop offset="1" stop-color="white" stop-opacity="0.1"/>
</linearGradient>
<linearGradient id="paint2_linear_2_2" x1="34.4565" y1="14.002" x2="34.4565" y2="28.002" gradientUnits="userSpaceOnUse">
<stop stop-color="white" stop-opacity="0.5"/>
<stop offset="1" stop-color="white" stop-opacity="0.1"/>
</linearGradient>
<linearGradient id="paint3_linear_2_2" x1="34.4565" y1="14.002" x2="34.4565" y2="28.002" gradientUnits="userSpaceOnUse">
<stop stop-color="white" stop-opacity="0.5"/>
<stop offset="1" stop-color="white" stop-opacity="0.1"/>
</linearGradient>
<linearGradient id="paint4_linear_2_2" x1="34.4565" y1="14.002" x2="34.4565" y2="28.002" gradientUnits="userSpaceOnUse">
<stop stop-color="white" stop-opacity="0.5"/>
<stop offset="1" stop-color="white" stop-opacity="0.1"/>
</linearGradient>
<linearGradient id="paint5_linear_2_2" x1="60" y1="21" x2="0.000407696" y2="21" gradientUnits="userSpaceOnUse">
<stop stop-color="#E42C64"/>
<stop offset="1" stop-color="#614AD3"/>
</linearGradient>
<linearGradient id="paint6_linear_2_2" x1="34.456" y1="3.05176e-05" x2="34.456" y2="14" gradientUnits="userSpaceOnUse">
<stop stop-color="white" stop-opacity="0.5"/>
<stop offset="1" stop-color="white" stop-opacity="0.1"/>
</linearGradient>
<linearGradient id="paint7_linear_2_2" x1="34.456" y1="3.05176e-05" x2="34.456" y2="14" gradientUnits="userSpaceOnUse">
<stop stop-color="white" stop-opacity="0.5"/>
<stop offset="1" stop-color="white" stop-opacity="0.1"/>
</linearGradient>
<linearGradient id="paint8_linear_2_2" x1="34.456" y1="3.05176e-05" x2="34.456" y2="14" gradientUnits="userSpaceOnUse">
<stop stop-color="white" stop-opacity="0.5"/>
<stop offset="1" stop-color="white" stop-opacity="0.1"/>
</linearGradient>
<linearGradient id="paint9_linear_2_2" x1="34.456" y1="3.05176e-05" x2="34.456" y2="14" gradientUnits="userSpaceOnUse">
<stop stop-color="white" stop-opacity="0.5"/>
<stop offset="1" stop-color="white" stop-opacity="0.1"/>
</linearGradient>
<linearGradient id="paint10_linear_2_2" x1="34.456" y1="27.9981" x2="34.456" y2="41.9981" gradientUnits="userSpaceOnUse">
<stop stop-color="white" stop-opacity="0.5"/>
<stop offset="1" stop-color="white" stop-opacity="0.1"/>
</linearGradient>
<linearGradient id="paint11_linear_2_2" x1="34.456" y1="27.9981" x2="34.456" y2="41.9981" gradientUnits="userSpaceOnUse">
<stop stop-color="white" stop-opacity="0.5"/>
<stop offset="1" stop-color="white" stop-opacity="0.1"/>
</linearGradient>
<linearGradient id="paint12_linear_2_2" x1="34.456" y1="27.9981" x2="34.456" y2="41.9981" gradientUnits="userSpaceOnUse">
<stop stop-color="white" stop-opacity="0.5"/>
<stop offset="1" stop-color="white" stop-opacity="0.1"/>
</linearGradient>
<linearGradient id="paint13_linear_2_2" x1="34.456" y1="27.9981" x2="34.456" y2="41.9981" gradientUnits="userSpaceOnUse">
<stop stop-color="white" stop-opacity="0.5"/>
<stop offset="1" stop-color="white" stop-opacity="0.1"/>
</linearGradient>
<clipPath id="clip0_2_2">
<rect width="60" height="42" fill="white"/>
</clipPath>
</defs>
</svg>
