<svg width="76" height="30" viewBox="0 0 76 30" fill="none" xmlns="http://www.w3.org/2000/svg">
<circle cx="15" cy="15" r="14.5" stroke="white" stroke-opacity="0.2"/>
<path fill-rule="evenodd" clip-rule="evenodd" d="M23.3342 14.7713H21.5911C21.2784 14.7713 21.0189 15.0315 21.0189 15.345V16.8461C21.0189 17.1596 21.2784 17.4198 21.5911 17.4198H23.3342C23.6468 17.4198 23.9063 17.1596 23.9063 16.8461V15.345C23.9063 15.0315 23.6468 14.7713 23.3342 14.7713ZM16.9408 12.7966H16.7279V12.7566C16.7878 12.7566 16.8211 12.7433 16.7944 12.6965C16.7545 12.6165 16.9275 12.6232 16.9541 12.6365C16.994 12.6699 16.9674 12.7566 16.9408 12.7966ZM16.6481 12.85H16.9075C16.8809 12.8967 16.8011 13.0435 16.7479 13.0435C16.7213 13.0101 16.6547 12.9167 16.6481 12.85ZM21.6044 15.345H23.3275V16.8461H21.6044V15.345ZM18.0651 15.345H20.4601C20.4601 15.0315 20.2006 14.7713 19.888 14.7713H18.0452C17.7325 14.7713 17.473 15.0315 17.473 15.345V16.8461C17.473 17.1596 17.7325 17.4198 18.0452 17.4198H19.888C20.2006 17.4198 20.4601 17.1596 20.4601 16.8461V15.8587H18.5175C18.5175 16.1056 18.7171 16.299 18.9566 16.299H19.9146V16.8461H18.0651V15.345ZM10.5808 15.345H12.8693C12.8693 15.0315 12.6099 14.7713 12.2972 14.7713H10.5275C10.2149 14.7713 9.95541 15.0315 9.95541 15.345V15.812C9.95541 16.1256 10.2149 16.3858 10.5275 16.3858H12.3038V16.8527H9.95541C9.95541 17.1663 10.2149 17.4265 10.5275 17.4265H12.3571C12.6697 17.4265 12.9292 17.1663 12.9292 16.8527V16.3858C12.9292 16.0722 12.6697 15.812 12.3571 15.812H10.5808V15.345ZM7.28765 15.345H9.4498C9.4498 15.0315 9.19034 14.7713 8.87767 14.7713H7.13464C6.82196 14.7713 6.5625 15.0315 6.5625 15.345V16.8461C6.5625 17.1596 6.82196 17.4198 7.13464 17.4198H8.87767C9.19034 17.4198 9.4498 17.1596 9.4498 16.8461H7.28765V15.345ZM17.4863 12.5364C17.473 12.5431 17.4597 12.5498 17.4464 12.5498C17.3666 12.6632 17.4132 12.6498 17.2668 12.7499C17.2668 12.9434 17.2734 12.9634 17.32 13.1369C17.32 13.1435 17.32 13.1435 17.32 13.1502C17.32 13.1569 17.3134 13.1569 17.3134 13.1569C17.2801 13.1635 17.2269 13.1769 17.2003 13.1836C17.2003 13.1902 17.2136 13.297 17.2003 13.3837C17.1737 13.5104 16.8676 13.7906 16.8011 13.8106C16.7013 13.8307 16.5882 13.7439 16.4086 13.6639C16.362 13.6439 16.1957 13.5371 16.1092 13.5038C16.036 13.4771 15.9695 13.6505 16.056 13.6972C16.0959 13.7172 16.1624 13.7506 16.1824 13.804C16.2423 13.9641 16.1757 14.5778 16.0493 14.6979C15.9895 14.6979 15.9362 14.6446 15.8963 14.6579C15.8165 14.7046 15.8697 14.9448 15.8963 14.9848C16.382 15.4851 16.3288 15.8587 16.535 16.1389C16.6281 16.1389 16.5683 16.239 16.6414 16.3591C16.6614 16.4191 16.6348 16.5192 16.6281 16.5592C16.6281 16.6126 16.6281 16.6593 16.6281 16.7127C16.6215 16.726 16.6148 16.746 16.6148 16.7594C16.6148 16.806 16.6148 16.8461 16.6148 16.8928C16.6015 16.9595 16.5816 17.0462 16.5683 17.1063C16.5416 17.233 16.6481 17.3331 16.5816 17.4532C16.5816 17.5265 16.5816 17.5132 16.535 17.5732C16.535 17.6866 16.5084 17.9335 16.535 18.0202C16.5549 18.0802 16.7678 18.3338 16.8277 18.3605C16.9608 18.4205 17.1537 18.4071 17.0872 18.614C16.7013 18.734 16.4618 18.5472 16.2556 18.5472L16.2489 18.5806C16.1159 18.5806 16.0161 18.5472 15.9828 18.5406C15.9828 18.5072 16.0227 18.2337 16.0427 18.187C16.056 18.167 16.0693 18.1403 16.0893 18.1203C16.1026 18.0736 16.076 17.7333 16.0693 17.6399C15.9895 17.5799 15.9695 17.3931 15.9695 17.293C15.9429 17.213 15.9429 17.1196 15.9429 17.0195C15.9429 16.9728 15.9096 16.8994 15.9296 16.8394C15.9429 16.7994 15.9895 16.7794 15.9961 16.746C15.9961 16.706 15.9961 16.6726 15.9961 16.6326C16.0161 16.5125 16.0094 16.4591 15.9362 16.3858C15.7566 16.3858 15.73 16.3991 15.6369 16.2457C15.6036 16.199 15.3574 15.7987 15.3308 15.792C15.1246 15.6986 15.1645 15.7386 15.0714 15.5719C15.0647 15.5719 15.0115 15.5919 14.9649 15.6653C14.8918 15.7787 14.7587 16.1389 14.7188 16.2657C14.6988 16.3391 14.7188 16.4124 14.6855 16.4725C14.6656 16.5125 14.5857 16.5258 14.5724 16.5592C14.4992 16.6926 14.5525 16.6793 14.4128 16.7727C14.3861 16.806 14.3861 16.8527 14.3662 16.8928C14.3529 16.9061 14.3462 16.9195 14.3329 16.9395C14.3063 16.9928 14.3595 17.0796 14.3462 17.1129C14.3196 17.193 14.293 17.2797 14.2597 17.3531C14.1932 17.5065 14.2065 17.7067 14.14 17.8001C14.1067 17.8468 14.0269 17.8001 13.967 17.8401C13.9604 17.8735 13.8672 18.0869 13.8473 18.147C13.8473 18.2604 13.8473 18.3738 13.8473 18.4939C13.8672 18.5539 13.9138 18.6073 13.9005 18.6807C13.8872 18.7607 13.6144 18.7607 13.4681 18.734C13.3683 18.7207 13.3417 18.6473 13.3417 18.5606C13.3417 18.4605 13.5412 17.8134 13.5346 17.7734C13.3816 17.5999 13.5745 17.4265 13.6344 17.2664C13.661 17.1863 13.6477 17.0796 13.6743 17.0062C13.7275 16.9061 13.7807 16.8127 13.834 16.7127C13.9338 16.6192 13.8872 16.6126 13.9404 16.5325C13.987 16.4591 14.0402 16.4124 14.0069 16.299C13.9404 16.0789 14.0801 15.7653 14.0934 15.5318C14.0668 15.5052 13.987 15.5118 13.9737 15.4451C13.9537 15.2983 14.0269 15.0448 14.0735 15.0248C14.0934 15.0115 14.12 15.0248 14.1333 15.0115C14.1333 14.9047 14.0269 14.3043 14.1067 14.271C14.16 14.251 14.273 14.2443 14.293 14.2309C14.293 14.2043 14.273 14.1509 14.2531 14.1509C14.2198 14.1442 14.1466 14.1309 14.0868 14.1175C13.9071 14.0775 14.0735 13.3703 14.0735 13.3637C14.12 13.297 14.3529 13.3837 14.3795 13.2769C14.4527 13.1769 14.3196 12.8033 14.5791 12.3363C14.6656 12.1829 14.8385 12.0228 15.0315 12.0895C15.098 12.1095 15.0581 12.2095 15.1712 12.1028C15.1712 12.0428 15.1446 11.9961 15.1313 11.9427C14.9383 11.369 15.5903 11.0554 16.0493 11.3823C16.1026 11.4023 16.1292 11.4157 16.1691 11.4424C16.1957 11.5758 16.3221 11.8026 16.1957 11.956C16.1425 11.9694 16.076 11.9961 16.036 12.0228C16.036 12.0761 16.0427 12.1228 16.0493 12.1562C16.056 12.1829 16.076 12.1962 16.0294 12.2162C16.0227 12.2162 16.0294 12.2362 16.0294 12.2429C16.1358 12.2629 16.2489 12.2229 16.3221 12.1962H16.4086V12.0895H16.4485V12.0027H16.4884V12.1495H16.5949V12.1962H18.1716V12.2763H18.2381V11.9761H18.298V12.2229H18.431V12.363H18.8502V12.323H18.9167V12.343H19.1163V12.4564H18.9167V12.4764H18.8502V12.4364H18.431V12.4764C18.3712 12.4764 18.3113 12.4764 18.2448 12.4764V12.4497H18.1649V12.5364H17.4863Z" fill="white"/>
<path d="M46.0795 13C45.7557 11.2102 44.3239 10.1534 42.5682 10.1534C40.3352 10.1534 38.7159 11.875 38.7159 14.6364C38.7159 17.3977 40.3352 19.1193 42.5682 19.1193C44.3239 19.1193 45.7557 18.0625 46.0795 16.2727H45.0227C44.767 17.483 43.7273 18.1307 42.5682 18.1307C40.983 18.1307 39.7386 16.9034 39.7386 14.6364C39.7386 12.3693 40.983 11.142 42.5682 11.142C43.7273 11.142 44.767 11.7898 45.0227 13H46.0795ZM52.56 12.4545H53.5827C53.5359 11.1378 52.3214 10.1534 50.6339 10.1534C48.9634 10.1534 47.6509 11.125 47.6509 12.5909C47.6509 13.767 48.5032 14.4659 49.8668 14.858L50.9407 15.1648C51.8612 15.4205 52.6793 15.7443 52.6793 16.6136C52.6793 17.5682 51.7589 18.1989 50.5487 18.1989C49.5089 18.1989 48.5884 17.7386 48.5032 16.75H47.4123C47.5146 18.1818 48.6737 19.1534 50.5487 19.1534C52.56 19.1534 53.7021 18.0455 53.7021 16.6307C53.7021 14.9943 52.1509 14.4659 51.2475 14.2273L50.3612 13.9886C49.7134 13.8182 48.6737 13.4773 48.6737 12.5398C48.6737 11.7045 49.4407 11.0909 50.5998 11.0909C51.6566 11.0909 52.4577 11.5938 52.56 12.4545ZM56.0362 17.8835C56.4581 17.8835 56.8033 17.5384 56.8033 17.1165C56.8033 16.6946 56.4581 16.3494 56.0362 16.3494C55.6143 16.3494 55.2692 16.6946 55.2692 17.1165C55.2692 17.5384 55.6143 17.8835 56.0362 17.8835ZM56.0362 13.4688C56.4581 13.4688 56.8033 13.1236 56.8033 12.7017C56.8033 12.2798 56.4581 11.9347 56.0362 11.9347C55.6143 11.9347 55.2692 12.2798 55.2692 12.7017C55.2692 13.1236 55.6143 13.4688 56.0362 13.4688ZM64.7102 13H65.8011C65.4773 11.3125 64.0625 10.1534 62.2216 10.1534C59.9844 10.1534 58.4034 11.875 58.4034 14.6364C58.4034 17.3977 59.9716 19.1193 62.2898 19.1193C64.3693 19.1193 65.8523 17.7344 65.8523 15.5739V14.6364H62.5284V15.5739H64.8295C64.7997 17.142 63.7685 18.1307 62.2898 18.1307C60.6705 18.1307 59.4261 16.9034 59.4261 14.6364C59.4261 12.3693 60.6705 11.142 62.2216 11.142C63.483 11.142 64.3395 11.8537 64.7102 13ZM75.0259 14.6364C75.0259 11.875 73.4066 10.1534 71.1737 10.1534C68.9407 10.1534 67.3214 11.875 67.3214 14.6364C67.3214 17.3977 68.9407 19.1193 71.1737 19.1193C73.4066 19.1193 75.0259 17.3977 75.0259 14.6364ZM74.0032 14.6364C74.0032 16.9034 72.7589 18.1307 71.1737 18.1307C69.5884 18.1307 68.3441 16.9034 68.3441 14.6364C68.3441 12.3693 69.5884 11.142 71.1737 11.142C72.7589 11.142 74.0032 12.3693 74.0032 14.6364Z" fill="white" fill-opacity="0.4"/>
</svg>
