<svg width="10" height="12" viewBox="0 0 10 12" fill="none" xmlns="http://www.w3.org/2000/svg">
<path fill-rule="evenodd" clip-rule="evenodd" d="M7.8032 1.05066L7.86324 1.08532C8.38199 1.3848 8.81456 1.63453 9.13131 1.87896C9.46563 2.13695 9.73098 2.43308 9.84212 2.84787C9.95327 3.26266 9.87153 3.65179 9.711 4.04239C9.5589 4.41244 9.30915 4.84499 9.00965 5.36371L6.46001 9.7798C6.44851 9.79972 6.43717 9.8194 6.42596 9.83886C6.228 10.1824 6.07147 10.454 5.83324 10.6587C5.595 10.8634 5.3029 10.9773 4.93348 11.1212C4.91256 11.1294 4.89139 11.1376 4.86997 11.146L4.83365 11.1602C4.14816 11.428 3.58314 11.6488 3.12043 11.7569C2.6365 11.87 2.16926 11.884 1.73375 11.6326C1.29823 11.3812 1.0768 10.9695 0.932748 10.4939C0.795015 10.0391 0.703694 9.43937 0.592904 8.7118L0.587034 8.67326C0.583572 8.65053 0.580132 8.62807 0.576733 8.60587C0.516713 8.21396 0.469255 7.90407 0.527412 7.5954C0.585569 7.28673 0.742542 7.01536 0.941066 6.67216C0.95231 6.65272 0.963687 6.63305 0.975186 6.61313L3.52481 2.19706C3.82429 1.67831 4.07401 1.24574 4.31844 0.928993C4.57644 0.594671 4.87257 0.329319 5.28736 0.218177C5.70215 0.107034 6.09128 0.188771 6.48187 0.349304C6.85192 0.501396 7.28448 0.75115 7.8032 1.05066ZM6.10172 1.27423C5.81462 1.15623 5.66485 1.1523 5.54618 1.1841C5.4275 1.2159 5.29976 1.29419 5.11012 1.53993C4.96814 1.72392 4.81681 1.96731 4.62455 2.29467L8.37523 4.46012C8.5626 4.12995 8.69772 3.8772 8.78607 3.66224C8.90407 3.37513 8.908 3.22537 8.8762 3.10669C8.8444 2.98801 8.76611 2.86028 8.52037 2.67064C8.26314 2.47213 7.8898 2.25536 7.33323 1.93402C6.77665 1.61268 6.40225 1.39775 6.10172 1.27423ZM7.87628 5.32675L4.1235 3.16009L1.84121 7.11313C1.59257 7.54379 1.53276 7.66041 1.51012 7.78055C1.48749 7.90069 1.50076 8.03109 1.57563 8.52269C1.6938 9.29854 1.77542 9.82627 1.88982 10.204C2.00033 10.5689 2.11428 10.6976 2.23375 10.7666C2.35321 10.8355 2.52167 10.8699 2.89292 10.7831C3.27724 10.6933 3.77508 10.5002 4.50606 10.2146C4.96924 10.0336 5.08881 9.97991 5.18153 9.90024C5.27426 9.82057 5.34535 9.71045 5.59399 9.2798L7.87628 5.32675Z" fill="#141414"/>
</svg>
