<svg width="24" height="24" viewBox="0 0 24 24" fill="none" xmlns="http://www.w3.org/2000/svg">
<g clip-path="url(#clip0_1424_50510)">
<path d="M15.8804 6.91381C14.9986 6.03202 13.5639 6.03202 12.6821 6.91381C11.8003 7.79561 11.8003 9.2304 12.6821 10.1122C13.5639 10.994 14.9986 10.994 15.8804 10.1122C16.7622 9.2304 16.7623 7.79566 15.8804 6.91381ZM13.4346 9.35962C12.9678 8.8928 12.9678 8.1332 13.4346 7.66639C13.9015 7.19957 14.6611 7.19957 15.1279 7.66639C15.5947 8.1332 15.5947 8.8928 15.1279 9.35962C14.6611 9.82644 13.9015 9.82643 13.4346 9.35962Z" fill="white"/>
<path fill-rule="evenodd" clip-rule="evenodd" d="M15.6583 16.7443C15.9024 15.5875 15.675 14.7164 15.5179 14.2999C16.6577 13.468 17.6936 12.5356 18.3834 11.5451C20.8896 7.94712 20.0791 3.46932 20.0434 3.28045C19.9925 3.01169 19.7822 2.8014 19.5135 2.75049C19.3246 2.71478 14.8468 1.90432 11.2489 4.41046C10.2462 5.10894 9.30293 6.16197 8.46329 7.31851C8.01299 7.16723 7.1928 6.99502 6.13271 7.21858C4.1401 7.63891 2.29314 9.22184 0.643193 11.9234C0.528957 12.1104 0.514168 12.3417 0.603542 12.5417C0.637149 12.6169 0.683826 12.6839 0.740427 12.7405C0.834567 12.8346 0.956122 12.8997 1.09065 12.9244L4.96451 13.636C4.87293 13.8494 4.81795 13.9846 4.80355 14.0203C4.70371 14.2677 4.76144 14.5509 4.95007 14.7395L6.03188 15.8213L6.97259 16.762L8.05441 17.8438C8.24303 18.0325 8.52618 18.0902 8.77362 17.9904C8.81268 17.9746 8.97118 17.91 9.22078 17.8023L9.95252 21.7863C9.97728 21.9208 10.0424 22.0424 10.1365 22.1365C10.1931 22.1931 10.2602 22.2398 10.3353 22.2734C10.5353 22.3628 10.7665 22.348 10.9535 22.2338C13.655 20.5838 15.238 18.7369 15.6583 16.7443ZM18.7705 6.68872C18.9113 5.53562 18.8551 4.54745 18.798 3.99588C18.2467 3.93883 17.2585 3.88253 16.1052 4.02344L18.7705 6.68872ZM7.67018 8.48415C6.71606 8.31253 4.63483 8.44661 2.31195 11.7962L5.52974 12.3872C6.03149 11.3288 6.76888 9.89221 7.67018 8.48415ZM7.91329 15.8213L8.67796 16.586C10.1677 15.9387 15.3768 13.5338 17.2918 10.7846C17.92 9.88288 18.3058 8.90203 18.5379 7.96123L14.8326 4.25594C13.8918 4.48804 12.911 4.87394 12.0092 5.50206C9.2568 7.41924 6.85432 12.6266 6.20773 14.1158L6.97259 14.8806L7.91329 15.8213ZM10.4691 17.2347L11.0808 20.565C14.5794 18.1387 14.5701 15.9761 14.3684 15.0861C12.9694 15.9868 11.5361 16.7267 10.4691 17.2347Z" fill="white"/>
</g>
<defs>
<clipPath id="clip0_1424_50510">
<rect width="24" height="24" fill="white"/>
</clipPath>
</defs>
</svg>
