<svg width="12" height="17" viewBox="0 0 12 17" fill="none" xmlns="http://www.w3.org/2000/svg">
<path fill-rule="evenodd" clip-rule="evenodd" d="M3.17587 5.79883C3.96162 5.15547 4.92952 4.62598 6 4.62598C7.07048 4.62598 8.03838 5.15547 8.82414 5.79883C9.61419 6.44571 10.2602 7.2403 10.6943 7.84498C10.7063 7.86173 10.7183 7.87832 10.7301 7.89477C10.9914 8.25789 11.2065 8.5568 11.2065 9.00098C11.2065 9.44515 10.9914 9.74406 10.7301 10.1072C10.7183 10.1236 10.7063 10.1402 10.6943 10.157C10.2602 10.7617 9.61419 11.5562 8.82414 12.2031C8.03838 12.8465 7.07048 13.376 6 13.376C4.92952 13.376 3.96162 12.8465 3.17587 12.2031C2.38582 11.5562 1.73981 10.7617 1.30571 10.157C1.29369 10.1402 1.28175 10.1236 1.26991 10.1072C1.00858 9.74406 0.793457 9.44515 0.793457 9.00098C0.793457 8.5568 1.00858 8.25789 1.26991 7.89477C1.28175 7.87831 1.29369 7.86172 1.30571 7.84498C1.73981 7.2403 2.38582 6.44571 3.17587 5.79883ZM3.651 6.37913C2.93174 6.96805 2.3296 7.7048 1.91497 8.28237C1.60298 8.71694 1.54346 8.82171 1.54346 9.00098C1.54346 9.18024 1.60298 9.28501 1.91497 9.71958C2.3296 10.2972 2.93174 11.0339 3.651 11.6228C4.37455 12.2152 5.17712 12.626 6 12.626C6.82289 12.626 7.62545 12.2152 8.349 11.6228C9.06826 11.0339 9.67041 10.2972 10.085 9.71958C10.397 9.28501 10.4565 9.18024 10.4565 9.00098C10.4565 8.82171 10.397 8.71695 10.085 8.28237C9.67041 7.7048 9.06826 6.96805 8.349 6.37913C7.62545 5.78671 6.82289 5.37598 6 5.37598C5.17712 5.37598 4.37455 5.78671 3.651 6.37913ZM4.125 9.00098C4.125 7.96544 4.96447 7.12598 6 7.12598C7.03554 7.12598 7.875 7.96544 7.875 9.00098C7.875 10.0365 7.03554 10.876 6 10.876C4.96447 10.876 4.125 10.0365 4.125 9.00098ZM6 7.87598C5.37868 7.87598 4.875 8.37966 4.875 9.00098C4.875 9.6223 5.37868 10.126 6 10.126C6.62132 10.126 7.125 9.6223 7.125 9.00098C7.125 8.37966 6.62132 7.87598 6 7.87598Z" fill="url(#paint0_linear_1613_652)"/>
<defs>
<linearGradient id="paint0_linear_1613_652" x1="-1.35424" y1="3.12927" x2="13.706" y2="5.10219" gradientUnits="userSpaceOnUse">
<stop stop-color="#7DC9FF"/>
<stop offset="1" stop-color="#0285CE"/>
</linearGradient>
</defs>
</svg>
