<svg width="12" height="10" viewBox="0 0 12 10" xmlns="http://www.w3.org/2000/svg">
    <path fill-rule="evenodd" clip-rule="evenodd"
          d="M3.17587 1.79883C3.96162 1.15547 4.92952 0.625977 6 0.625977C7.07048 0.625977 8.03838 1.15547 8.82414 1.79883C9.61419 2.44571 10.2602 3.2403 10.6943 3.84498C10.7063 3.86173 10.7183 3.87832 10.7301 3.89477C10.9914 4.25789 11.2065 4.5568 11.2065 5.00098C11.2065 5.44515 10.9914 5.74406 10.7301 6.10718C10.7183 6.12364 10.7063 6.14023 10.6943 6.15697C10.2602 6.76165 9.61419 7.55624 8.82414 8.20312C8.03838 8.84648 7.07048 9.37598 6 9.37598C4.92952 9.37598 3.96162 8.84648 3.17587 8.20312C2.38582 7.55624 1.73981 6.76165 1.30571 6.15697C1.29369 6.14023 1.28175 6.12364 1.26991 6.10718C1.00858 5.74406 0.793457 5.44515 0.793457 5.00098C0.793457 4.5568 1.00858 4.25789 1.26991 3.89477C1.28175 3.87831 1.29369 3.86172 1.30571 3.84498C1.73981 3.2403 2.38582 2.44571 3.17587 1.79883ZM3.651 2.37913C2.93174 2.96805 2.3296 3.7048 1.91497 4.28237C1.60298 4.71694 1.54346 4.82171 1.54346 5.00098C1.54346 5.18024 1.60298 5.28501 1.91497 5.71958C2.3296 6.29715 2.93174 7.03391 3.651 7.62282C4.37455 8.21525 5.17712 8.62598 6 8.62598C6.82289 8.62598 7.62545 8.21525 8.349 7.62282C9.06826 7.03391 9.67041 6.29715 10.085 5.71958C10.397 5.28501 10.4565 5.18024 10.4565 5.00098C10.4565 4.82171 10.397 4.71695 10.085 4.28237C9.67041 3.7048 9.06826 2.96805 8.349 2.37913C7.62545 1.78671 6.82289 1.37598 6 1.37598C5.17712 1.37598 4.37455 1.78671 3.651 2.37913ZM4.125 5.00098C4.125 3.96544 4.96447 3.12598 6 3.12598C7.03554 3.12598 7.875 3.96544 7.875 5.00098C7.875 6.03651 7.03554 6.87598 6 6.87598C4.96447 6.87598 4.125 6.03651 4.125 5.00098ZM6 3.87598C5.37868 3.87598 4.875 4.37966 4.875 5.00098C4.875 5.6223 5.37868 6.12598 6 6.12598C6.62132 6.12598 7.125 5.6223 7.125 5.00098C7.125 4.37966 6.62132 3.87598 6 3.87598Z"/>
</svg>
