<svg width="20" height="20" viewBox="0 0 20 20" xmlns="http://www.w3.org/2000/svg">
<path fill-rule="evenodd" clip-rule="evenodd" d="M10.0013 2.2915C5.74411 2.2915 2.29297 5.74264 2.29297 9.99984C2.29297 14.257 5.74411 17.7082 10.0013 17.7082C14.2585 17.7082 17.7096 14.257 17.7096 9.99984C17.7096 5.74264 14.2585 2.2915 10.0013 2.2915ZM1.04297 9.99984C1.04297 5.05229 5.05375 1.0415 10.0013 1.0415C14.9489 1.0415 18.9596 5.05229 18.9596 9.99984C18.9596 14.9474 14.9489 18.9582 10.0013 18.9582C5.05375 18.9582 1.04297 14.9474 1.04297 9.99984ZM11.3001 6.38432C10.4901 5.30436 8.80054 5.57854 8.37365 6.85921L8.09423 7.69748C7.98507 8.02494 7.63112 8.20192 7.30366 8.09276C6.9762 7.98361 6.79922 7.62966 6.90838 7.3022L7.1878 6.46393C7.93355 4.22667 10.8851 3.7477 12.3001 5.63432C13.1289 6.73946 13.0711 8.27394 12.1614 9.31356L11.3954 10.189C10.8996 10.7557 10.6263 11.483 10.6263 12.236V12.4998C10.6263 12.845 10.3465 13.1248 10.0013 13.1248C9.65613 13.1248 9.3763 12.845 9.3763 12.4998V12.236C9.3763 11.1803 9.7595 10.1604 10.4547 9.36587L11.2207 8.49043C11.7414 7.89532 11.7745 7.01694 11.3001 6.38432Z" />
<path d="M10.8346 14.9998C10.8346 15.4601 10.4615 15.8332 10.0013 15.8332C9.54106 15.8332 9.16797 15.4601 9.16797 14.9998C9.16797 14.5396 9.54106 14.1665 10.0013 14.1665C10.4615 14.1665 10.8346 14.5396 10.8346 14.9998Z" />
</svg>
