<svg width="16" height="16" viewBox="0 0 16 16" fill="none" xmlns="http://www.w3.org/2000/svg">
<path fill-rule="evenodd" clip-rule="evenodd" d="M4.63676 1.5C4.64667 1.5 4.65662 1.5 4.66659 1.5H11.4652C12.4049 1.5 13.1666 2.26174 13.1666 3.20138C13.1666 3.76164 12.8908 4.28598 12.4291 4.60338L12.2416 4.73228C11.5862 5.18284 11.5862 6.1505 12.2416 6.60106L12.4291 6.72996C12.8908 7.04736 13.1666 7.57171 13.1666 8.13196C13.1666 9.07161 12.4049 9.83334 11.4652 9.83334H3.83326L3.83326 14C3.83326 14.2761 3.6094 14.5 3.33326 14.5C3.05711 14.5 2.83326 14.2761 2.83326 14L2.83326 3.33334C2.83326 3.32337 2.83326 3.31342 2.83325 3.30351C2.83322 3.01496 2.83319 2.75041 2.86212 2.5352C2.89399 2.29821 2.96895 2.04773 3.17497 1.84171C3.38098 1.6357 3.63146 1.56073 3.86845 1.52887C4.08366 1.49994 4.34821 1.49997 4.63676 1.5ZM3.83326 8.83334H11.4652C11.8526 8.83334 12.1666 8.51932 12.1666 8.13196C12.1666 7.901 12.0529 7.68485 11.8626 7.554L11.6751 7.4251C10.4418 6.5772 10.4418 4.75615 11.6751 3.90824L11.8626 3.77934C12.0529 3.64849 12.1666 3.43234 12.1666 3.20138C12.1666 2.81402 11.8526 2.5 11.4652 2.5H4.66659C4.33819 2.5 4.14218 2.50107 4.0017 2.51995C3.93733 2.52861 3.90509 2.5388 3.89057 2.54478C3.8872 2.54616 3.88499 2.54724 3.8837 2.54791L3.88208 2.54883L3.88116 2.55045C3.88049 2.55174 3.87941 2.55395 3.87803 2.55731C3.87206 2.57183 3.86186 2.60408 3.85321 2.66845C3.83432 2.80893 3.83326 3.00493 3.83326 3.33334L3.83326 8.83334Z" fill="white"/>
</svg>
