<svg width="60" height="42" viewBox="0 0 60 42" fill="none" xmlns="http://www.w3.org/2000/svg">
<rect width="60" height="42" rx="6" fill="white"/>
<path fill-rule="evenodd" clip-rule="evenodd" d="M28.3375 27.5766V22.2899H31.0104C32.1057 22.2899 33.0301 21.9152 33.7837 21.1764L33.9646 20.989C35.3412 19.4592 35.2508 17.0761 33.7837 15.6607C33.0502 14.9115 32.0454 14.5056 31.0104 14.5264H26.7197V27.5766H28.3375ZM28.3377 20.6872V16.129H31.0512C31.6341 16.129 32.1869 16.358 32.5989 16.7742C33.4732 17.6484 33.4933 19.1054 32.6491 20.0108C32.2371 20.4583 31.6542 20.708 31.0512 20.6872H28.3377ZM41.511 19.3448C40.8176 18.6891 39.8731 18.3561 38.6773 18.3561C37.1399 18.3561 35.9844 18.9389 35.2207 20.0941L36.6476 21.0203C37.1701 20.2294 37.8835 19.8339 38.7879 19.8339C39.3606 19.8339 39.9133 20.0524 40.3454 20.4479C40.7674 20.8225 41.0086 21.3637 41.0086 21.9361V22.3211C40.3856 21.9673 39.6018 21.78 38.6371 21.78C37.5117 21.78 36.6074 22.0505 35.9341 22.6021C35.2609 23.1537 34.9192 23.8821 34.9192 24.8084C34.8991 25.6513 35.2508 26.4526 35.8738 26.9938C36.5069 27.5766 37.3108 27.868 38.2553 27.868C39.3707 27.868 40.2549 27.358 40.9282 26.3382H40.9985V27.5766H42.546V22.0714C42.546 20.9162 42.2043 20.0004 41.511 19.3448ZM37.1201 25.9323C36.7885 25.6825 36.5875 25.2767 36.5875 24.8396C36.5875 24.3504 36.8086 23.9446 37.2407 23.622C37.6829 23.2994 38.2357 23.1328 38.8889 23.1328C39.7934 23.1224 40.4969 23.3306 40.9994 23.7469C40.9994 24.4545 40.7281 25.0685 40.1954 25.5889C39.713 26.0884 39.0598 26.3694 38.3764 26.3694C37.9241 26.3798 37.4819 26.2237 37.1201 25.9323ZM46.0227 31.5L51.4288 18.6475H49.6703L47.1683 25.0581H47.1381L44.5758 18.6475H42.8173L46.3644 27.0042L44.3547 31.5H46.0227Z" fill="#3C4043"/>
<path d="M22.7523 21.1452C22.7523 20.6353 22.7121 20.1253 22.6317 19.6258H15.8088V22.5085H19.7177C19.5569 23.4347 19.0344 24.2672 18.2707 24.7876V26.6608H20.6019C21.9685 25.36 22.7523 23.4347 22.7523 21.1452Z" fill="#4285F4"/>
<path d="M15.8093 28.4716C17.7586 28.4716 19.4066 27.8055 20.6023 26.6608L18.2711 24.7876C17.618 25.2455 16.7839 25.5056 15.8093 25.5056C13.9202 25.5056 12.3225 24.184 11.7497 22.4148H9.34814V24.3505C10.574 26.8793 13.0761 28.4716 15.8093 28.4716Z" fill="#34A853"/>
<path d="M11.7498 22.4148C11.4483 21.4886 11.4483 20.4791 11.7498 19.5425V17.6172H9.34789C8.31275 19.7298 8.31275 22.2275 9.34789 24.3401L11.7498 22.4148Z" fill="#FBBC04"/>
<path d="M15.8093 16.4517C16.8442 16.4309 17.839 16.8367 18.5826 17.5756L20.6526 15.4318C19.3362 14.1622 17.6079 13.4649 15.8093 13.4857C13.0761 13.4857 10.574 15.0884 9.34814 17.6173L11.7497 19.5529C12.3225 17.7734 13.9202 16.4517 15.8093 16.4517Z" fill="#EA4335"/>
</svg>
