<svg width="52" height="55" viewBox="0 0 52 55" fill="none" xmlns="http://www.w3.org/2000/svg">
<path fill-rule="evenodd" clip-rule="evenodd" d="M24.1291 47.6128C20.0582 47.5648 15.9505 48.091 11.9735 48.6303C11.1177 48.7493 10.5026 49.5298 10.6603 50.355C10.759 51.1966 11.5494 51.7787 12.3461 51.6755C16.1998 51.1495 20.1804 50.6251 24.0633 50.681C24.8918 50.6968 25.598 50.018 25.6242 49.169C25.6504 48.3205 24.9578 47.6292 24.1291 47.6128Z" fill="white"/>
<path fill-rule="evenodd" clip-rule="evenodd" d="M31.5693 29.4702C23.8096 24.8846 15.4953 21.3055 7.80922 16.5214C7.11699 16.0677 6.16187 16.2894 5.71944 17.0046C5.27716 17.7204 5.46933 18.6733 6.22071 19.1111C13.9117 23.9136 22.2308 27.5104 29.9954 32.1143C30.7429 32.5379 31.6915 32.2927 32.1296 31.5615C32.5088 30.8467 32.3169 29.8938 31.5693 29.4702Z" fill="white"/>
<path fill-rule="evenodd" clip-rule="evenodd" d="M36.5798 2.4957C37.7109 6.00721 38.8417 9.51882 39.973 13.0309C40.1914 13.8462 41.0703 14.2853 41.888 14.0237C42.7054 13.7616 43.1107 12.9092 42.8921 12.0934C41.7594 8.57597 40.6272 5.05903 39.4947 1.54218C39.2171 0.742807 38.3395 0.307738 37.5231 0.574035C36.7659 0.82448 36.3023 1.69691 36.5798 2.4957Z" fill="white"/>
</svg>
