<svg width="22" height="22" viewBox="0 0 22 22" xmlns="http://www.w3.org/2000/svg">
<g>
<path d="M14.5572 6.338C13.7489 5.52968 12.4337 5.52968 11.6254 6.33799C10.8171 7.14631 10.8171 8.46153 11.6254 9.26984C12.4337 10.0782 13.7489 10.0782 14.5572 9.26985C15.3655 8.46153 15.3656 7.14635 14.5572 6.338ZM12.3152 8.57998C11.8873 8.15207 11.8873 7.45577 12.3152 7.02785C12.7432 6.59994 13.4395 6.59994 13.8674 7.02786C14.2953 7.45577 14.2953 8.15207 13.8674 8.57999C13.4395 9.0079 12.7432 9.0079 12.3152 8.57998Z"/>
<path fill-rule="evenodd" clip-rule="evenodd" d="M14.3535 15.3492C14.5772 14.2889 14.3688 13.4903 14.2248 13.1085C15.2697 12.346 16.2192 11.4912 16.8516 10.5833C19.1489 7.28514 18.4059 3.18048 18.3732 3.00735C18.3265 2.76099 18.1338 2.56822 17.8874 2.52156C17.7143 2.48882 13.6096 1.74591 10.3116 4.0432C9.39241 4.68347 8.52776 5.64875 7.75809 6.70892C7.34531 6.57024 6.59348 6.41238 5.62172 6.61731C3.79517 7.00261 2.10211 8.45363 0.589664 10.9301C0.484949 11.1015 0.471391 11.3135 0.553318 11.4968C0.584125 11.5657 0.626911 11.6272 0.678796 11.679C0.76509 11.7653 0.876517 11.825 0.999832 11.8477L4.55087 12.4999C4.46692 12.6956 4.41652 12.8195 4.40333 12.8522C4.31181 13.079 4.36473 13.3386 4.53763 13.5115L5.5293 14.5032L6.39161 15.3655L7.38328 16.3571C7.55618 16.53 7.81574 16.583 8.04255 16.4914C8.07836 16.477 8.22366 16.4178 8.45245 16.3191L9.12322 19.971C9.14592 20.0944 9.20559 20.2058 9.29184 20.2921C9.34373 20.344 9.40525 20.3868 9.47407 20.4176C9.65742 20.4995 9.86933 20.4859 10.0408 20.3812C12.5172 18.8688 13.9682 17.1758 14.3535 15.3492ZM17.2063 6.13161C17.3355 5.07459 17.2839 4.16877 17.2316 3.66316C16.7262 3.61087 15.8204 3.55926 14.7632 3.68843L17.2063 6.13161ZM7.03107 7.77742C6.15646 7.6201 4.24866 7.74301 2.11936 10.8134L5.069 11.3552C5.52894 10.385 6.20488 9.06814 7.03107 7.77742ZM7.25392 14.5032L7.95486 15.2041C9.32044 14.6108 14.0955 12.4063 15.8509 9.88618C16.4267 9.05958 16.7804 8.16047 16.9932 7.29807L13.5967 3.90155C12.7343 4.11432 11.8352 4.46805 11.0085 5.04383C8.48547 6.80124 6.2832 11.5747 5.69049 12.9397L6.39161 13.6408L7.25392 14.5032ZM9.59675 15.7987L10.1575 18.8516C13.3645 16.6275 13.356 14.6451 13.1711 13.8292C11.8886 14.6548 10.5748 15.333 9.59675 15.7987Z"/>
</g>
<defs>
</defs>
</svg>
