<svg width="22" height="22" viewBox="0 0 22 22" fill="none" xmlns="http://www.w3.org/2000/svg">
<path fill-rule="evenodd" clip-rule="evenodd" d="M11.3889 4.09071C8.47739 4.09071 6.11713 6.45097 6.11713 9.36249C6.11713 10.2029 6.3134 10.996 6.66212 11.6997C7.37812 13.1447 8.73695 14.2138 10.3622 14.5345C10.6939 14.5999 11.0371 14.6343 11.3889 14.6343C11.6898 14.6343 11.9844 14.6091 12.2708 14.5609C13.9302 14.2817 15.3285 13.2256 16.0762 11.7779C16.4496 11.0548 16.6607 10.2341 16.6607 9.36249C16.6607 6.45097 14.3004 4.09071 11.3889 4.09071ZM5.02642 9.36249C5.02642 5.84858 7.875 3 11.3889 3C14.9028 3 17.7514 5.84858 17.7514 9.36249C17.7514 10.2807 17.5566 11.1546 17.2057 11.9441C17.3707 12.1691 17.5319 12.4487 17.731 12.7937C17.7459 12.8195 17.761 12.8457 17.7763 12.8723L19.0724 15.1172C19.2363 15.401 19.3879 15.6635 19.4753 15.8808C19.5609 16.0936 19.6687 16.4627 19.4305 16.8043C19.1892 17.1502 18.8019 17.1707 18.5724 17.1593C18.34 17.1477 18.0446 17.0896 17.7272 17.0271L17.1518 16.9139C16.8329 16.8512 16.6436 16.815 16.5032 16.8054C16.4391 16.8009 16.4047 16.8039 16.3877 16.8068C16.3799 16.8081 16.3763 16.8093 16.3753 16.8096C16.3745 16.8099 16.3741 16.8101 16.3732 16.8106C16.3728 16.8109 16.3725 16.811 16.3722 16.8112C16.3719 16.8115 16.3716 16.8117 16.3713 16.812C16.3705 16.8126 16.3676 16.8152 16.3626 16.8212C16.3517 16.8345 16.3319 16.8628 16.3036 16.9206C16.2418 17.047 16.1785 17.229 16.0734 17.5366L15.8837 18.0914C15.7791 18.3975 15.6818 18.6824 15.5756 18.8895C15.4707 19.094 15.2593 19.4191 14.8391 19.4551C14.4241 19.4906 14.1584 19.2127 14.0169 19.0322C13.8724 18.8478 13.7209 18.5853 13.557 18.3014L12.2559 16.0478C12.1813 15.9186 12.1129 15.8001 12.051 15.6909C11.8332 15.7134 11.6123 15.725 11.3889 15.725C11.1003 15.725 10.816 15.7057 10.5372 15.6684C10.4719 15.7839 10.3992 15.9099 10.3194 16.0481L9.01843 18.3014C8.85456 18.5853 8.70304 18.8478 8.55856 19.0322C8.41704 19.2127 8.15133 19.4906 7.73637 19.4551C7.31615 19.4191 7.10474 19.094 6.99986 18.8895C6.89366 18.6824 6.79631 18.3975 6.69172 18.0914L6.50208 17.5366C6.39692 17.229 6.33364 17.047 6.2718 16.9206C6.24355 16.8628 6.22377 16.8345 6.21283 16.8212C6.2078 16.8152 6.20492 16.8126 6.20417 16.812C6.20353 16.8114 6.20317 16.8111 6.20224 16.8106C6.20131 16.8101 6.20089 16.8099 6.2001 16.8096C6.19917 16.8093 6.19551 16.8081 6.18773 16.8068C6.17079 16.8039 6.13635 16.8009 6.07222 16.8054C5.93181 16.815 5.74256 16.8512 5.42359 16.9139L4.84823 17.0271C4.53088 17.0896 4.23546 17.1477 4.00307 17.1593C3.77354 17.1707 3.38625 17.1502 3.14497 16.8043C2.90672 16.4627 3.01453 16.0936 3.10014 15.8808C3.18754 15.6635 3.33914 15.401 3.50309 15.1171L4.79915 12.8723C4.80982 12.8538 4.82038 12.8355 4.83083 12.8174C5.09419 12.3611 5.28981 12.0221 5.50097 11.7776C5.19499 11.0324 5.02642 10.2166 5.02642 9.36249ZM6.07203 12.8582C5.98637 12.9984 5.88161 13.1788 5.74374 13.4176L4.46647 15.6299C4.37133 15.7947 4.29612 15.9257 4.23789 16.0324C4.35377 16.0124 4.49647 15.9847 4.67525 15.9495L5.24241 15.838C5.52216 15.7829 5.77998 15.7322 5.99739 15.7172C6.23742 15.7007 6.49676 15.7212 6.7476 15.866C6.99843 16.0108 7.14585 16.2252 7.25157 16.4413C7.34733 16.6371 7.4323 16.8857 7.5245 17.1555L7.71146 17.7025C7.7704 17.8749 7.81773 18.0123 7.85832 18.1227C7.92168 18.0189 7.99748 17.8883 8.09263 17.7235L9.36989 15.5112C9.38882 15.4784 9.40714 15.4467 9.42488 15.4159C8.03673 14.9659 6.85856 14.0522 6.07203 12.8582ZM13.1812 15.4689C13.1892 15.4828 13.1973 15.4969 13.2055 15.5112L14.4828 17.7235C14.578 17.8883 14.6538 18.0189 14.7171 18.1227C14.7577 18.0123 14.805 17.8749 14.864 17.7025L15.0509 17.1555C15.1431 16.8857 15.2281 16.6371 15.3239 16.4413C15.4296 16.2252 15.577 16.0108 15.8278 15.866C16.0787 15.7212 16.338 15.7007 16.578 15.7172C16.7955 15.7322 17.0533 15.7829 17.3331 15.838L17.9002 15.9495C18.079 15.9847 18.2217 16.0124 18.3375 16.0324C18.2793 15.9257 18.2041 15.7947 18.109 15.6299L16.8317 13.4176C16.7407 13.2601 16.6641 13.1281 16.5981 13.0165C15.78 14.1808 14.5811 15.0587 13.1812 15.4689Z" fill="white"/>
</svg>
