<svg width="30" height="30" viewBox="0 0 30 30" fill="none" xmlns="http://www.w3.org/2000/svg">
<path fill-rule="evenodd" clip-rule="evenodd" d="M18.0887 6.18648H17.3145V6.02636C17.5323 6.02636 17.6533 5.973 17.5565 5.7862C17.4113 5.466 18.0403 5.49268 18.1371 5.54604C18.2823 5.67943 18.1855 6.02636 18.0887 6.18648ZM17.0242 6.39997H17.9678C17.871 6.58677 17.5807 7.1738 17.3871 7.1738C17.2904 7.04041 17.0484 6.6668 17.0242 6.39997ZM20.0726 5.14576C20.0242 5.17244 19.9758 5.19912 19.9274 5.19912C19.6371 5.65275 19.8065 5.59939 19.2742 5.99968C19.2742 6.77352 19.2984 6.85361 19.4677 7.54741C19.4677 7.57409 19.4677 7.57409 19.4677 7.60077C19.4677 7.62745 19.4436 7.62745 19.4436 7.62745C19.3226 7.65413 19.1291 7.70754 19.0323 7.73421C19.0323 7.76089 19.0807 8.18786 19.0323 8.53473C18.9355 9.04179 17.8226 10.1626 17.5806 10.2426C17.2178 10.3227 16.8065 9.97575 16.1532 9.6555C15.9839 9.57547 15.3791 9.1485 15.0645 9.01511C14.7984 8.90834 14.5564 9.60214 14.871 9.78895C15.0162 9.86898 15.2581 10.0024 15.3307 10.2159C15.5484 10.8564 15.3065 13.3114 14.8468 13.7917C14.629 13.7917 14.4355 13.5782 14.2903 13.6316C14 13.8184 14.1935 14.7791 14.2903 14.9391C16.0565 16.9405 15.8629 18.4349 16.6129 19.5557C16.9516 19.5557 16.7339 19.9559 17 20.4363C17.0726 20.6764 16.9758 21.0767 16.9516 21.2368C16.9516 21.4503 16.9516 21.6371 16.9516 21.8506C16.9274 21.904 16.9032 21.984 16.9032 22.0374C16.9032 22.2242 16.9032 22.3843 16.9032 22.5711C16.8549 22.8379 16.7823 23.1849 16.7339 23.425C16.6371 23.932 17.0242 24.3323 16.7823 24.8126C16.7823 25.1061 16.7823 25.0528 16.6129 25.2929C16.6129 25.7466 16.5161 26.734 16.6129 27.0808C16.6855 27.321 17.4597 28.3351 17.6774 28.4418C18.1613 28.682 18.8629 28.6286 18.621 29.4558C17.2178 29.9361 16.3468 29.189 15.5968 29.189L15.5726 29.3224C15.0887 29.3224 14.7258 29.189 14.6048 29.1623C14.6048 29.0289 14.75 27.9348 14.8226 27.748C14.871 27.6679 14.9194 27.5612 14.9919 27.4811C15.0403 27.2943 14.9436 25.9334 14.9194 25.5598C14.629 25.3196 14.5564 24.5725 14.5564 24.1722C14.4597 23.852 14.4597 23.4784 14.4597 23.0781C14.4597 22.8913 14.3387 22.5978 14.4113 22.3576C14.4597 22.1975 14.629 22.1174 14.6533 21.984C14.6533 21.8239 14.6533 21.6905 14.6533 21.5304C14.7258 21.05 14.7016 20.8366 14.4355 20.543C13.7823 20.543 13.6855 20.5964 13.3468 19.9826C13.2258 19.7958 12.3307 18.1947 12.2339 18.1681C11.4839 17.7944 11.6291 17.9546 11.2903 17.2874C11.2662 17.2874 11.0726 17.3675 10.9033 17.6611C10.6371 18.1147 10.1532 19.5557 10.0081 20.0627C9.93552 20.3562 10.0081 20.6497 9.88712 20.8899C9.81454 21.05 9.52421 21.1034 9.47581 21.2368C9.20971 21.7705 9.40323 21.7172 8.89516 22.0908C8.7984 22.2242 8.7984 22.411 8.72582 22.5711C8.67742 22.6244 8.65324 22.6778 8.60484 22.7579C8.50808 22.9714 8.70164 23.3182 8.65324 23.4517C8.55648 23.7719 8.45967 24.1188 8.33874 24.4123C8.09677 25.0261 8.14517 25.8267 7.90325 26.2002C7.78227 26.387 7.49194 26.2002 7.2742 26.3604C7.25002 26.4938 6.91129 27.3477 6.83871 27.5879C6.83871 28.0415 6.83871 28.4952 6.83871 28.9755C6.91129 29.2157 7.08068 29.4291 7.03227 29.7227C6.98387 30.0429 5.99196 30.0429 5.45971 29.9361C5.09681 29.8828 5 29.5893 5 29.2423C5 28.8421 5.72581 26.2536 5.70164 26.0935C5.14516 25.3997 5.8468 24.7059 6.06454 24.0655C6.1613 23.7452 6.11294 23.3182 6.2097 23.0247C6.40322 22.6244 6.59679 22.2509 6.79035 21.8506C7.15326 21.477 6.98387 21.4503 7.17744 21.1301C7.34678 20.8366 7.54034 20.6497 7.41936 20.1961C7.17744 19.3155 7.68551 18.0613 7.73391 17.1273C7.6371 17.0206 7.34678 17.0473 7.29842 16.7804C7.22584 16.1934 7.49194 15.1794 7.66133 15.0993C7.73391 15.0459 7.83067 15.0993 7.87907 15.0459C7.87907 14.6189 7.49194 12.2173 7.78226 12.0838C7.97583 12.0038 8.38709 11.9771 8.45967 11.9238C8.45967 11.817 8.38709 11.6035 8.31451 11.6035C8.19358 11.5768 7.92743 11.5235 7.70968 11.4701C7.05645 11.31 7.66133 8.48138 7.66133 8.4547C7.83067 8.18786 8.67742 8.53473 8.77422 8.10777C9.04032 7.70754 8.55648 6.21316 9.50004 4.3452C9.81454 3.73145 10.4435 3.09101 11.1452 3.35786C11.3871 3.43791 11.2419 3.83818 11.6532 3.41123C11.6532 3.17106 11.5565 2.98427 11.5081 2.77078C10.8065 0.475872 13.1775 -0.778328 14.8468 0.529242C15.0403 0.609295 15.1371 0.662669 15.2823 0.769404C15.3791 1.30311 15.8387 2.2104 15.3791 2.82416C15.1855 2.87753 14.9436 2.98427 14.7984 3.09101C14.7984 3.30448 14.8226 3.49128 14.8468 3.62471C14.871 3.73145 14.9436 3.78482 14.7742 3.86487C14.75 3.86487 14.7742 3.94493 14.7742 3.97162C15.1613 4.05167 15.5726 3.89156 15.8387 3.78482H16.1532V3.35786H16.2984V3.01095H16.4436V3.59802H16.8306V3.78482H22.5645V4.10504H22.8065V2.90421H23.0242V3.89156H23.5081V4.45194H25.0323V4.29183H25.2742V4.37189H26V4.82553H25.2742V4.90559H25.0323V4.74548H23.5081V4.90559C23.2903 4.90559 23.0726 4.90559 22.8307 4.90559V4.79885H22.5403V5.14576H20.0726Z" fill="white"/>
</svg>
