<svg width="257" height="106" viewBox="0 0 257 106" fill="none" xmlns="http://www.w3.org/2000/svg">
<path fill-rule="evenodd" clip-rule="evenodd" d="M31.3082 40.9375C31.3082 40.9375 31.7895 40.8848 32.036 40.6238C32.2616 40.3846 32.2538 39.9332 32.2538 39.9332C32.2538 39.9332 32.2238 37.8255 33.2164 37.5143C34.1946 37.2082 35.4506 39.5525 36.7835 40.454C37.7904 41.1356 38.5547 40.9864 38.5547 40.9864L42.1167 40.9375C42.1167 40.9375 43.9792 40.8244 43.0962 39.3802C43.0231 39.2619 42.581 38.3116 40.4485 36.3594C38.2143 34.316 38.5143 34.6465 41.2037 31.1114C42.8419 28.9586 43.4966 27.6444 43.2918 27.0824C43.0975 26.5448 41.8923 26.6876 41.8923 26.6876L37.883 26.712C37.883 26.712 37.5857 26.6722 37.3652 26.802C37.15 26.9294 37.0105 27.2264 37.0105 27.2264C37.0105 27.2264 36.3766 28.8918 35.5301 30.3089C33.7446 33.2975 33.0312 33.4557 32.739 33.2705C32.0595 32.8371 32.229 31.5319 32.229 30.6047C32.229 27.7074 32.6751 26.4998 31.3617 26.1873C30.9261 26.0832 30.6052 26.015 29.4901 26.0034C28.0593 25.9893 26.8489 26.0086 26.1629 26.3391C25.7064 26.559 25.3542 27.0502 25.5694 27.0785C25.8342 27.1132 26.4342 27.238 26.7524 27.6649C27.1633 28.2166 27.1489 29.4537 27.1489 29.4537C27.1489 29.4537 27.385 32.8642 26.5972 33.2872C26.0572 33.5779 25.3164 32.985 23.7239 30.2729C22.9087 28.884 22.2931 27.3486 22.2931 27.3486C22.2931 27.3486 22.1744 27.0618 21.9618 26.9075C21.7049 26.721 21.3462 26.6632 21.3462 26.6632L17.5365 26.6876C17.5365 26.6876 16.9639 26.703 16.7539 26.9486C16.5674 27.166 16.7396 27.6174 16.7396 27.6174C16.7396 27.6174 19.7224 34.4986 23.1005 37.9669C26.1981 41.1459 29.7144 40.9375 29.7144 40.9375H31.3082Z" fill="white"/>
<circle cx="30" cy="31" r="29.5" stroke="white" stroke-opacity="0.2"/>
<path fill-rule="evenodd" clip-rule="evenodd" d="M204.001 34.1523C198.884 34.1523 198.241 34.1747 196.231 34.2662C194.225 34.3581 192.856 34.6757 191.657 35.1417C190.418 35.623 189.367 36.2669 188.319 37.3147C187.271 38.3622 186.627 39.4135 186.144 40.6526C185.677 41.8512 185.359 43.2209 185.269 45.2263C185.179 47.2364 185.155 47.8791 185.155 52.997C185.155 58.1149 185.178 58.7552 185.269 60.7653C185.361 62.7715 185.679 64.1408 186.145 65.339C186.626 66.5785 187.27 67.6298 188.318 68.6773C189.365 69.7255 190.416 70.371 191.655 70.8523C192.854 71.3183 194.224 71.6359 196.23 71.7278C198.24 71.8192 198.882 71.8416 203.999 71.8416C209.117 71.8416 209.758 71.8192 211.768 71.7278C213.774 71.6359 215.145 71.3183 216.344 70.8523C217.583 70.371 218.633 69.7255 219.68 68.6773C220.728 67.6298 221.372 66.5785 221.855 65.3394C222.318 64.1408 222.636 62.7711 222.73 60.7657C222.821 58.7556 222.844 58.1149 222.844 52.997C222.844 47.8791 222.821 47.2368 222.73 45.2267C222.636 43.2205 222.318 41.8512 221.855 40.653C221.372 39.4135 220.728 38.3622 219.68 37.3147C218.632 36.2665 217.583 35.6226 216.343 35.1417C215.141 34.6757 213.771 34.3581 211.765 34.2662C209.755 34.1747 209.115 34.1523 203.996 34.1523H204.001ZM204.001 37.5483C203.373 37.5483 202.813 37.5475 202.311 37.5483V37.5436C198.799 37.5475 198.125 37.5711 196.387 37.6496C194.549 37.734 193.552 38.0402 192.887 38.2993C192.008 38.6417 191.38 39.05 190.72 39.7096C190.061 40.3691 189.652 40.9973 189.31 41.8767C189.052 42.541 188.745 43.5382 188.661 45.3755C188.571 47.362 188.553 47.9556 188.553 52.988C188.553 58.0203 188.571 58.617 188.661 60.6035C188.745 62.4409 189.052 63.4381 189.31 64.1016C189.652 64.9814 190.061 65.608 190.72 66.2675C191.38 66.9271 192.008 67.3354 192.887 67.677C193.552 67.9349 194.549 68.2419 196.387 68.3267C198.373 68.417 198.97 68.4366 204.001 68.4366C209.033 68.4366 209.63 68.417 211.616 68.3267C213.454 68.2427 214.452 67.9365 215.115 67.6773C215.995 67.3358 216.621 66.9275 217.281 66.2679C217.94 65.6088 218.349 64.9826 218.691 64.1032C218.949 63.4397 219.256 62.4425 219.34 60.6051C219.43 58.6186 219.45 58.0218 219.45 52.9927C219.45 47.9635 219.43 47.3668 219.34 45.3802C219.256 43.5429 218.949 42.5457 218.691 41.8822C218.349 41.0028 217.94 40.3746 217.281 39.715C216.622 39.0555 215.995 38.6472 215.115 38.3056C214.451 38.0477 213.454 37.7407 211.616 37.6567C209.629 37.5664 209.033 37.5483 204.001 37.5483Z" fill="white"/>
<path d="M204.001 46.7154C207.47 46.7154 210.283 49.5276 210.283 52.997C210.283 56.466 207.47 59.2785 204.001 59.2785C200.532 59.2785 197.72 56.466 197.72 52.997C197.72 49.5276 200.532 46.7154 204.001 46.7154Z" fill="white"/>
<path fill-rule="evenodd" clip-rule="evenodd" d="M202.311 37.5483C202.813 37.5475 203.373 37.5483 204.001 37.5483C209.033 37.5483 209.629 37.5664 211.616 37.6567C213.454 37.7407 214.451 38.0477 215.115 38.3056C215.995 38.6472 216.622 39.0555 217.281 39.715C217.94 40.3746 218.349 41.0028 218.691 41.8822C218.949 42.5457 219.256 43.5429 219.34 45.3802C219.43 47.3668 219.45 47.9635 219.45 52.9927C219.45 58.0218 219.43 58.6186 219.34 60.6051C219.256 62.4425 218.949 63.4397 218.691 64.1032C218.349 64.9826 217.94 65.6088 217.281 66.2679C216.621 66.9275 215.995 67.3358 215.115 67.6773C214.452 67.9365 213.454 68.2427 211.616 68.3267C209.63 68.417 209.033 68.4366 204.001 68.4366C198.97 68.4366 198.373 68.417 196.387 68.3267C194.549 68.2419 193.552 67.9349 192.887 67.677C192.008 67.3354 191.38 66.9271 190.72 66.2675C190.061 65.608 189.652 64.9814 189.31 64.1016C189.052 63.4381 188.745 62.4409 188.661 60.6035C188.571 58.617 188.553 58.0203 188.553 52.988C188.553 47.9556 188.571 47.362 188.661 45.3755C188.745 43.5382 189.052 42.541 189.31 41.8767C189.652 40.9973 190.061 40.3691 190.72 39.7096C191.38 39.05 192.008 38.6417 192.887 38.2993C193.552 38.0402 194.549 37.734 196.387 37.6496C198.125 37.5711 198.799 37.5475 202.311 37.5436V37.5483ZM211.799 42.9379C211.799 41.689 212.812 40.6773 214.061 40.6773C215.309 40.6773 216.322 41.6894 216.322 42.9379C216.322 44.1863 215.309 45.1992 214.061 45.1992C212.812 45.1992 211.799 44.1863 211.799 42.9379ZM194.324 52.997C194.324 47.6526 198.657 43.3195 204.001 43.3195C209.346 43.3195 213.677 47.6526 213.677 52.997C213.677 58.3414 209.346 62.6725 204.001 62.6725C198.657 62.6725 194.324 58.3414 194.324 52.997Z" fill="white"/>
<circle cx="204" cy="53" r="52.1167" stroke="white" stroke-opacity="0.2" stroke-width="1.76667"/>
<path d="M97 43H113M105 51V43L105 35" stroke="#FAFAFA" stroke-width="1.5" stroke-linecap="round"/>
</svg>
