<svg width="34" height="34" viewBox="0 0 34 34" xmlns="http://www.w3.org/2000/svg">
    <path fill-rule="evenodd" clip-rule="evenodd"
          d="M17 8.19922C14.6101 8.19922 14.3101 8.20967 13.3715 8.25239C12.4346 8.29529 11.7952 8.4436 11.2356 8.66122C10.6568 8.88599 10.1659 9.18666 9.67672 9.67598C9.18721 10.1651 8.88654 10.6561 8.66104 11.2347C8.44287 11.7944 8.29437 12.4341 8.2522 13.3706C8.21022 14.3092 8.19922 14.6094 8.19922 16.9993C8.19922 19.3893 8.20985 19.6883 8.25239 20.627C8.29547 21.5638 8.44379 22.2033 8.66122 22.7628C8.88618 23.3416 9.18685 23.8326 9.67617 24.3217C10.1651 24.8112 10.6561 25.1126 11.2345 25.3374C11.7944 25.555 12.4341 25.7033 13.3707 25.7462C14.3094 25.7889 14.6092 25.7994 16.9989 25.7994C19.3891 25.7994 19.6881 25.7889 20.6268 25.7462C21.5636 25.7033 22.2038 25.555 22.7637 25.3374C23.3423 25.1126 23.8326 24.8112 24.3215 24.3217C24.811 23.8326 25.1117 23.3416 25.3372 22.763C25.5536 22.2033 25.7021 21.5636 25.7461 20.6271C25.7882 19.6885 25.7992 19.3893 25.7992 16.9993C25.7992 14.6094 25.7882 14.3094 25.7461 13.3707C25.7021 12.4339 25.5536 11.7944 25.3372 11.2349C25.1117 10.6561 24.811 10.1651 24.3215 9.67598C23.832 9.18648 23.3425 8.88581 22.7632 8.66122C22.2022 8.4436 21.5623 8.29529 20.6255 8.25239C19.6868 8.20967 19.388 8.19922 16.9973 8.19922H17ZM17 9.78507C16.7063 9.78507 16.4449 9.7847 16.2106 9.78507V9.78287C14.5705 9.7847 14.2559 9.7957 13.4441 9.83237C12.5861 9.87179 12.1202 10.0148 11.81 10.1358C11.3993 10.2957 11.106 10.4863 10.798 10.7943C10.49 11.1023 10.299 11.3957 10.1395 11.8063C10.019 12.1165 9.87564 12.5822 9.8364 13.4402C9.79424 14.3679 9.7858 14.6451 9.7858 16.9951C9.7858 19.3451 9.79424 19.6238 9.8364 20.5514C9.87545 21.4094 10.019 21.8751 10.1395 22.1849C10.2993 22.5958 10.49 22.8884 10.798 23.1964C11.106 23.5044 11.3993 23.6951 11.81 23.8546C12.1204 23.975 12.5861 24.1184 13.4441 24.158C14.3718 24.2002 14.6502 24.2093 17 24.2093C19.3497 24.2093 19.6283 24.2002 20.556 24.158C21.414 24.1188 21.8801 23.9758 22.1899 23.8548C22.6008 23.6953 22.8932 23.5046 23.2012 23.1966C23.5092 22.8888 23.7002 22.5963 23.8597 22.1857C23.9802 21.8758 24.1235 21.4102 24.1628 20.5522C24.2049 19.6245 24.2141 19.3458 24.2141 16.9973C24.2141 14.6488 24.2049 14.3701 24.1628 13.4424C24.1237 12.5844 23.9802 12.1187 23.8597 11.8089C23.6998 11.3982 23.5092 11.1049 23.2012 10.7969C22.8934 10.4889 22.6006 10.2982 22.1899 10.1387C21.8797 10.0183 21.414 9.8749 20.556 9.83567C19.6282 9.7935 19.3497 9.78507 17 9.78507Z"/>
    <path d="M17 14.0659C18.62 14.0659 19.9334 15.3792 19.9334 16.9993C19.9334 18.6193 18.62 19.9327 17 19.9327C15.3799 19.9327 14.0667 18.6193 14.0667 16.9993C14.0667 15.3792 15.3799 14.0659 17 14.0659Z"/>
    <path fill-rule="evenodd" clip-rule="evenodd"
          d="M16.2106 9.78507C16.4449 9.7847 16.7063 9.78507 17 9.78507C19.3497 9.78507 19.6282 9.7935 20.556 9.83567C21.414 9.8749 21.8797 10.0183 22.1899 10.1387C22.6006 10.2982 22.8934 10.4889 23.2012 10.7969C23.5092 11.1049 23.6998 11.3982 23.8597 11.8089C23.9802 12.1187 24.1237 12.5844 24.1628 13.4424C24.2049 14.3701 24.2141 14.6488 24.2141 16.9973C24.2141 19.3458 24.2049 19.6245 24.1628 20.5522C24.1235 21.4102 23.9802 21.8758 23.8597 22.1857C23.7002 22.5963 23.5092 22.8888 23.2012 23.1966C22.8932 23.5046 22.6008 23.6953 22.1899 23.8548C21.8801 23.9758 21.414 24.1188 20.556 24.158C19.6283 24.2002 19.3497 24.2093 17 24.2093C14.6502 24.2093 14.3718 24.2002 13.4441 24.158C12.5861 24.1184 12.1204 23.975 11.81 23.8546C11.3993 23.6951 11.106 23.5044 10.798 23.1964C10.49 22.8884 10.2993 22.5958 10.1395 22.1849C10.019 21.8751 9.87545 21.4094 9.8364 20.5514C9.79424 19.6238 9.7858 19.3451 9.7858 16.9951C9.7858 14.6451 9.79424 14.3679 9.8364 13.4402C9.87564 12.5822 10.019 12.1165 10.1395 11.8063C10.299 11.3957 10.49 11.1023 10.798 10.7943C11.106 10.4863 11.3993 10.2957 11.81 10.1358C12.1202 10.0148 12.5861 9.87179 13.4441 9.83237C14.2559 9.7957 14.5705 9.7847 16.2106 9.78287V9.78507ZM20.6414 12.3019C20.6414 11.7187 21.1145 11.2462 21.6975 11.2462C22.2805 11.2462 22.7535 11.7189 22.7535 12.3019C22.7535 12.8849 22.2805 13.3579 21.6975 13.3579C21.1145 13.3579 20.6414 12.8849 20.6414 12.3019ZM12.4808 16.9993C12.4808 14.5036 14.5043 12.4801 17 12.4801C19.4958 12.4801 21.5185 14.5036 21.5185 16.9993C21.5185 19.4951 19.4958 21.5176 17 21.5176C14.5043 21.5176 12.4808 19.4951 12.4808 16.9993Z"/>
</svg>
