<svg width="13" height="12" viewBox="0 0 13 12" fill="none" xmlns="http://www.w3.org/2000/svg">
<path fill-rule="evenodd" clip-rule="evenodd" d="M6.5 12C5.52488 12 4.65271 11.5593 4.07182 10.8661C3.70492 11.5415 2.98934 12 2.16667 12C0.97005 12 0 11.03 0 9.83333V4.5C0 3.30338 0.97005 2.33333 2.16667 2.33333C2.99488 2.33333 3.71456 2.79803 4.07919 3.48091C4.13875 3.38294 4.20294 3.27867 4.27209 3.16632L5.79111 0.697919C6.05802 0.2642 6.53082 0 7.04008 0C7.93889 0 8.62622 0.801156 8.48955 1.68951L8.32752 2.7427C8.19885 3.57906 8.84595 4.33333 9.69216 4.33333H10.152C12.215 4.33333 13.5568 6.5044 12.6342 8.34963L11.8685 9.88098C11.2192 11.1797 9.89185 12 8.43989 12H6.5ZM6.64277 1.22202C6.72768 1.08405 6.87808 1 7.04008 1C7.32601 1 7.54465 1.25486 7.50118 1.53745L7.33915 2.59064C7.11728 4.03276 8.23307 5.33333 9.69216 5.33333H10.152C11.4716 5.33333 12.3299 6.72209 11.7398 7.90242L10.9741 9.43377C10.4942 10.3937 9.51307 11 8.43989 11H6.5C5.30338 11 4.33333 10.03 4.33333 8.83333V6.54406C4.33333 5.76036 4.33621 5.4451 4.40431 5.14658C4.42596 5.05169 4.45249 4.95797 4.48379 4.8658C4.58223 4.57588 4.74501 4.30587 5.15575 3.63843L6.64277 1.22202ZM2.16667 3.33333C2.811 3.33333 3.33333 3.85567 3.33333 4.5V9.83333C3.33333 10.4777 2.811 11 2.16667 11C1.52233 11 1 10.4777 1 9.83333V4.5C1 3.85567 1.52233 3.33333 2.16667 3.33333Z" fill="#BABABA"/>
</svg>
