<svg width="12" height="16" viewBox="0 0 12 16" fill="none" xmlns="http://www.w3.org/2000/svg">
<path d="M7.80431 2.03548C8.21406 1.83179 8.69563 1.77119 9.17229 1.89891C10.2096 2.17685 10.8252 3.24306 10.5472 4.28036L8.96555 10.1832C8.68761 11.2205 7.6214 11.8361 6.5841 11.5582C5.54681 11.2802 4.93123 10.214 5.20917 9.17672L5.84184 6.81557C5.91331 6.54883 5.75502 6.27466 5.48829 6.20319C5.22156 6.13172 4.94739 6.29001 4.87592 6.55675L4.24325 8.9179C3.82236 10.4887 4.75452 12.1032 6.32528 12.5241C7.89604 12.945 9.51059 12.0128 9.93148 10.4421L11.5131 4.53918C11.934 2.96842 11.0019 1.35387 9.43111 0.932983C8.71014 0.739799 7.97875 0.832023 7.35917 1.14002C6.97925 1.32888 6.64057 1.59917 6.37089 1.93539C6.1981 2.1508 6.23266 2.46549 6.44807 2.63827C6.66348 2.81105 6.97817 2.7765 7.15095 2.56109C7.32866 2.33953 7.55252 2.16064 7.80431 2.03548Z" fill="#BABABA"/>
<path d="M3.48069 6.1829C3.75863 5.1456 4.82484 4.53003 5.86214 4.80797C6.89943 5.08591 7.51501 6.15212 7.23707 7.18942L6.6044 9.55057C6.53293 9.8173 6.69122 10.0915 6.95795 10.1629C7.22468 10.2344 7.49885 10.0761 7.57032 9.80939L8.20299 7.44824C8.62388 5.87747 7.69172 4.26293 6.12096 3.84204C4.5502 3.42116 2.93565 4.35332 2.51476 5.92408L0.933092 11.827C0.512207 13.3977 1.44437 15.0123 3.01513 15.4332C3.7361 15.6263 4.46749 15.5341 5.08707 15.2261C5.46699 15.0373 5.80567 14.767 6.07536 14.4307C6.24814 14.2153 6.21358 13.9006 5.99817 13.7279C5.78276 13.5551 5.46807 13.5896 5.29529 13.805C5.11758 14.0266 4.89371 14.2055 4.64193 14.3307C4.23218 14.5343 3.75061 14.5949 3.27395 14.4672C2.23665 14.1893 1.62107 13.1231 1.89902 12.0858L3.48069 6.1829Z" fill="#BABABA"/>
</svg>
