<svg width="17" height="17" viewBox="0 0 17 17" xmlns="http://www.w3.org/2000/svg">
<path fill-rule="evenodd" clip-rule="evenodd" d="M8.38891 1.09071C5.47739 1.09071 3.11713 3.45097 3.11713 6.36249C3.11713 7.20294 3.3134 7.99599 3.66212 8.69973C4.37812 10.1447 5.73695 11.2138 7.36219 11.5345C7.69386 11.5999 8.0371 11.6343 8.38891 11.6343C8.68979 11.6343 8.98437 11.6091 9.27078 11.5609C10.9302 11.2817 12.3285 10.2256 13.0762 8.77786C13.4496 8.05485 13.6607 7.23412 13.6607 6.36249C13.6607 3.45097 11.3004 1.09071 8.38891 1.09071ZM2.02642 6.36249C2.02642 2.84858 4.875 0 8.38891 0C11.9028 0 14.7514 2.84858 14.7514 6.36249C14.7514 7.28066 14.5566 8.15455 14.2057 8.94406C14.3707 9.16908 14.5319 9.44868 14.731 9.79372C14.7459 9.81954 14.761 9.84572 14.7763 9.87227L16.0724 12.1172C16.2363 12.401 16.3879 12.6635 16.4753 12.8808C16.5609 13.0936 16.6687 13.4627 16.4305 13.8043C16.1892 14.1502 15.8019 14.1707 15.5724 14.1593C15.34 14.1477 15.0446 14.0896 14.7272 14.0271L14.1518 13.9139C13.8329 13.8512 13.6436 13.815 13.5032 13.8054C13.4391 13.8009 13.4047 13.8039 13.3877 13.8068C13.3799 13.8081 13.3763 13.8093 13.3753 13.8096C13.3745 13.8099 13.3741 13.8101 13.3732 13.8106C13.3728 13.8109 13.3725 13.811 13.3722 13.8112C13.3719 13.8115 13.3716 13.8117 13.3713 13.812C13.3705 13.8126 13.3676 13.8152 13.3626 13.8212C13.3517 13.8345 13.3319 13.8628 13.3036 13.9206C13.2418 14.047 13.1785 14.229 13.0734 14.5366L12.8837 15.0914C12.7791 15.3975 12.6818 15.6824 12.5756 15.8895C12.4707 16.094 12.2593 16.4191 11.8391 16.4551C11.4241 16.4906 11.1584 16.2127 11.0169 16.0322C10.8724 15.8478 10.7209 15.5853 10.557 15.3014L9.25591 13.0478C9.18134 12.9186 9.11292 12.8001 9.05096 12.6909C8.83321 12.7134 8.61232 12.725 8.38891 12.725C8.10035 12.725 7.81603 12.7057 7.53722 12.6684C7.47191 12.7839 7.39916 12.9099 7.31936 13.0481L6.01843 15.3014C5.85456 15.5853 5.70304 15.8478 5.55856 16.0322C5.41704 16.2127 5.15133 16.4906 4.73637 16.4551C4.31615 16.4191 4.10474 16.094 3.99986 15.8895C3.89366 15.6824 3.79631 15.3975 3.69172 15.0914L3.50208 14.5366C3.39692 14.229 3.33364 14.047 3.2718 13.9206C3.24355 13.8628 3.22377 13.8345 3.21283 13.8212C3.2078 13.8152 3.20492 13.8126 3.20417 13.812C3.20353 13.8114 3.20317 13.8111 3.20224 13.8106C3.20131 13.8101 3.20089 13.8099 3.2001 13.8096C3.19917 13.8093 3.19551 13.8081 3.18773 13.8068C3.17079 13.8039 3.13635 13.8009 3.07222 13.8054C2.93181 13.815 2.74256 13.8512 2.42359 13.9139L1.84823 14.0271C1.53088 14.0896 1.23546 14.1477 1.00307 14.1593C0.773542 14.1707 0.386249 14.1502 0.144975 13.8043C-0.0932816 13.4627 0.0145337 13.0936 0.100143 12.8808C0.187544 12.6635 0.339139 12.401 0.503087 12.1171L1.79915 9.87227C1.80982 9.85379 1.82038 9.8355 1.83083 9.81739C2.09419 9.36105 2.28981 9.0221 2.50097 8.77764C2.19499 8.03239 2.02642 7.21657 2.02642 6.36249ZM3.07203 9.85823C2.98637 9.99844 2.88161 10.1788 2.74374 10.4176L1.46647 12.6299C1.37133 12.7947 1.29612 12.9257 1.23789 13.0324C1.35377 13.0124 1.49647 12.9847 1.67525 12.9495L2.24241 12.838C2.52216 12.7829 2.77998 12.7322 2.99739 12.7172C3.23742 12.7007 3.49676 12.7212 3.7476 12.866C3.99843 13.0108 4.14585 13.2252 4.25157 13.4413C4.34733 13.6371 4.4323 13.8857 4.5245 14.1555L4.71146 14.7025C4.7704 14.8749 4.81773 15.0123 4.85832 15.1227C4.92168 15.0189 4.99748 14.8883 5.09263 14.7235L6.36989 12.5112C6.38882 12.4784 6.40714 12.4467 6.42488 12.4159C5.03673 11.9659 3.85856 11.0522 3.07203 9.85823ZM10.1812 12.4689C10.1892 12.4828 10.1973 12.4969 10.2055 12.5112L11.4828 14.7235C11.578 14.8883 11.6538 15.0189 11.7171 15.1227C11.7577 15.0123 11.805 14.8749 11.864 14.7025L12.0509 14.1555C12.1431 13.8857 12.2281 13.6371 12.3239 13.4413C12.4296 13.2252 12.577 13.0108 12.8278 12.866C13.0787 12.7212 13.338 12.7007 13.578 12.7172C13.7955 12.7322 14.0533 12.7829 14.3331 12.838L14.9002 12.9495C15.079 12.9847 15.2217 13.0124 15.3375 13.0324C15.2793 12.9257 15.2041 12.7947 15.109 12.6299L13.8317 10.4176C13.7407 10.2601 13.6641 10.1281 13.5981 10.0165C12.78 11.1808 11.5811 12.0587 10.1812 12.4689Z"/>
</svg>
