<svg width="16" height="16" viewBox="0 0 16 16" fill="none" xmlns="http://www.w3.org/2000/svg">
    <path fill-rule="evenodd" clip-rule="evenodd"
          d="M5.64644 0.313103C5.8417 0.117841 6.15829 0.117841 6.35355 0.313103L8 1.95955L9.64644 0.313103C9.84171 0.117841 10.1583 0.117841 10.3535 0.313103C10.5488 0.508366 10.5488 0.824948 10.3535 1.02021L9.2071 2.16666H9.3557C10.2702 2.16665 10.9871 2.16665 11.5634 2.21373C12.1501 2.26167 12.6349 2.36091 13.0736 2.58447C13.7949 2.95198 14.3813 3.53841 14.7489 4.25969C14.9724 4.69845 15.0716 5.18319 15.1196 5.76995C15.1667 6.34618 15.1667 7.06313 15.1667 7.9776V8.02238C15.1667 8.93685 15.1667 9.6538 15.1196 10.23C15.0716 10.8168 14.9724 11.3015 14.7489 11.7403C14.3813 12.4616 13.7949 13.048 13.0736 13.4155C12.8545 13.5272 12.6236 13.6079 12.3739 13.6668L13.0202 14.3131C13.2155 14.5084 13.2155 14.8249 13.0202 15.0202C12.825 15.2155 12.5084 15.2155 12.3131 15.0202L11.1063 13.8134C10.6184 13.8333 10.0404 13.8333 9.34824 13.8333H6.6519C5.95965 13.8333 5.38159 13.8333 4.8937 13.8134L3.68688 15.0202C3.49162 15.2155 3.17504 15.2155 2.97978 15.0202C2.78451 14.8249 2.78451 14.5084 2.97978 14.3131L3.62612 13.6668C3.3764 13.6079 3.14547 13.5272 2.92637 13.4155C2.20508 13.048 1.61865 12.4616 1.25114 11.7403C1.02758 11.3015 0.928343 10.8168 0.880403 10.23C0.833323 9.6538 0.833325 8.93684 0.833328 8.02236V7.97762C0.833325 7.06314 0.833323 6.34618 0.880403 5.76995C0.928343 5.18319 1.02758 4.69845 1.25114 4.25969C1.61865 3.53841 2.20508 2.95198 2.92637 2.58447C3.36512 2.36091 3.84986 2.26167 4.43662 2.21373C5.01285 2.16665 5.72981 2.16665 6.64429 2.16666H6.79289L5.64644 1.02021C5.45118 0.824948 5.45118 0.508365 5.64644 0.313103ZM4.51805 3.21041C3.99313 3.2533 3.65464 3.33572 3.38036 3.47547C2.84723 3.74711 2.41378 4.18056 2.14214 4.71368C2.00239 4.98797 1.91997 5.32646 1.87708 5.85138C1.83372 6.38214 1.83333 7.05832 1.83333 7.99999C1.83333 8.94166 1.83372 9.61784 1.87708 10.1486C1.91997 10.6735 2.00239 11.012 2.14214 11.2863C2.41378 11.8194 2.84723 12.2529 3.38036 12.5245C3.69048 12.6825 4.08058 12.7665 4.72658 12.804C5.22703 12.8331 5.84697 12.8333 6.66666 12.8333H9.33333C10.1542 12.8333 10.7748 12.8331 11.2756 12.8039C11.9203 12.7663 12.3099 12.6823 12.6196 12.5245C13.1528 12.2529 13.5862 11.8194 13.8578 11.2863C13.9976 11.012 14.08 10.6735 14.1229 10.1486C14.1663 9.61784 14.1667 8.94166 14.1667 7.99999C14.1667 7.05832 14.1663 6.38214 14.1229 5.85138C14.08 5.32646 13.9976 4.98797 13.8578 4.71368C13.5862 4.18056 13.1528 3.74711 12.6196 3.47547C12.3454 3.33572 12.0069 3.2533 11.4819 3.21041C10.9512 3.16705 10.275 3.16666 9.33333 3.16666H6.66666C5.72499 3.16666 5.04881 3.16705 4.51805 3.21041Z"
          fill="white"/>
</svg>
