<svg width="42" height="42" viewBox="0 0 42 42" xmlns="http://www.w3.org/2000/svg">
<path d="M0 21C0 9.40202 9.40202 0 21 0C32.598 0 42 9.40202 42 21C42 32.598 32.598 42 21 42C9.40202 42 0 32.598 0 21Z"/>
<path fill-rule="evenodd" clip-rule="evenodd" d="M34.3282 15.156C34.5356 14.5039 34.3282 14.0297 33.4093 14.0297H30.3564C29.5858 14.0297 29.2301 14.4446 29.0226 14.8893C29.0226 14.8893 27.4516 18.6832 25.2583 21.1432C24.5469 21.8546 24.2209 22.0917 23.8356 22.0917C23.6281 22.0917 23.3614 21.8546 23.3614 21.2026V15.1263C23.3614 14.3557 23.1242 14 22.4721 14H17.6704C17.1962 14 16.8998 14.3557 16.8998 14.7114C16.8998 15.4524 17.9965 15.6302 18.115 17.705V22.2103C18.115 23.1885 17.9372 23.3663 17.5519 23.3663C16.5145 23.3663 13.9951 19.5427 12.4834 15.1856C12.187 14.326 11.8906 14 11.12 14H8.03739C7.14821 14 7 14.415 7 14.8596C7 15.6599 8.03739 19.6909 11.8313 25.0261C14.3508 28.6718 17.9372 30.6281 21.168 30.6281C23.1242 30.6281 23.3614 30.1835 23.3614 29.4425V26.686C23.3614 25.7968 23.5392 25.6486 24.1616 25.6486C24.6062 25.6486 25.4065 25.8856 27.2145 27.6344C29.2893 29.7092 29.645 30.6577 30.801 30.6577H33.8539C34.7431 30.6577 35.1581 30.2131 34.921 29.3535C34.6542 28.494 33.6465 27.2492 32.3423 25.7671C31.6309 24.9372 30.5638 24.0184 30.2378 23.5737C29.7932 22.981 29.9118 22.7439 30.2378 22.2103C30.2082 22.2103 33.9428 16.9344 34.3282 15.156Z" fill="white"/>
</svg>
