<svg width="42" height="42" viewBox="0 0 42 42" xmlns="http://www.w3.org/2000/svg">
<path d="M0 21C0 9.40202 9.40202 0 21 0C32.598 0 42 9.40202 42 21C42 32.598 32.598 42 21 42C9.40202 42 0 32.598 0 21Z" fill="white"/>
<path d="M20.9999 15.4188C22.7087 15.4188 23.8614 16.1569 24.5186 16.7737L27.0868 14.2661C25.5095 12.8 23.4569 11.9001 20.9999 11.9001C17.4408 11.9001 14.3671 13.9426 12.8706 16.9153L15.8129 19.2004C16.5511 17.0063 18.5935 15.4188 20.9999 15.4188Z" fill="#EA4335"/>
<path d="M29.736 21.2022C29.736 20.454 29.6753 19.908 29.5439 19.3418H21V22.7189H26.0151C25.914 23.5581 25.368 24.822 24.1547 25.6714L27.0262 27.8958C28.7451 26.3084 29.736 23.9727 29.736 21.2022Z" fill="#4285F4"/>
<path d="M15.823 22.7997C15.6309 22.2335 15.5197 21.6268 15.5197 20.9999C15.5197 20.373 15.6309 19.7664 15.8129 19.2002L12.8706 16.915C12.2538 18.1486 11.8999 19.5338 11.8999 20.9999C11.8999 22.466 12.2538 23.8513 12.8706 25.0848L15.823 22.7997Z" fill="#FBBC05"/>
<path d="M20.9998 30.1C23.4568 30.1 25.5195 29.2911 27.0261 27.8958L24.1545 25.6714C23.3861 26.2072 22.3547 26.5814 20.9998 26.5814C18.5934 26.5814 16.5509 24.9939 15.8229 22.7998L12.8806 25.0849C14.3771 28.0576 17.4407 30.1 20.9998 30.1Z" fill="#34A853"/>
</svg>
