<svg width="42" height="42" viewBox="0 0 42 42" fill="none" xmlns="http://www.w3.org/2000/svg">
<path d="M42 21C42 32.598 32.598 42 21 42C9.40202 42 0 32.598 0 21C0 9.40202 9.40202 0 21 0C32.598 0 42 9.40202 42 21Z" fill="#ED1E24"/>
<path d="M23.546 22.1084H22.0719C19.7555 22.1084 17.5093 20.4958 17.5093 16.4634C17.5093 12.2637 19.6153 10.55 21.7559 10.55H23.546V22.1084ZM25.8624 8.39961H21.8616C17.9299 8.39961 14.5966 11.2561 14.5966 16.7999C14.5966 20.1262 16.2109 22.5791 19.0891 23.7881L13.7188 33.0618C13.5431 33.3642 13.7188 33.5996 13.9992 33.5996H16.4913C16.7016 33.5996 16.8428 33.5325 16.9129 33.3643L21.7915 24.2588H23.546V33.3643C23.546 33.4654 23.6517 33.5996 23.7919 33.5996H25.968C26.1783 33.5996 26.2484 33.4985 26.2484 33.3312V8.73518C26.2484 8.50074 26.1082 8.39961 25.8624 8.39961Z" fill="white"/>
</svg>
