<svg width="42" height="42" viewBox="0 0 42 42" xmlns="http://www.w3.org/2000/svg">
<path d="M0 21C0 9.40202 9.40202 0 21 0C32.598 0 42 9.40202 42 21C42 32.598 32.598 42 21 42C9.40202 42 0 32.598 0 21Z"/>
<path fill-rule="evenodd" clip-rule="evenodd" d="M8.75 20.9652C8.75 14.2297 14.2452 8.75 20.9998 8.75C27.7544 8.75 33.2497 14.2297 33.2497 20.9652C33.2497 21.9194 33.1701 22.6919 32.9917 23.4672L32.9891 23.4801C32.9886 23.4824 32.9001 23.8398 32.8512 23.9957C32.5484 24.9613 32.0003 25.7655 31.2659 26.3213C30.5538 26.8605 29.6708 27.1575 28.7797 27.1575C28.6696 27.1575 28.5587 27.153 28.4501 27.1443C27.1847 27.043 26.072 26.379 25.3897 25.3201C24.2162 26.4967 22.6593 27.1441 20.9998 27.1441C17.5832 27.1441 14.8036 24.3723 14.8036 20.9652C14.8036 17.5583 17.5832 14.7866 20.9998 14.7866C24.4164 14.7866 27.196 17.5583 27.196 20.9652V22.957C27.2012 24.1192 27.9832 24.5942 28.6514 24.648C29.3161 24.6991 30.2008 24.313 30.509 23.0528C30.661 22.3617 30.7382 21.6591 30.7382 20.9652C30.7382 15.6106 26.3696 11.2544 20.9998 11.2544C15.6301 11.2544 11.2615 15.6106 11.2615 20.9652C11.2615 26.3199 15.6301 30.6762 20.9998 30.6762C22.869 30.6762 24.6869 30.1439 26.2569 29.1367L26.285 29.1186L27.9353 31.0318L27.8999 31.056C25.8605 32.4459 23.4745 33.1806 20.9998 33.1806C14.2452 33.1806 8.75 27.7008 8.75 20.9652ZM20.9998 24.6396C23.0315 24.6396 24.6845 22.9912 24.6845 20.9652C24.6845 18.9392 23.0315 17.2909 20.9998 17.2909C18.968 17.2909 17.3151 18.9392 17.3151 20.9652C17.3151 22.9912 18.968 24.6396 20.9998 24.6396Z" fill="#FF9E00"/>
</svg>
