<svg width="257" height="66" viewBox="0 0 257 66" fill="none" xmlns="http://www.w3.org/2000/svg">
<path d="M52.6201 42.215C58.1246 42.215 61.9653 39.043 62.4939 34.0361H57.9224C57.4249 36.6951 55.419 38.3277 52.6357 38.3277C49.0438 38.3277 46.7892 35.3734 46.7892 30.5842C46.7892 25.8572 49.0749 22.8873 52.6201 22.8873C55.3568 22.8873 57.4715 24.691 57.9069 27.4432H62.4784C62.1207 22.4208 58.0157 19 52.6201 19C46.1206 19 42 23.3693 42 30.5998C42 37.8457 46.0895 42.215 52.6201 42.215Z" fill="url(#paint0_linear_659_49919)"/>
<path d="M67.3919 47.9994C71.6524 47.9994 73.736 46.4755 75.1666 42.1995L80.9043 25.1575H76.1151L72.5699 38.1878H72.4921L68.9469 25.1575H63.9556L69.7554 41.8419C69.7865 41.9041 69.6155 42.5727 69.6155 42.6349C69.3045 43.9566 68.4804 44.4852 66.8166 44.4852C66.6456 44.4852 65.8215 44.4852 65.6815 44.4541V47.9527C65.8215 47.9838 67.2365 47.9994 67.3919 47.9994Z" fill="url(#paint1_linear_659_49919)"/>
<path d="M92.4574 42.0907C96.6557 42.0907 99.2213 38.8564 99.2213 33.4919C99.2213 28.1119 96.6401 24.8932 92.4418 24.8932C90.0628 24.8932 88.2124 26.0749 87.295 28.0497H87.2017V19.3887H82.6613V41.8263H87.1395V38.9653H87.2328C88.1502 40.9089 90.0161 42.0907 92.4574 42.0907ZM90.8869 28.5317C93.1415 28.5317 94.5721 30.4598 94.5721 33.4919C94.5721 36.5396 93.1571 38.4366 90.8869 38.4366C88.6789 38.4366 87.1862 36.5085 87.1862 33.4919C87.1862 30.5065 88.6944 28.5317 90.8869 28.5317Z" fill="url(#paint2_linear_659_49919)"/>
<path d="M109.064 28.1585C111.085 28.1585 112.469 29.6201 112.563 31.7504H105.488C105.643 29.6668 107.074 28.1585 109.064 28.1585ZM112.625 36.7262C112.205 38.0012 110.93 38.8253 109.266 38.8253C106.949 38.8253 105.441 37.1926 105.441 34.8136V34.5337H116.932V33.1498C116.932 28.0808 113.869 24.7999 109.017 24.7999C104.088 24.7999 100.978 28.2518 100.978 33.5697C100.978 38.9031 104.057 42.184 109.188 42.184C113.309 42.184 116.294 39.9915 116.792 36.7262H112.625Z" fill="url(#paint3_linear_659_49919)"/>
<path d="M119.28 41.8263H123.82V32.5123C123.82 30.1644 125.126 28.796 127.365 28.796C128.019 28.796 128.64 28.9049 129.014 29.0604V25.0642C128.703 24.9709 128.252 24.8932 127.723 24.8932C125.764 24.8932 124.349 26.0438 123.758 28.1585H123.665V25.1575H119.28V41.8263Z" fill="url(#paint4_linear_659_49919)"/>
<path d="M155.615 32.5279V30.3976H146.487V32.8544H152.816V33.2587C152.816 37.0216 150.079 39.6028 146.099 39.6028C141.527 39.6028 138.697 36.1042 138.697 30.4598C138.697 24.9087 141.48 21.5812 146.099 21.5812C149.255 21.5812 151.603 23.3071 152.536 26.3393H155.475C154.635 21.8766 150.95 19 146.099 19C139.817 19 135.821 23.4626 135.821 30.4754C135.821 37.6125 139.832 42.184 146.099 42.184C152.085 42.184 155.615 38.5921 155.615 32.5279Z" fill="white"/>
<path d="M164.12 39.7894C162.177 39.7894 160.886 38.7787 160.886 37.2393C160.886 35.7155 162.13 34.7514 164.307 34.6115L168.63 34.3471V35.6688C168.63 38.0012 166.67 39.7894 164.12 39.7894ZM163.514 42.0907C165.691 42.0907 167.743 40.8778 168.707 39.0275H168.769V41.8108H171.335V30.6308C171.335 27.4122 168.94 25.3596 165.146 25.3596C161.321 25.3596 158.927 27.5054 158.74 30.3043H161.352C161.695 28.7183 163.001 27.7387 165.084 27.7387C167.323 27.7387 168.63 28.9204 168.63 30.8952V32.248L163.996 32.5123C160.264 32.73 158.134 34.4715 158.134 37.2393C158.134 40.147 160.295 42.0907 163.514 42.0907Z" fill="white"/>
<path d="M174.771 41.8108H177.477V31.6727C177.477 29.4336 179.032 27.7542 181.178 27.7542C183.184 27.7542 184.49 29.0293 184.49 30.9729V41.8108H187.195V31.5327C187.195 29.3403 188.704 27.7542 190.849 27.7542C192.98 27.7542 194.208 29.0604 194.208 31.2684V41.8108H196.914V30.6464C196.914 27.4433 194.846 25.3596 191.642 25.3596C189.372 25.3596 187.475 26.5103 186.573 28.4384H186.511C185.811 26.4792 184.179 25.3596 181.971 25.3596C179.794 25.3596 178.146 26.5103 177.384 28.2207H177.322V25.6395H174.771V41.8108Z" fill="white"/>
<path d="M206.85 27.7076C209.4 27.7076 211.095 29.6357 211.157 32.3413H202.371C202.542 29.6512 204.315 27.7076 206.85 27.7076ZM211.095 37.1771C210.644 38.7009 209.135 39.7427 207.083 39.7427C204.175 39.7427 202.356 37.7058 202.356 34.6115V34.456H213.956V33.4297C213.956 28.5317 211.266 25.3596 206.896 25.3596C202.434 25.3596 199.573 28.7649 199.573 33.7874C199.573 38.872 202.387 42.0907 207.021 42.0907C210.55 42.0907 213.287 40.0071 213.753 37.1771H211.095Z" fill="white"/>
<rect x="0.5" y="0.5" width="256" height="65" rx="11.5" stroke="#BABABA"/>
<defs>
<linearGradient id="paint0_linear_659_49919" x1="-5.99564" y1="19" x2="114.479" y2="34.7856" gradientUnits="userSpaceOnUse">
<stop stop-color="#F7BD50"/>
<stop offset="1" stop-color="#DA7703"/>
</linearGradient>
<linearGradient id="paint1_linear_659_49919" x1="-5.99564" y1="19" x2="114.479" y2="34.7856" gradientUnits="userSpaceOnUse">
<stop stop-color="#F7BD50"/>
<stop offset="1" stop-color="#DA7703"/>
</linearGradient>
<linearGradient id="paint2_linear_659_49919" x1="-5.99564" y1="19" x2="114.479" y2="34.7856" gradientUnits="userSpaceOnUse">
<stop stop-color="#F7BD50"/>
<stop offset="1" stop-color="#DA7703"/>
</linearGradient>
<linearGradient id="paint3_linear_659_49919" x1="-5.99564" y1="19" x2="114.479" y2="34.7856" gradientUnits="userSpaceOnUse">
<stop stop-color="#F7BD50"/>
<stop offset="1" stop-color="#DA7703"/>
</linearGradient>
<linearGradient id="paint4_linear_659_49919" x1="-5.99564" y1="19" x2="114.479" y2="34.7856" gradientUnits="userSpaceOnUse">
<stop stop-color="#F7BD50"/>
<stop offset="1" stop-color="#DA7703"/>
</linearGradient>
</defs>
</svg>
