<svg width="108" height="17" viewBox="0 0 108 17" fill="none" xmlns="http://www.w3.org/2000/svg">
<path d="M1.31774 15.0015H7.63117C8.51522 15.0015 8.94889 14.5679 8.94889 13.6087V8.75482C8.94889 7.90415 8.5986 7.46213 7.89805 7.37872V5.72738C7.89805 3.16699 6.17999 1.99939 4.47861 1.99939C2.76891 1.99939 1.05919 3.16699 1.05919 5.72738V7.40374C0.400332 7.52884 0 7.96253 0 8.75482V13.6087C0 14.5679 0.442025 15.0015 1.31774 15.0015ZM2.43531 5.57726C2.43531 4.0844 3.38608 3.31711 4.47861 3.31711C5.56283 3.31711 6.52193 4.0844 6.52193 5.57726V7.36203L2.43531 7.37039V5.57726Z" fill="white"/>
<path d="M18.8268 13.6482C20.3964 13.6482 21.4305 12.688 21.6152 11.4323H20.5257C20.3226 12.2079 19.6762 12.6695 18.8268 12.6695C17.5342 12.6695 16.7032 11.5985 16.7032 9.95503C16.7032 8.3485 17.5527 7.29594 18.8268 7.29594C19.787 7.29594 20.3595 7.88685 20.5257 8.53316H21.6152C21.4305 7.20361 20.3041 6.31725 18.8083 6.31725C16.8879 6.31725 15.6137 7.83145 15.6137 9.99197C15.6137 12.1155 16.8325 13.6482 18.8268 13.6482ZM23.9096 16.1596C24.8929 16.1596 25.5853 15.6379 25.9962 14.5346L29.0154 6.42804L27.8243 6.40958L25.8669 12.0601H25.7931L23.8357 6.40958H22.6539L25.276 13.5374L25.0729 14.0914C24.6759 15.1717 24.1865 15.2732 23.3925 15.0701L23.1155 16.0303C23.2263 16.0857 23.5402 16.1596 23.9096 16.1596ZM30.6046 13.5005H31.6572V12.411H31.7864C32.0265 12.7988 32.4881 13.6482 33.8546 13.6482C35.6273 13.6482 36.8645 12.2263 36.8645 9.9735C36.8645 7.73912 35.6273 6.31725 33.8361 6.31725C32.4512 6.31725 32.0265 7.16668 31.7864 7.536H31.6941V4.04594H30.6046V13.5005ZM31.6756 9.95503C31.6756 8.36697 32.3773 7.29594 33.7069 7.29594C35.0918 7.29594 35.7751 8.4593 35.7751 9.95503C35.7751 11.4692 35.0734 12.6695 33.7069 12.6695C32.3958 12.6695 31.6756 11.5616 31.6756 9.95503ZM41.5041 13.6482C42.9444 13.6482 43.997 12.928 44.3294 11.857L43.2768 11.5616C42.9998 12.3002 42.3582 12.6695 41.5041 12.6695C40.2253 12.6695 39.3436 11.8432 39.2928 10.3244H44.4402V9.8627C44.4402 7.22208 42.8706 6.31725 41.3933 6.31725C39.4729 6.31725 38.1987 7.83145 38.1987 10.0104C38.1987 12.1894 39.4544 13.6482 41.5041 13.6482ZM39.2928 9.38259C39.3667 8.27925 40.1469 7.29594 41.3933 7.29594C42.5751 7.29594 43.3322 8.18231 43.3322 9.38259H39.2928ZM46.0975 13.5005H47.187V9.01327C47.187 8.05305 47.9441 7.35134 48.9782 7.35134C49.269 7.35134 49.5691 7.40674 49.643 7.4252V6.31725C49.5183 6.30802 49.2321 6.29878 49.0705 6.29878C48.2211 6.29878 47.4824 6.7789 47.2239 7.4806H47.1501V6.40958H46.0975V13.5005ZM53.5808 16.3073C55.2797 16.3073 56.6462 15.5317 56.6462 13.7036V6.40958H55.5936V7.536H55.4828C55.2427 7.16668 54.7996 6.31725 53.4146 6.31725C51.6234 6.31725 50.3862 7.73912 50.3862 9.9181C50.3862 12.134 51.6788 13.3897 53.3962 13.3897C54.7811 13.3897 55.2243 12.5772 55.4643 12.1894H55.5567V13.6297C55.5567 14.8116 54.7257 15.3471 53.5808 15.3471C52.2928 15.3471 51.8404 14.6685 51.5496 14.2761L50.6817 14.8854C51.1248 15.6287 51.9974 16.3073 53.5808 16.3073ZM53.5439 12.411C52.1774 12.411 51.4757 11.3769 51.4757 9.89964C51.4757 8.4593 52.1589 7.29594 53.5439 7.29594C54.8734 7.29594 55.5751 8.36697 55.5751 9.89964C55.5751 11.4692 54.855 12.411 53.5439 12.411ZM60.7271 13.6667C61.9643 13.6667 62.6106 13.0019 62.8322 12.5403H62.8876V13.5005H63.9771V8.82861C63.9771 6.57577 62.2598 6.31725 61.355 6.31725C60.2839 6.31725 59.0652 6.68657 58.5112 7.97918L59.5453 8.3485C59.7854 7.83145 60.3532 7.27748 61.3919 7.27748C62.3937 7.27748 62.8876 7.80837 62.8876 8.71782V8.75475C62.8876 9.28103 62.3521 9.23486 61.0595 9.40106C59.7438 9.57187 58.3081 9.8627 58.3081 11.4877C58.3081 12.8726 59.3791 13.6667 60.7271 13.6667ZM60.8933 12.688C60.0254 12.688 59.3976 12.3002 59.3976 11.5431C59.3976 10.7121 60.1547 10.4536 61.0041 10.3428C61.4658 10.2874 62.703 10.1582 62.8876 9.93657V10.9337C62.8876 11.8201 62.1859 12.688 60.8933 12.688ZM65.9657 13.5005H67.0552V9.06867C67.0552 8.02996 67.8123 7.29594 68.6617 7.29594C69.488 7.29594 70.0651 7.83607 70.0651 8.64395V13.5005H71.1731V8.88401C71.1731 7.96995 71.7455 7.29594 72.7427 7.29594C73.5182 7.29594 74.183 7.70681 74.183 8.75475V13.5005H75.2725V8.75475C75.2725 7.0882 74.3769 6.31725 73.112 6.31725C72.0963 6.31725 71.3531 6.78351 70.9884 7.51753H70.9145C70.5637 6.76043 69.9451 6.31725 69.0125 6.31725C68.0892 6.31725 67.406 6.76043 67.1106 7.51753H67.0182V6.40958H65.9657V13.5005ZM80.2375 13.6482C81.6778 13.6482 82.7304 12.928 83.0628 11.857L82.0102 11.5616C81.7332 12.3002 81.0916 12.6695 80.2375 12.6695C78.9587 12.6695 78.077 11.8432 78.0262 10.3244H83.1736V9.8627C83.1736 7.22208 81.604 6.31725 80.1267 6.31725C78.2063 6.31725 76.9321 7.83145 76.9321 10.0104C76.9321 12.1894 78.1878 13.6482 80.2375 13.6482ZM78.0262 9.38259C78.1001 8.27925 78.8803 7.29594 80.1267 7.29594C81.3085 7.29594 82.0656 8.18231 82.0656 9.38259H78.0262ZM85.6249 13.5744C86.082 13.5744 86.4559 13.2004 86.4559 12.7434C86.4559 12.2864 86.082 11.9124 85.6249 11.9124C85.1679 11.9124 84.794 12.2864 84.794 12.7434C84.794 13.2004 85.1679 13.5744 85.6249 13.5744ZM88.411 16.1596H89.5005V12.411H89.5928C89.8329 12.7988 90.2945 13.6482 91.661 13.6482C93.4337 13.6482 94.6709 12.2263 94.6709 9.9735C94.6709 7.73912 93.4337 6.31725 91.6425 6.31725C90.2576 6.31725 89.8329 7.16668 89.5928 7.536H89.4635V6.40958H88.411V16.1596ZM89.482 9.95503C89.482 8.36697 90.1837 7.29594 91.5133 7.29594C92.8982 7.29594 93.5814 8.4593 93.5814 9.95503C93.5814 11.4692 92.8797 12.6695 91.5133 12.6695C90.2022 12.6695 89.482 11.5616 89.482 9.95503ZM96.3329 13.5005H97.4223V9.01327C97.4223 8.05305 98.1794 7.35134 99.2135 7.35134C99.5044 7.35134 99.8044 7.40674 99.8783 7.4252V6.31725C99.7537 6.30802 99.4674 6.29878 99.3059 6.29878C98.4564 6.29878 97.7178 6.7789 97.4593 7.4806H97.3854V6.40958H96.3329V13.5005ZM103.835 13.6482C105.755 13.6482 107.048 12.1894 107.048 9.99197C107.048 7.77606 105.755 6.31725 103.835 6.31725C101.914 6.31725 100.622 7.77606 100.622 9.99197C100.622 12.1894 101.914 13.6482 103.835 13.6482ZM103.835 12.6695C102.376 12.6695 101.711 11.4138 101.711 9.99197C101.711 8.57009 102.376 7.29594 103.835 7.29594C105.293 7.29594 105.958 8.57009 105.958 9.99197C105.958 11.4138 105.293 12.6695 103.835 12.6695Z" fill="white"/>
</svg>
