<svg width="18" height="19" viewBox="0 0 18 19" fill="none" xmlns="http://www.w3.org/2000/svg">
<path d="M2.6777 14.2917H3.97928V15.5933C3.97928 17.3426 4.85395 18.2069 6.63452 18.2069H14.8189C16.589 18.2069 17.4741 17.3426 17.4741 15.5933V7.32562C17.4741 5.57629 16.589 4.71205 14.8189 4.71205H13.5173V3.41047C13.5173 1.66112 12.6322 0.796875 10.8621 0.796875H2.6777C0.89713 0.796875 0.0224609 1.66112 0.0224609 3.41047V11.6781C0.0224609 13.4275 0.89713 14.2917 2.6777 14.2917ZM2.69853 12.7923C1.9488 12.7923 1.52189 12.3862 1.52189 11.5948V3.49376C1.52189 2.70241 1.9488 2.29631 2.69853 2.29631H10.8412C11.591 2.29631 12.0179 2.70241 12.0179 3.49376V4.71205H6.63452C4.85395 4.71205 3.97928 5.57629 3.97928 7.32562V12.7923H2.69853ZM6.65533 16.7074C5.90562 16.7074 5.47871 16.3014 5.47871 15.51V7.40893C5.47871 6.61756 5.90562 6.21146 6.65533 6.21146H14.798C15.5478 6.21146 15.9747 6.61756 15.9747 7.40893V15.51C15.9747 16.3014 15.5478 16.7074 14.798 16.7074H6.65533Z" fill="white"/>
</svg>
