<svg width="15" height="15" viewBox="0 0 15 15" fill="none" xmlns="http://www.w3.org/2000/svg">
<path d="M7.01662 14.6401C7.4887 14.6401 7.87493 14.2646 7.87493 13.7925V8.3745H13.1642C13.6255 8.3745 14.0225 7.97755 14.0225 7.50547C14.0225 7.03341 13.6255 6.63643 13.1642 6.63643H7.87493V1.20768C7.87493 0.735619 7.4887 0.360107 7.01662 0.360107C6.54456 0.360107 6.14758 0.735619 6.14758 1.20768V6.63643H0.869031C0.396973 6.63643 0 7.03341 0 7.50547C0 7.97755 0.396973 8.3745 0.869031 8.3745H6.14758V13.7925C6.14758 14.2646 6.54456 14.6401 7.01662 14.6401Z" fill="white"/>
</svg>
