<svg width="14" height="18" viewBox="0 0 14 18" fill="none" xmlns="http://www.w3.org/2000/svg">
<path d="M7.00001 17.5005C7.1165 17.5005 7.32829 17.4579 7.56126 17.3303C12.3162 14.7133 14 13.5218 14 10.3728V3.96858C14 3.09624 13.587 2.83028 12.9304 2.54304C12.0726 2.1707 8.56732 0.926016 7.70952 0.628163C7.48713 0.553694 7.24357 0.500488 7.00001 0.500488C6.75643 0.500488 6.50226 0.574958 6.29048 0.628163C5.43268 0.840915 1.92738 2.18135 1.06958 2.54304C0.413012 2.81963 0 3.09624 0 3.96858V10.3728C0 13.5218 1.6838 14.7026 6.43874 17.3303C6.67171 17.4579 6.8835 17.5005 7.00001 17.5005ZM7.28593 2.09623C8.63087 2.6388 10.8865 3.43667 12.2738 3.90474C12.4539 3.96858 12.4856 4.06431 12.4856 4.2558V10.0005C12.4856 12.5856 11.3525 13.2665 7.52951 15.5643C7.26476 15.7239 7.13767 15.7558 7.01059 15.7558V2.04305C7.08473 2.04305 7.18002 2.05368 7.28593 2.09623Z" fill="white"/>
</svg>
