<svg width="15" height="19" viewBox="0 0 15 19" fill="none" xmlns="http://www.w3.org/2000/svg">
<path d="M7.49467 12.3969C7.91045 12.3969 8.26226 12.056 8.26226 11.6513V3.34416L8.1983 2.06613L8.64605 2.55604L9.81876 3.82343C9.95736 3.97254 10.1493 4.04709 10.3305 4.04709C10.7356 4.04709 11.0341 3.77017 11.0341 3.38676C11.0341 3.17377 10.9488 3.02467 10.7996 2.88621L8.04905 0.255589C7.85715 0.0638861 7.69722 0 7.49467 0C7.30277 0 7.14286 0.0638861 6.94029 0.255589L4.18977 2.88621C4.05117 3.02467 3.96589 3.17377 3.96589 3.38676C3.96589 3.77017 4.25372 4.04709 4.65885 4.04709C4.84009 4.04709 5.04264 3.97254 5.18124 3.82343L6.35395 2.55604L6.80171 2.06613L6.73774 3.34416V11.6513C6.73774 12.056 7.08955 12.3969 7.49467 12.3969ZM2.71855 19H12.2814C14.1045 19 15 18.1054 15 16.3161V8.12611C15 6.33688 14.1045 5.44225 12.2814 5.44225H9.98934V6.98654H12.2601C13.0171 6.98654 13.4648 7.4019 13.4648 8.20066V16.2416C13.4648 17.051 13.0171 17.4557 12.2601 17.4557H2.73988C1.97228 17.4557 1.53519 17.051 1.53519 16.2416V8.20066C1.53519 7.4019 1.97228 6.98654 2.73988 6.98654H5.01065V5.44225H2.71855C0.906181 5.44225 0 6.33688 0 8.12611V16.3161C0 18.1054 0.906181 19 2.71855 19Z" fill="white"/>
</svg>
