<svg width="20" height="15" viewBox="0 0 20 15" fill="none" xmlns="http://www.w3.org/2000/svg">
<path d="M2.62346 15H16.4609C18.2202 15 19.0844 14.1358 19.0844 12.4074V2.59259C19.0844 0.864204 18.2202 0 16.4609 0H2.62346C0.874483 0 0 0.864204 0 2.59259V12.4074C0 14.1358 0.874483 15 2.62346 15ZM2.64404 13.5082C1.90329 13.5082 1.48149 13.1173 1.48149 12.3354V2.66461C1.48149 1.89301 1.90329 1.49177 2.64404 1.49177H6.22427V13.5082H2.64404ZM16.4403 1.49177C17.1811 1.49177 17.6029 1.89301 17.6029 2.66461V12.3354C17.6029 13.1173 17.1811 13.5082 16.4403 13.5082H7.67489V1.49177H16.4403ZM4.67078 4.47532C4.94857 4.47532 5.18518 4.2284 5.18518 3.9609C5.18518 3.69341 4.94857 3.46708 4.67078 3.46708H3.05556C2.78806 3.46708 2.55144 3.69341 2.55144 3.9609C2.55144 4.2284 2.78806 4.47532 3.05556 4.47532H4.67078ZM4.67078 6.53293C4.94857 6.53293 5.18518 6.29629 5.18518 6.01853C5.18518 5.75102 4.94857 5.52469 4.67078 5.52469H3.05556C2.78806 5.52469 2.55144 5.75102 2.55144 6.01853C2.55144 6.29629 2.78806 6.53293 3.05556 6.53293H4.67078ZM4.67078 8.59054C4.94857 8.59054 5.18518 8.35392 5.18518 8.08642C5.18518 7.81893 4.94857 7.5926 4.67078 7.5926H3.05556C2.78806 7.5926 2.55144 7.81893 2.55144 8.08642C2.55144 8.35392 2.78806 8.59054 3.05556 8.59054H4.67078Z" fill="white"/>
</svg>
