<svg width="54" height="54" viewBox="0 0 54 54" fill="none" xmlns="http://www.w3.org/2000/svg">
<rect width="54" height="54" rx="27" fill="url(#paint0_linear_1906_30920)"/>
<g clip-path="url(#clip0_1906_30920)">
<path d="M30.5572 22.3378C29.7489 21.5294 28.4337 21.5294 27.6254 22.3378C26.8171 23.1461 26.8171 24.4613 27.6254 25.2696C28.4337 26.0779 29.7489 26.0779 30.5572 25.2696C31.3655 24.4613 31.3656 23.1461 30.5572 22.3378ZM28.3152 24.5797C27.8873 24.1518 27.8873 23.4555 28.3152 23.0276C28.7432 22.5997 29.4395 22.5997 29.8674 23.0276C30.2953 23.4555 30.2953 24.1518 29.8674 24.5797C29.4395 25.0077 28.7432 25.0077 28.3152 24.5797Z" fill="white"/>
<path fill-rule="evenodd" clip-rule="evenodd" d="M30.3535 31.349C30.5772 30.2886 30.3688 29.49 30.2248 29.1083C31.2697 28.3457 32.2192 27.491 32.8516 26.583C35.1489 23.2849 34.4059 19.1802 34.3732 19.0071C34.3265 18.7607 34.1338 18.568 33.8874 18.5213C33.7143 18.4886 29.6096 17.7457 26.3116 20.043C25.3924 20.6832 24.5278 21.6485 23.7581 22.7087C23.3453 22.57 22.5935 22.4121 21.6217 22.6171C19.7952 23.0024 18.1021 24.4534 16.5897 26.9298C16.4849 27.1012 16.4714 27.3132 16.5533 27.4966C16.5841 27.5655 16.6269 27.6269 16.6788 27.6788C16.7651 27.7651 16.8765 27.8247 16.9998 27.8474L20.5509 28.4997C20.4669 28.6953 20.4165 28.8192 20.4033 28.852C20.3118 29.0788 20.3647 29.3383 20.5376 29.5112L21.5293 30.5029L22.3916 31.3652L23.3833 32.3569C23.5562 32.5298 23.8157 32.5827 24.0426 32.4912C24.0784 32.4767 24.2237 32.4176 24.4525 32.3188L25.1232 35.9708C25.1459 36.0941 25.2056 36.2056 25.2918 36.2918C25.3437 36.3437 25.4052 36.3865 25.4741 36.4173C25.6574 36.4992 25.8693 36.4857 26.0408 36.381C28.5172 34.8685 29.9682 33.1755 30.3535 31.349ZM33.2063 22.1314C33.3355 21.0743 33.2839 20.1685 33.2316 19.6629C32.7262 19.6106 31.8204 19.559 30.7632 19.6882L33.2063 22.1314ZM23.0311 23.7772C22.1565 23.6199 20.2487 23.7428 18.1194 26.8132L21.069 27.355C21.5289 26.3847 22.2049 25.0679 23.0311 23.7772ZM23.2539 30.5029L23.9549 31.2038C25.3204 30.6105 30.0955 28.406 31.8509 25.8859C32.4267 25.0593 32.7804 24.1602 32.9932 23.2978L29.5967 19.9013C28.7343 20.1141 27.8352 20.4678 27.0085 21.0436C24.4855 22.801 22.2832 27.5744 21.6905 28.9395L22.3916 29.6406L23.2539 30.5029ZM25.5968 31.7985L26.1575 34.8513C29.3645 32.6272 29.356 30.6448 29.1711 29.8289C27.8886 30.6546 26.5748 31.3328 25.5968 31.7985Z" fill="white"/>
</g>
<defs>
<linearGradient id="paint0_linear_1906_30920" x1="-29.7857" y1="-2.74658e-05" x2="46.1188" y2="3.3146" gradientUnits="userSpaceOnUse">
<stop stop-color="#F7BD50"/>
<stop offset="1" stop-color="#DA7703"/>
</linearGradient>
<clipPath id="clip0_1906_30920">
<rect width="22" height="22" fill="white" transform="translate(16 16)"/>
</clipPath>
</defs>
</svg>
