<svg width="76" height="25" viewBox="0 0 76 25" fill="none" xmlns="http://www.w3.org/2000/svg">
<g clip-path="url(#clip0_1845_32730)">
<path d="M37.2349 13.6885H35.0903C34.2347 13.6885 33.5386 14.4183 33.5386 15.3152V23.3689C33.5386 24.3115 34.1913 24.9955 35.0903 24.9955H37.2349C38.0906 24.9955 38.7867 24.2658 38.7867 23.3689V21.2427H37.1266V23.0388C37.1266 23.2358 36.9736 23.3961 36.7858 23.3961H35.5933C35.4054 23.3961 35.2528 23.2358 35.2528 23.0388V15.6111C35.2528 15.414 35.4054 15.2535 35.5933 15.2535H36.7858C36.9736 15.2535 37.1266 15.414 37.1266 15.6111V17.5285H38.7867V15.3155C38.7867 14.4183 38.0906 13.6885 37.2349 13.6885Z" fill="white"/>
<path d="M44.3048 15.939H39.4387V17.5291H41.0416V24.9996H42.7019V17.5291H44.3048V15.939Z" fill="white"/>
<path d="M17.489 21.0293H17.3266L17.3258 15.939H15.6665V24.999H17.1268L18.9467 20.1439H19.109V24.999H20.7692V15.939H19.2894L17.489 21.0293Z" fill="white"/>
<path d="M10.324 13.6875L8.29663 24.9976H10.0532L11.442 15.5279H11.6044L13.0541 24.9976H14.8158L12.8046 13.6875H10.324Z" fill="white"/>
<path d="M45.9768 15.939L44.1677 24.9996H45.8371L46.0432 23.8407H48.265L48.4688 24.9996H50.1432L48.3445 15.939H45.9768ZM46.311 22.3372L47.0822 17.5298H47.2389L48.0008 22.3372H46.311Z" fill="white"/>
<path d="M27.122 15.939L25.313 24.9996H26.9823L27.1885 23.8407H29.4102L29.614 24.9996H31.2884L29.4898 15.939H27.122ZM27.4561 22.3372L28.2272 17.5298H28.3839L29.1458 22.3372H27.4561Z" fill="white"/>
<path d="M25.7711 15.939H22.01V24.9993H23.6703V17.5298H25.7711V15.939Z" fill="white"/>
<path d="M60.2304 15.939H58.3953C57.5398 15.939 56.8438 16.6687 56.8438 17.5657V23.3733C56.8438 24.27 57.5398 24.9996 58.3953 24.9996H60.2304C61.0859 24.9996 61.7819 24.27 61.7819 23.3733V17.5657C61.7819 16.6687 61.0859 15.939 60.2304 15.939ZM60.1221 23.0432C60.1221 23.2401 59.9694 23.4004 59.7815 23.4004H58.8448C58.6568 23.4004 58.504 23.2401 58.504 23.0432V17.8955C58.504 17.6986 58.657 17.5381 58.8448 17.5381H59.7815C59.9694 17.5381 60.1221 17.7012 60.1221 17.9017V23.0432Z" fill="white"/>
<path d="M0.73291 0V25H5.32426V4.56251H70.6757V25H75.2671V0H0.73291Z" fill="white"/>
<path d="M68.2476 15.939H66.4573L64.9571 19.7844H64.6691V15.939H63.0227V24.9998H64.6691V21.2882H65.0225L66.5472 24.9998H68.3393L66.4167 20.4558L68.2476 15.939Z" fill="white"/>
<path d="M54.643 20.5716V20.4025H54.6414C55.2832 20.2625 55.767 19.6635 55.767 18.9475V18.9473V17.5596C55.767 16.666 55.071 15.939 54.2154 15.939H50.9937V24.999H54.2922C55.1479 24.999 55.8441 24.2694 55.8441 23.3726V22.0919V22.0915C55.8441 21.338 55.3265 20.7096 54.643 20.5716ZM52.6538 17.5322H53.7657C53.9538 17.5322 54.1065 17.6925 54.1065 17.8896V19.429C54.1065 19.626 53.9535 19.7862 53.7657 19.7862H52.6538V17.5322ZM54.1841 23.0426C54.1841 23.2395 54.0311 23.3998 53.8433 23.3998H52.6536V21.2898H53.8433C54.0311 21.2898 54.1841 21.4501 54.1841 21.6471V23.0426Z" fill="white"/>
</g>
<defs>
<clipPath id="clip0_1845_32730">
<rect width="76" height="25" fill="white"/>
</clipPath>
</defs>
</svg>
