<svg width="64" height="64" viewBox="0 0 64 64" fill="none" xmlns="http://www.w3.org/2000/svg">
<circle opacity="0.2" cx="32" cy="32" r="31.5" stroke="white"/>
<path fill-rule="evenodd" clip-rule="evenodd" d="M48.7796 31.5121H45.0611C44.3939 31.5121 43.8403 32.0672 43.8403 32.7361V35.9383C43.8403 36.6072 44.3939 37.1623 45.0611 37.1623H48.7796C49.4464 37.1623 50 36.6072 50 35.9383V32.7361C50 32.0672 49.4464 31.5121 48.7796 31.5121ZM35.1404 27.2995H34.6862V27.2141C34.814 27.2141 34.8849 27.1856 34.8281 27.086C34.743 26.9152 35.112 26.9294 35.1688 26.9579C35.2539 27.029 35.1972 27.2141 35.1404 27.2995ZM34.5159 27.4133H35.0694C35.0126 27.5129 34.8424 27.826 34.7288 27.826C34.672 27.7549 34.5301 27.5556 34.5159 27.4133ZM45.0894 32.7361H48.7653V35.9383H45.0894V32.7361ZM37.5389 32.7361H42.6482C42.6482 32.0672 42.0946 31.5121 41.4278 31.5121H37.4964C36.8293 31.5121 36.2758 32.0672 36.2758 32.7361V35.9383C36.2758 36.6072 36.8293 37.1623 37.4964 37.1623H41.4278C42.0946 37.1623 42.6482 36.6072 42.6482 35.9383V33.8319H38.504C38.504 34.3585 38.9298 34.7713 39.4407 34.7713H41.4844V35.9383H37.5389V32.7361ZM21.5723 32.7361H26.4545C26.4545 32.0672 25.901 31.5121 25.234 31.5121H21.4588C20.7917 31.5121 20.2382 32.0672 20.2382 32.7361V33.7323C20.2382 34.4012 20.7917 34.9563 21.4588 34.9563H25.2482V35.9525H20.2382C20.2382 36.6214 20.7917 37.1765 21.4588 37.1765H25.3617C26.0288 37.1765 26.5823 36.6214 26.5823 35.9525V34.9563C26.5823 34.2874 26.0288 33.7323 25.3617 33.7323H21.5723V32.7361ZM14.547 32.7361H19.1596C19.1596 32.0672 18.6061 31.5121 17.939 31.5121H14.2206C13.5535 31.5121 13 32.0672 13 32.7361V35.9383C13 36.6072 13.5535 37.1623 14.2206 37.1623H17.939C18.6061 37.1623 19.1596 36.6072 19.1596 35.9383H14.547V32.7361ZM36.3042 26.7444C36.2758 26.7586 36.2474 26.7729 36.219 26.7729C36.0487 27.0148 36.1481 26.9863 35.8358 27.1998C35.8358 27.6125 35.85 27.6553 35.9494 28.0253C35.9494 28.0395 35.9494 28.0395 35.9494 28.0537C35.9494 28.068 35.9352 28.068 35.9352 28.068C35.8642 28.0822 35.7507 28.1107 35.6939 28.1249C35.6939 28.1391 35.7223 28.3669 35.6939 28.5519C35.6371 28.8223 34.9843 29.42 34.8423 29.4627C34.6295 29.5054 34.3882 29.3204 34.005 29.1496C33.9056 29.1069 33.5508 28.8792 33.3663 28.8081C33.2102 28.7511 33.0683 29.1211 33.2528 29.2208C33.3379 29.2635 33.4799 29.3346 33.5224 29.4485C33.6502 29.7901 33.5083 31.0994 33.2386 31.3556C33.1108 31.3556 32.9973 31.2417 32.9122 31.2702C32.7419 31.3698 32.8554 31.8822 32.9122 31.9675C33.9482 33.0349 33.8347 33.8319 34.2746 34.4297C34.4733 34.4297 34.3456 34.6432 34.5017 34.8993C34.5443 35.0274 34.4875 35.2409 34.4733 35.3263C34.4733 35.4402 34.4733 35.5398 34.4733 35.6537C34.4592 35.6821 34.4449 35.7248 34.4449 35.7533C34.4449 35.8529 34.4449 35.9383 34.4449 36.0379C34.4166 36.1802 34.374 36.3653 34.3456 36.4933C34.2888 36.7637 34.5159 36.9772 34.374 37.2334C34.374 37.3899 34.374 37.3615 34.2746 37.4896C34.2746 37.7315 34.2179 38.2581 34.2746 38.4431C34.3172 38.5712 34.7714 39.112 34.8991 39.169C35.183 39.2971 35.5946 39.2686 35.4526 39.7098C34.6295 39.9659 34.1185 39.5675 33.6786 39.5675L33.6644 39.6386C33.3805 39.6386 33.1676 39.5675 33.0967 39.5532C33.0967 39.4821 33.1818 38.8985 33.2244 38.7989C33.2528 38.7562 33.2812 38.6993 33.3237 38.6566C33.3521 38.557 33.2954 37.8311 33.2812 37.6319C33.1108 37.5038 33.0683 37.1053 33.0683 36.8918C33.0115 36.7211 33.0115 36.5218 33.0115 36.3083C33.0115 36.2087 32.9405 36.0521 32.9831 35.9241C33.0115 35.8387 33.1108 35.796 33.1251 35.7248C33.1251 35.6394 33.1251 35.5683 33.1251 35.4829C33.1676 35.2267 33.1534 35.1128 32.9973 34.9563C32.6141 34.9563 32.5573 34.9847 32.3587 34.6574C32.2877 34.5578 31.7626 33.7039 31.7058 33.6896C31.2658 33.4904 31.351 33.5758 31.1523 33.22C31.1381 33.22 31.0246 33.2627 30.9252 33.4192C30.7691 33.6612 30.4852 34.4297 30.4001 34.7001C30.3575 34.8567 30.4001 35.0132 30.3291 35.1413C30.2865 35.2267 30.1162 35.2551 30.0878 35.3263C29.9317 35.6109 30.0453 35.5825 29.7472 35.7817C29.6904 35.8529 29.6904 35.9525 29.6479 36.0379C29.6195 36.0664 29.6053 36.0948 29.5769 36.1375C29.5201 36.2514 29.6337 36.4364 29.6053 36.5076C29.5485 36.6783 29.4917 36.8634 29.4208 37.0199C29.2789 37.3473 29.3072 37.7742 29.1653 37.9735C29.0944 38.0731 28.924 37.9735 28.7963 38.0589C28.7821 38.13 28.5834 38.5855 28.5408 38.7135C28.5408 38.9555 28.5408 39.1974 28.5408 39.4536C28.5834 39.5817 28.6828 39.6955 28.6544 39.8521C28.626 40.0229 28.0441 40.0229 27.7319 39.9659C27.519 39.9375 27.4622 39.7809 27.4622 39.5959C27.4622 39.3824 27.888 38.0019 27.8738 37.9165C27.5474 37.5465 27.959 37.1765 28.0867 36.8349C28.1435 36.6641 28.1151 36.4364 28.1718 36.2799C28.2854 36.0664 28.3989 35.8671 28.5125 35.6537C28.7254 35.4544 28.626 35.4402 28.7395 35.2694C28.8389 35.1128 28.9524 35.0132 28.8815 34.7713C28.7395 34.3016 29.0376 33.6327 29.066 33.1346C29.0092 33.0777 28.8389 33.0919 28.8105 32.9496C28.7679 32.6365 28.924 32.0957 29.0234 32.0529C29.066 32.0245 29.1227 32.0529 29.1511 32.0245C29.1511 31.7968 28.924 30.5159 29.0944 30.4447C29.2079 30.402 29.4492 30.3878 29.4917 30.3593C29.4917 30.3024 29.4492 30.1885 29.4066 30.1885C29.3356 30.1743 29.1795 30.1459 29.0518 30.1174C28.6686 30.032 29.0234 28.5234 29.0234 28.5092C29.1227 28.3669 29.6195 28.5519 29.6763 28.3241C29.8324 28.1107 29.5485 27.3137 30.102 26.3174C30.2865 25.9901 30.6555 25.6485 31.0671 25.7909C31.209 25.8336 31.1239 26.047 31.3652 25.8193C31.3652 25.6912 31.3084 25.5916 31.28 25.4778C30.8684 24.2538 32.2593 23.5849 33.2386 24.2823C33.3521 24.325 33.4089 24.3534 33.494 24.4103C33.5508 24.695 33.8205 25.1789 33.5508 25.5062C33.4373 25.5347 33.2954 25.5916 33.2102 25.6485C33.2102 25.7624 33.2244 25.862 33.2386 25.9332C33.2528 25.9901 33.2954 26.0186 33.196 26.0613C33.1818 26.0613 33.196 26.104 33.196 26.1182C33.4231 26.1609 33.6644 26.0755 33.8205 26.0186H34.005V25.7909H34.0901V25.6058H34.1753V25.9189H34.4024V26.0186H37.766V26.1894H37.908V25.5489H38.0357V26.0755H38.3195V26.3744H39.2137V26.289H39.3556V26.3317H39.7814V26.5736H39.3556V26.6163H39.2137V26.5309H38.3195V26.6163C38.1918 26.6163 38.0641 26.6163 37.9221 26.6163V26.5594H37.7518V26.7444H36.3042Z" fill="white"/>
</svg>
