<svg width="89" height="17" viewBox="0 0 89 17" fill="none" xmlns="http://www.w3.org/2000/svg">
<path fill-rule="evenodd" clip-rule="evenodd" d="M42.5556 17H36.978L37.9443 11.5978H43.5219L42.5556 17ZM9.13767 6.50427L8.65101 9.39177H11.8807L11.4932 11.552C11.4324 11.8925 11.1971 13.0684 10.8787 13.3351C10.5928 13.5325 10.2457 13.6271 9.89637 13.6029H8.22139C7.28369 13.6029 6.46253 13.3849 6.01645 12.4379C5.57885 11.4421 5.91464 9.42485 6.07941 8.50239C6.24954 7.55542 6.57551 5.86687 7.33638 4.91993C7.72363 4.45345 8.21812 4.08276 8.77974 3.83799C9.3413 3.59323 9.95412 3.4813 10.5684 3.51129H16.9055L19.1315 0.00385394H8.6827C8.2152 0.00385394 5.92 0.0278325 4.13967 1.16879C1.61231 2.77144 0.830441 5.9035 0.348184 8.59915C-0.0514603 10.8327 -0.429226 13.9167 1.17114 15.5652C2.10573 16.5365 3.84541 16.9982 5.24931 16.9982H13.4016C14.0978 17.0037 14.7789 16.8004 15.3529 16.4157C15.9948 15.9347 16.4209 15.2298 16.542 14.4486L17.4468 9.39135L17.503 9.07302L17.8339 7.22802L17.9629 6.50427H9.13767ZM27.9407 6.50427L27.4544 9.39177H30.6837L30.2975 11.5515C30.2367 11.892 30.0014 13.0679 29.683 13.3347C29.3971 13.5321 29.05 13.6267 28.7006 13.6024H27.0244C26.0867 13.6024 25.265 13.3844 24.819 12.4375C24.3809 11.4417 24.7176 9.42443 24.8824 8.50189C25.0516 7.55499 25.378 5.86644 26.1389 4.9195C26.5261 4.45301 27.0207 4.08232 27.5822 3.83756C28.1439 3.59279 28.7567 3.48086 29.3709 3.51085H35.7085L37.9349 0.00341797H27.4861C27.0181 0.00341797 24.7234 0.0273966 22.9426 1.16835C20.4148 2.771 19.6334 5.90306 19.1512 8.59872C18.7515 10.8327 18.3724 13.9176 19.9737 15.5665C20.9082 16.5379 22.6479 16.9996 24.0523 16.9996H32.2046C32.9007 17.005 33.5819 16.8016 34.1559 16.4171C34.7976 15.9359 35.2237 15.231 35.345 14.45L36.2501 9.39262L36.3064 9.07437L36.6369 7.22887L36.7659 6.50514H27.9407V6.50427Z" fill="#FF7D02"/>
<path fill-rule="evenodd" clip-rule="evenodd" d="M58.483 16.9991C57.7685 16.9991 57.063 16.9503 56.4937 16.4167C55.8239 15.7628 55.9445 15.0813 56.0882 14.2804L58.1722 2.62545C58.2619 1.86473 58.6516 1.16805 59.2586 0.683176C59.8946 0.213798 60.6772 -0.0264807 61.4739 0.00305184H72.663L70.4375 3.50656H64.7134C64.3934 3.49492 64.0774 3.57953 63.8083 3.74897C63.5644 3.96055 63.4145 4.25657 63.3904 4.57427L63.0438 6.50347H69.9294L69.4141 9.39094H62.5285L61.927 12.7519C61.8934 12.8596 61.8881 12.9738 61.9115 13.084C61.9349 13.1943 61.9863 13.297 62.061 13.3828C62.3597 13.5807 62.7249 13.6588 63.0809 13.6007H71.0738L70.4661 16.9983H58.483V16.9991ZM74.8671 16.9991L77.2837 3.48782H73.1247L73.7476 0H88.4305L86.2081 3.48782H82.8488L80.4326 16.9974H74.8671V16.9991ZM54.5625 7.40768C55.3206 6.71241 55.7949 5.77236 55.8975 4.76174C56.0972 3.64433 56.2521 2.09051 55.4649 1.11872C54.6879 0.130793 53.2488 0.00959147 52.04 0.00217988H40.0234L39.5353 2.7375C39.5353 2.74055 39.5353 2.74317 39.5353 2.74665L38.3467 9.39094H48.3856C48.6123 9.35708 48.8442 9.38435 49.0562 9.46978C49.2682 9.5552 49.4523 9.6956 49.5885 9.87572C49.6966 10.0889 49.7303 10.3306 49.6846 10.5642C49.6846 10.5642 49.3831 12.2644 49.3822 12.2693C49.3078 12.6379 49.1363 12.9813 48.8843 13.2655C48.7642 13.3866 48.4048 13.6055 47.3456 13.6055H45.722L43.5787 16.9987H49.205C50.6821 16.9987 51.9632 16.9987 53.2836 15.8094C54.5423 14.692 54.7616 13.3318 54.9567 12.2396C55.1438 11.1954 55.3139 10.1033 54.5588 9.23135C54.0683 8.71392 53.3926 8.40069 52.6718 8.35678L52.6893 8.26002C53.4001 8.211 54.0676 7.9084 54.5647 7.40987L54.5625 7.40768ZM50.4204 4.5529C50.4204 4.56468 50.4137 4.57994 50.411 4.59258L50.294 5.23565L50.2784 5.32284C50.2757 5.33461 50.2735 5.34639 50.27 5.35859C50.2181 5.60231 50.1197 5.83435 49.9801 6.04264C49.7989 6.22308 49.5765 6.359 49.3311 6.43925C49.0856 6.51951 48.8242 6.54182 48.5682 6.50434H44.4298L44.557 5.79283L44.678 5.11924C44.6897 5.05253 44.6999 4.98845 44.7129 4.92392L44.8053 4.40904C44.8075 4.27025 44.8399 4.13352 44.9006 4.00797C44.9612 3.88241 45.0484 3.77093 45.1567 3.68095C45.372 3.52561 45.6397 3.45594 45.9056 3.48607H49.0826C49.4523 3.48607 49.994 3.48607 50.2784 3.82657C50.422 4.04176 50.4724 4.3037 50.4186 4.55509L50.4204 4.5529Z" fill="white"/>
</svg>
