<svg width="74" height="25" viewBox="0 0 74 25" fill="none" xmlns="http://www.w3.org/2000/svg">
<path d="M53.4365 11.5617C53.3949 11.5416 53.333 11.5012 53.333 11.4407C53.333 11.3801 53.3743 11.3398 53.4365 11.3196C55.0295 10.2906 55.919 8.75707 55.919 6.79982C55.919 3.06699 52.6295 0 47.4782 0C42.3273 0 39.0378 3.06699 39.0378 6.79982C39.0378 8.75707 39.9272 10.2906 41.5203 11.3196C41.5825 11.36 41.6237 11.3801 41.6237 11.4407C41.6237 11.5012 41.5615 11.5416 41.5203 11.5617C39.8444 12.389 38.6862 13.6199 38.1483 15.1937C38.1483 15.1937 38.1067 15.3148 38.0242 15.3148C37.9414 15.3148 37.8998 15.1937 37.8998 15.1937C37.3829 13.6199 36.2242 12.389 34.5278 11.5617C34.4864 11.5416 34.4244 11.5012 34.4244 11.4407C34.4244 11.3801 34.4657 11.3398 34.5278 11.3196C36.1208 10.2906 37.0103 8.75707 37.0103 6.79982C37.0103 3.06699 33.721 0 28.5491 0C23.3978 0 20.1085 3.06699 20.1085 6.79982C20.1085 8.75707 20.998 10.2906 22.591 11.3196C22.6531 11.36 22.6944 11.3801 22.6944 11.4407C22.6944 11.5012 22.6324 11.5416 22.591 11.5617C20.9153 12.389 19.7568 13.6199 19.2396 15.1937C19.2396 15.1937 19.2189 15.3148 19.1155 15.3148C19.012 15.3148 18.9913 15.1937 18.9913 15.1937C18.4742 13.6199 17.2949 12.389 15.6192 11.5617C15.5778 11.5416 15.5158 11.5012 15.5158 11.4407C15.5158 11.3801 15.5572 11.3398 15.6192 11.3196C17.2122 10.2906 18.1018 8.75707 18.1018 6.79982C18.0811 3.06699 14.8124 0 9.64047 0C4.48922 0 1.19989 3.06699 1.19989 6.79982C1.19989 8.75707 2.08946 10.2906 3.6824 11.3196C3.74447 11.36 3.78586 11.3801 3.78586 11.4407C3.78586 11.5012 3.72378 11.5416 3.6824 11.5617C1.3447 12.7119 0 14.6691 0 17.2115C0 21.4689 3.74447 25 9.64047 25C14.5435 25 17.9569 22.5585 18.9707 19.2898C18.9707 19.2898 19.012 19.1687 19.0948 19.1687C19.1775 19.1687 19.2189 19.2898 19.2189 19.2898C20.2326 22.5585 23.6461 25 28.5491 25C33.4521 25 36.8656 22.5585 37.8792 19.2898C37.8792 19.2898 37.9208 19.1687 38.0032 19.1687C38.0861 19.1687 38.1273 19.2898 38.1273 19.2898C39.1412 22.5585 42.5548 25 47.4576 25C53.3536 25 57.0982 21.4689 57.0982 17.2115C57.1188 14.6691 55.7743 12.7119 53.4365 11.5617ZM9.64047 9.80629C7.5924 9.80629 6.28908 8.69654 6.28908 7.12268C6.28908 5.569 7.5924 4.43907 9.64047 4.43907C11.6886 4.43907 12.9919 5.54882 12.9919 7.12268C12.9919 8.67636 11.6886 9.80629 9.64047 9.80629ZM28.5491 20.0969C26.0872 20.0969 24.5149 18.745 24.5149 16.8886C24.5149 15.0121 26.0872 13.6804 28.5491 13.6804C31.0109 13.6804 32.5832 15.0323 32.5832 16.8886C32.5832 18.7651 31.0109 20.0969 28.5491 20.0969ZM47.4576 9.80629C45.4095 9.80629 44.1062 8.69654 44.1062 7.12268C44.1062 5.569 45.4095 4.43907 47.4576 4.43907C49.5056 4.43907 50.8089 5.54882 50.8089 7.12268C50.8299 8.67636 49.5263 9.80629 47.4576 9.80629Z" fill="white"/>
<path d="M65.9936 0C61.5665 0 57.967 3.5109 57.967 7.82889C57.967 12.1469 61.5665 15.6578 65.9936 15.6578C70.4211 15.6578 74.0206 12.1469 74.0206 7.82889C74 3.5109 70.4211 0 65.9936 0ZM64.6285 7.00161C64.6285 7.00161 64.3594 6.84018 63.8009 6.84018C63.3252 6.84018 62.8286 7.04196 62.8286 7.76836C62.8286 8.27279 62.8286 10.3309 62.8286 10.3309H61.0287C61.0287 10.3309 61.0287 8.73689 61.0287 7.74818C61.0287 5.38739 62.9114 5.16546 63.7181 5.16546C64.2975 5.16546 64.6491 5.32689 64.6491 5.32689V7.00161H64.6285ZM70.7521 9.74575C70.7521 9.74575 69.7176 10.4923 68.2074 10.4923C66.3662 10.4923 65.5386 9.60454 65.5386 8.0105V5.18564H67.3592V8.03068C67.3592 8.69654 67.6283 8.93864 68.2074 8.93864C68.7453 8.93864 68.9316 8.77725 68.9316 8.77725V5.18564H70.7521V9.74575Z" fill="white"/>
<path d="M5.60645 16.8884C5.60645 18.7649 7.17874 20.0966 9.64055 20.0966C12.1024 20.0966 13.6747 18.7447 13.6747 16.8884C13.6747 15.0119 12.1024 13.6802 9.64055 13.6802C7.17874 13.6802 5.60645 15.0119 5.60645 16.8884Z" fill="#94D60A"/>
<path d="M43.4443 16.8884C43.4443 18.7649 45.0164 20.0966 47.4783 20.0966C49.9401 20.0966 51.5126 18.7447 51.5126 16.8884C51.5126 15.0119 49.9401 13.6802 47.4783 13.6802C45.0164 13.6802 43.4443 15.0119 43.4443 16.8884Z" fill="#F2CD00"/>
<path d="M28.5492 9.80618C26.5011 9.80618 25.1978 8.69643 25.1978 7.12257C25.1978 5.56889 26.5011 4.43896 28.5492 4.43896C30.5973 4.43896 31.9006 5.54871 31.9006 7.12257C31.9213 8.67625 30.5973 9.80618 28.5492 9.80618Z" fill="#FF0000"/>
</svg>
