<svg width="76" height="19" viewBox="0 0 76 19" fill="none" xmlns="http://www.w3.org/2000/svg">
<path d="M4.43664 0.41176L4.59181 0.31676H9.1795C9.26484 0.31083 9.35014 0.328858 9.42579 0.368811C9.50143 0.408765 9.5644 0.469055 9.60762 0.542884C9.65083 0.616714 9.67255 0.701147 9.67035 0.786664C9.66814 0.872181 9.64209 0.955382 9.59513 1.02688L6.32318 13.179C6.29928 13.238 6.28971 13.3019 6.29523 13.3654C6.30076 13.4289 6.32123 13.4901 6.35497 13.5442C6.38871 13.5982 6.43477 13.6435 6.48937 13.6764C6.54397 13.7092 6.60557 13.7287 6.66913 13.7331H15.4455C15.7741 13.6809 16.1026 14.0973 15.8968 14.3902L15.2215 16.884C15.1692 17.1436 14.8755 17.2822 14.6333 17.2299H0.455356C0.19569 17.2473 -0.0813932 16.9877 0.022315 16.7106L4.14293 1.26676C4.24585 0.989677 4.2221 0.643718 4.43743 0.419676L4.43664 0.41176ZM21.212 0.999968C21.2346 0.823017 21.3175 0.659251 21.4467 0.536251C21.5759 0.413251 21.7435 0.338532 21.9214 0.324676H35.2847C35.8214 0.324676 35.918 1.01738 35.614 1.36334C34.9807 2.09009 34.4368 2.90393 33.9515 3.73518L33.7955 3.81434H26.2668C26.0071 3.76209 25.7301 3.91726 25.6612 4.17851L25.073 6.44663C25.0041 6.7063 25.2978 6.98339 25.5242 7.0008H32.137C32.4655 6.93193 32.8471 7.12193 32.8812 7.50272L32.1885 10.082C32.1362 10.3765 31.7902 10.4976 31.5314 10.462C29.1089 10.462 26.6666 10.4446 24.2433 10.4794C24.1614 10.5355 24.0806 10.5933 24.0011 10.6528C23.6891 11.5529 23.4817 12.4878 23.2395 13.388L23.568 13.8036H32.7751C33.0522 13.7513 33.2944 13.9778 33.3807 14.2192L32.6706 16.8507C32.6183 17.1104 32.3587 17.2663 32.099 17.2489C27.1479 17.2315 22.1794 17.2838 17.2284 17.2315C17.1595 17.1626 17.0209 17.0067 16.9513 16.937L21.2104 0.992843L21.212 0.999968ZM58.4678 0.827385C58.4986 0.681819 58.5796 0.551742 58.6967 0.459966C58.8139 0.368189 58.9595 0.320573 59.1082 0.325468L62.8473 0.342885L63.1244 0.550301L67.8846 9.51751L68.0588 9.41459L70.5494 0.31676L75.3627 0.351593C75.415 0.420468 75.5369 0.541593 75.5875 0.61126L71.3284 16.6583C71.2761 17.0043 70.9484 17.264 70.6016 17.2125C69.4418 17.1951 68.2821 17.2125 67.1223 17.2125C66.7929 17.1951 66.6378 16.8325 66.4992 16.5895L61.7896 8.37593L61.5996 8.55009L59.3141 17.1365L59.1067 17.2157C57.5138 17.1983 55.9044 17.2157 54.3115 17.1808C54.2357 17.0843 54.1549 16.9918 54.0693 16.9038C56.0429 14.3942 57.046 11.0874 56.563 7.91834L58.467 0.82026L58.4678 0.827385ZM43.647 0.0824264C44.5812 -0.0561153 45.551 0.00325976 46.4859 0.11726L48.8229 4.42789L53.375 5.25914L53.4098 5.27655C53.8429 6.17668 54.154 7.12905 54.2925 8.13288L51.1417 11.5426L51.661 16.1477C50.9858 16.8919 50.1379 17.4809 49.2544 17.948L44.9612 15.9229L40.6331 18.0176C39.7971 17.5794 39.023 17.032 38.331 16.39L38.8852 11.5426L35.5095 7.99355C35.6306 7.07522 35.9425 6.1933 36.3407 5.34464L41.2744 4.37484L43.647 0.0824264Z" fill="white"/>
</svg>
