<svg width="321" height="284" viewBox="0 0 321 284" fill="none" xmlns="http://www.w3.org/2000/svg">
<g clip-path="url(#clip0_659_45779)">
<path fill-rule="evenodd" clip-rule="evenodd" d="M170.954 70.3719C202.749 64.46 237.174 63.6974 267.17 75.7273C278.084 80.1033 287.377 86.6631 296.95 93.2932C297.622 93.7571 297.791 94.6831 297.326 95.3588C296.857 96.0333 295.931 96.2024 295.257 95.7336C285.867 89.2328 276.768 82.7765 266.064 78.4851C236.494 66.6258 202.546 67.4768 171.218 73.3425L171.27 73.8317C171.842 79.1418 168.368 85.4986 162.684 91.5106C154.538 100.129 141.964 108.155 131.879 111.572C127.347 113.107 123.287 113.701 120.283 113.128C117.94 112.683 116.173 111.553 115.116 109.723C112.868 105.823 114.564 100.959 118.92 96.092C128.028 85.9101 148.552 75.2605 158.562 72.953C161.688 72.2336 164.851 71.5547 168.041 70.9299C167.965 69.9932 167.888 69.0762 167.772 68.1881C167.435 65.6584 166.771 63.3271 164.722 61.2135C161.524 57.9231 157.013 56.0741 152.109 55.072C144.455 53.5134 135.838 54.0436 129.374 54.8018C93.3781 59.0263 69.7958 78.9166 53.382 101.232C36.8094 123.771 27.5024 148.791 20.1728 162.955C19.7972 163.684 18.9007 163.966 18.1714 163.59C17.4421 163.215 17.157 162.317 17.5363 161.589C24.9121 147.333 34.3055 122.16 50.9917 99.4725C67.8367 76.5611 92.0763 56.1887 129.026 51.8493C135.759 51.059 144.731 50.5367 152.701 52.1604C158.218 53.2868 163.255 55.4415 166.854 59.1451C170.082 62.4699 170.588 66.1927 170.954 70.3719ZM168.29 73.908L168.318 74.1514C168.819 78.7931 165.496 84.2124 160.525 89.4685C152.697 97.7504 140.62 105.472 130.924 108.756C127.6 109.884 124.573 110.488 122.123 110.362C120.103 110.255 118.511 109.662 117.693 108.238C116.914 106.898 116.918 105.399 117.448 103.823C118.067 101.973 119.374 100.04 121.132 98.073C129.885 88.29 149.61 78.0644 159.229 75.8483C162.217 75.1622 165.238 74.5117 168.29 73.908Z" fill="url(#paint0_linear_659_45779)"/>
<path fill-rule="evenodd" clip-rule="evenodd" d="M299.124 98.826C299.197 98.1798 299.031 97.2834 298.84 96.3217C298.389 94.0305 297.522 91.4648 297.162 90.2388C296.932 89.4494 297.387 88.6267 298.173 88.3958C298.962 88.1661 299.786 88.6174 300.016 89.4068C300.455 90.9091 301.605 94.3305 301.963 96.9738C302.154 98.3918 302.092 99.6253 301.761 100.419C301.201 101.77 299.823 102.282 297.663 101.526C295.109 100.631 290.745 97.7933 286.239 98.0503C285.422 98.0985 284.718 97.4679 284.674 96.6521C284.627 95.8314 285.252 95.1295 286.073 95.0825C290.368 94.8398 294.589 96.9895 297.488 98.2557C298.039 98.4956 298.718 98.7072 299.124 98.826Z" fill="url(#paint1_linear_659_45779)"/>
</g>
<defs>
<linearGradient id="paint0_linear_659_45779" x1="-112.084" y1="121.492" x2="223.084" y2="205.627" gradientUnits="userSpaceOnUse">
<stop stop-color="#F7BD50"/>
<stop offset="1" stop-color="#DA7703"/>
</linearGradient>
<linearGradient id="paint1_linear_659_45779" x1="275.086" y1="94.5496" x2="298.934" y2="100.763" gradientUnits="userSpaceOnUse">
<stop stop-color="#F7BD50"/>
<stop offset="1" stop-color="#DA7703"/>
</linearGradient>
<clipPath id="clip0_659_45779">
<rect width="251.957" height="251.957" fill="white" transform="matrix(0.951492 0.307674 0.307674 -0.951492 3 206.48)"/>
</clipPath>
</defs>
</svg>
