<svg width="70" height="48" viewBox="0 0 70 48" fill="none" xmlns="http://www.w3.org/2000/svg">
<path d="M64 0H6C2.68629 0 0 2.68629 0 6V42C0 45.3137 2.68629 48 6 48H64C67.3137 48 70 45.3137 70 42V6C70 2.68629 67.3137 0 64 0Z" fill="white"/>
<path fill-rule="evenodd" clip-rule="evenodd" d="M35.395 34.7618C33.0119 36.8184 29.9205 38.0599 26.5426 38.0599C19.0052 38.0599 12.895 31.8787 12.895 24.2539C12.895 16.6291 19.0052 10.4479 26.5426 10.4479C29.9205 10.4479 33.0119 11.6894 35.395 13.746C37.7782 11.6894 40.8695 10.4479 44.2475 10.4479C51.7848 10.4479 57.895 16.6291 57.895 24.2539C57.895 31.8787 51.7848 38.0599 44.2475 38.0599C40.8695 38.0599 37.7782 36.8184 35.395 34.7618Z" fill="#ED0006"/>
<path fill-rule="evenodd" clip-rule="evenodd" d="M35.395 34.7618C38.3294 32.2295 40.1901 28.4615 40.1901 24.2539C40.1901 20.0463 38.3294 16.2783 35.395 13.746C37.7782 11.6894 40.8695 10.4479 44.2475 10.4479C51.7848 10.4479 57.895 16.6291 57.895 24.2539C57.895 31.8787 51.7848 38.0599 44.2475 38.0599C40.8695 38.0599 37.7782 36.8184 35.395 34.7618Z" fill="#F9A000"/>
<path fill-rule="evenodd" clip-rule="evenodd" d="M35.3951 13.7461C38.3295 16.2783 40.1901 20.0463 40.1901 24.2539C40.1901 28.4615 38.3295 32.2295 35.3951 34.7618C32.4608 32.2295 30.6001 28.4615 30.6001 24.2539C30.6001 20.0463 32.4608 16.2783 35.3951 13.7461Z" fill="#FF5E00"/>
</svg>
