<svg width="20" height="20" viewBox="0 0 20 20" xmlns="http://www.w3.org/2000/svg">
<path d="M14.4555 1.10059C13.7352 1.04174 12.839 1.04174 11.6959 1.04175H8.30667C7.16357 1.04174 6.26737 1.04174 5.54708 1.10059C4.81363 1.16052 4.20771 1.28456 3.65926 1.56401C2.75765 2.0234 2.02462 2.75643 1.56523 3.65804C1.28578 4.20649 1.16174 4.81241 1.10181 5.54586C1.04296 6.26615 1.04296 7.16235 1.04297 8.30545V11.857C1.04297 13.9381 2.72998 15.6251 4.81102 15.6251H5.31248C5.51956 15.6251 5.66116 15.8342 5.58425 16.0265C5.01204 17.457 6.65955 18.7503 7.91331 17.8548L10.0889 16.3008L10.1298 16.2717C10.7206 15.8554 11.4246 15.6298 12.1472 15.6252L12.1975 15.6251L12.7772 15.6251C14.0677 15.6253 14.8549 15.6254 15.5162 15.4315C17.0822 14.9723 18.3069 13.7477 18.7661 12.1816C18.9599 11.5204 18.9598 10.7332 18.9596 9.44271L18.9596 8.30543C18.9596 7.16236 18.9596 6.26614 18.9008 5.54586C18.8409 4.81241 18.7168 4.20649 18.4374 3.65804C17.978 2.75643 17.245 2.0234 16.3433 1.56401C15.7949 1.28456 15.189 1.16052 14.4555 1.10059ZM4.22675 2.67777C4.56961 2.50307 4.99272 2.40005 5.64887 2.34644C6.31232 2.29223 7.15755 2.29175 8.33464 2.29175H11.668C12.8451 2.29175 13.6903 2.29223 14.3537 2.34644C15.0099 2.40005 15.433 2.50307 15.7759 2.67777C16.4423 3.01732 16.9841 3.55912 17.3236 4.22553C17.4983 4.56839 17.6013 4.9915 17.6549 5.64765C17.7092 6.3111 17.7096 7.15633 17.7096 8.33342V9.32026C17.7096 10.7719 17.7033 11.3637 17.5665 11.8299C17.2272 12.9874 16.322 13.8926 15.1645 14.232C14.6982 14.3687 14.1064 14.3751 12.6548 14.3751H12.1975L12.1392 14.3752C11.1615 14.3814 10.2091 14.6867 9.40983 15.2499L9.36238 15.2836L7.18676 16.8376C6.94888 17.0076 6.63628 16.7622 6.74485 16.4907C7.15019 15.4774 6.40389 14.3751 5.31248 14.3751H4.81102C3.42034 14.3751 2.29297 13.2477 2.29297 11.857V8.33342C2.29297 7.15633 2.29346 6.3111 2.34766 5.64765C2.40127 4.9915 2.50429 4.56839 2.67899 4.22553C3.01854 3.55912 3.56035 3.01732 4.22675 2.67777Z" />
<path d="M7.5026 8.33343C7.5026 8.79366 7.12951 9.16676 6.66927 9.16676C6.20903 9.16676 5.83594 8.79366 5.83594 8.33343C5.83594 7.87319 6.20903 7.50009 6.66927 7.50009C7.12951 7.50009 7.5026 7.87319 7.5026 8.33343Z" />
<path d="M10.8359 8.33343C10.8359 8.79366 10.4628 9.16676 10.0026 9.16676C9.54237 9.16676 9.16927 8.79366 9.16927 8.33343C9.16927 7.87319 9.54237 7.50009 10.0026 7.50009C10.4628 7.50009 10.8359 7.87319 10.8359 8.33343Z" />
<path d="M14.1693 8.33343C14.1693 8.79366 13.7962 9.16676 13.3359 9.16676C12.8757 9.16676 12.5026 8.79366 12.5026 8.33343C12.5026 7.87319 12.8757 7.50009 13.3359 7.50009C13.7962 7.50009 14.1693 7.87319 14.1693 8.33343Z" />
</svg>
