<svg width="24" height="18" viewBox="0 0 24 18" fill="none" xmlns="http://www.w3.org/2000/svg">
<path fill-rule="evenodd" clip-rule="evenodd" d="M11.163 2.1751C10.4806 2.60558 9.61585 3.31638 8.38797 4.32837L7.37636 5.16211C7.19728 5.30971 7.08711 5.40052 6.9742 5.48466C6.05843 6.16707 4.96019 6.56132 3.81949 6.61714C3.67886 6.62402 3.53609 6.62402 3.30403 6.62401H3.28377C2.99997 6.62401 2.91982 6.62519 2.86101 6.63177C2.28072 6.6967 1.8227 7.15472 1.75777 7.73501C1.75119 7.79382 1.75002 7.87397 1.75002 8.15777V9.30454C1.75002 9.58835 1.75119 9.6685 1.75777 9.7273C1.8227 10.3076 2.28072 10.7656 2.86101 10.8305C2.91982 10.8371 2.99997 10.8383 3.28377 10.8383H3.30399C3.53607 10.8383 3.67885 10.8383 3.81949 10.8452C4.96019 10.901 6.05843 11.2952 6.9742 11.9777C7.0871 12.0618 7.19728 12.1526 7.37636 12.3002L8.38797 13.1339C9.61585 14.1459 10.4806 14.8567 11.163 15.2872C11.8584 15.7259 12.1694 15.7437 12.3498 15.6911C12.4758 15.6544 12.5952 15.5981 12.7036 15.5242C12.8589 15.4185 13.043 15.1672 13.1467 14.3515C13.2485 13.5511 13.25 12.4317 13.25 10.8406V6.62174C13.25 5.03058 13.2485 3.91119 13.1467 3.1108C13.043 2.29516 12.8589 2.04385 12.7036 1.93807C12.5952 1.86421 12.4758 1.80789 12.3498 1.77117C12.1694 1.71859 11.8584 1.7364 11.163 2.1751ZM10.3627 0.906444C11.1322 0.420984 11.9345 0.0877118 12.7695 0.331097C13.0467 0.411874 13.3094 0.535783 13.548 0.698272C14.2669 1.18786 14.5199 2.01894 14.6347 2.92153C14.75 3.82804 14.75 5.04362 14.75 6.56448V10.8978C14.75 12.4187 14.75 13.6343 14.6347 14.5408C14.5199 15.4434 14.2669 16.2745 13.548 16.764C13.3094 16.9265 13.0467 17.0504 12.7695 17.1312C11.9345 17.3746 11.1322 17.0413 10.3627 16.5559C9.5898 16.0683 8.65176 15.2952 7.47814 14.3279L6.43797 13.4706C6.23851 13.3062 6.15785 13.24 6.07791 13.1804C5.40104 12.676 4.5893 12.3846 3.74617 12.3434C3.6466 12.3385 3.54225 12.3383 3.28377 12.3383C3.26972 12.3383 3.25587 12.3383 3.24221 12.3383C3.01939 12.3384 2.84771 12.3384 2.69421 12.3212C1.41758 12.1784 0.409921 11.1707 0.267071 9.8941C0.249896 9.74061 0.249945 9.56893 0.250007 9.34612C0.250011 9.33246 0.250015 9.3186 0.250015 9.30454V8.15777C0.250015 8.14372 0.250011 8.12986 0.250007 8.1162C0.249945 7.89338 0.249896 7.7217 0.267071 7.56821C0.409921 6.29157 1.41758 5.28392 2.69421 5.14107C2.8477 5.12389 3.01938 5.12394 3.2422 5.12401C3.25586 5.12401 3.26972 5.12401 3.28377 5.12401C3.54225 5.12401 3.6466 5.12381 3.74617 5.11893C4.5893 5.07767 5.40104 4.78627 6.07791 4.28188C6.15785 4.22231 6.23851 4.15611 6.43797 3.99171L7.47814 3.13443C8.65176 2.16713 9.5898 1.39401 10.3627 0.906444ZM18.4697 1.20083C18.7626 0.907933 19.2375 0.907933 19.5303 1.20083L20.266 1.93644C20.8295 2.49997 21.1497 2.82018 21.4006 3.12037C24.1149 6.36849 24.1149 11.0938 21.4006 14.3419C21.1497 14.6421 20.8295 14.9623 20.266 15.5258L19.5303 16.2615C19.2375 16.5544 18.7626 16.5544 18.4697 16.2615C18.1768 15.9686 18.1768 15.4937 18.4697 15.2008L19.1697 14.5008C19.7784 13.8921 20.0473 13.6222 20.2496 13.3801C22.4986 10.6888 22.4986 6.77352 20.2496 4.08222C20.0473 3.84015 19.7784 3.5702 19.1697 2.96149L18.4697 2.26149C18.1768 1.96859 18.1768 1.49372 18.4697 1.20083ZM16.4697 4.20083C16.7626 3.90793 17.2375 3.90793 17.5303 4.20083L17.9357 4.60614C17.9905 4.66098 18.0239 4.69438 18.0526 4.72393C20.2211 6.95539 20.2211 10.5069 18.0526 12.7384C18.0239 12.7679 17.9905 12.8013 17.9357 12.8561L17.5303 13.2615C17.2375 13.5544 16.7626 13.5544 16.4697 13.2615C16.1768 12.9686 16.1768 12.4937 16.4697 12.2008L16.8697 11.8008C16.9314 11.7391 16.9566 11.7139 16.9769 11.693C18.5796 10.0437 18.5796 7.41863 16.9769 5.7693C16.9566 5.74844 16.9314 5.72318 16.8697 5.66149L16.4697 5.26149C16.1768 4.96859 16.1768 4.49372 16.4697 4.20083Z" fill="#FAFAFA"/>
</svg>
