<svg width="54" height="54" viewBox="0 0 54 54" fill="none" xmlns="http://www.w3.org/2000/svg">
    <path fill-rule="evenodd" clip-rule="evenodd"
          d="M27 3.875C14.2284 3.875 3.875 14.2284 3.875 27C3.875 39.7716 14.2284 50.125 27 50.125C39.7716 50.125 50.125 39.7716 50.125 27C50.125 14.2284 39.7716 3.875 27 3.875ZM0.125 27C0.125 12.1573 12.1573 0.125 27 0.125C41.8427 0.125 53.875 12.1573 53.875 27C53.875 41.8427 41.8427 53.875 27 53.875C12.1573 53.875 0.125 41.8427 0.125 27ZM22 15.125C23.0355 15.125 23.875 15.9645 23.875 17L23.875 37C23.875 38.0355 23.0355 38.875 22 38.875C20.9645 38.875 20.125 38.0355 20.125 37L20.125 17C20.125 15.9645 20.9645 15.125 22 15.125ZM32 15.125C33.0355 15.125 33.875 15.9645 33.875 17V37C33.875 38.0355 33.0355 38.875 32 38.875C30.9645 38.875 30.125 38.0355 30.125 37V17C30.125 15.9645 30.9645 15.125 32 15.125Z"
          fill="white" fill-opacity="0.4"/>
</svg>
