<svg width="60" height="42" viewBox="0 0 60 42" xmlns="http://www.w3.org/2000/svg">
<mask id="mask0_758_26502" style="mask-type:alpha" maskUnits="userSpaceOnUse" x="0" y="0" width="61" height="42">
<rect x="60.0002" width="42" height="59.9996" rx="6" transform="rotate(90 60.0002 0)" fill="url(#paint0_linear_758_26502)"/>
</mask>
<g mask="url(#mask0_758_26502)">
<path d="M34.4563 3.05176e-05H47.2285V14L34.4563 3.05176e-05Z" fill="url(#paint1_linear_758_26502)" fill-opacity="0.6"/>
<path d="M8.91187 14H21.6841V3.05176e-05L8.91187 14Z" fill="url(#paint2_linear_758_26502)" fill-opacity="0.6"/>
<path d="M47.2285 3.05176e-05H60.0007V14L47.2285 3.05176e-05Z" fill="url(#paint3_linear_758_26502)" fill-opacity="0.6"/>
<path d="M21.6841 14H34.4563V3.05176e-05L21.6841 14Z" fill="url(#paint4_linear_758_26502)" fill-opacity="0.6"/>
<path d="M34.4563 27.9981H47.2285V41.9981L34.4563 27.9981Z" fill="url(#paint5_linear_758_26502)" fill-opacity="0.6"/>
<path d="M8.91187 41.9981H21.6841V27.9981L8.91187 41.9981Z" fill="url(#paint6_linear_758_26502)" fill-opacity="0.6"/>
<path d="M47.2285 27.9981H60.0007V41.9981L47.2285 27.9981Z" fill="url(#paint7_linear_758_26502)" fill-opacity="0.6"/>
<path d="M21.6841 41.9981H34.4563V27.9981L21.6841 41.9981Z" fill="url(#paint8_linear_758_26502)" fill-opacity="0.6"/>
</g>
<defs>
<linearGradient id="paint0_linear_758_26502" x1="81.0002" y1="0" x2="81.0002" y2="59.9996" gradientUnits="userSpaceOnUse">
<stop stop-color="#E42C64"/>
<stop offset="1" stop-color="#614AD3"/>
</linearGradient>
<linearGradient id="paint1_linear_758_26502" x1="34.4563" y1="3.05176e-05" x2="34.4563" y2="14" gradientUnits="userSpaceOnUse">
<stop stop-color="white" stop-opacity="0.5"/>
<stop offset="1" stop-color="white" stop-opacity="0.1"/>
</linearGradient>
<linearGradient id="paint2_linear_758_26502" x1="34.4563" y1="3.05176e-05" x2="34.4563" y2="14" gradientUnits="userSpaceOnUse">
<stop stop-color="white" stop-opacity="0.5"/>
<stop offset="1" stop-color="white" stop-opacity="0.1"/>
</linearGradient>
<linearGradient id="paint3_linear_758_26502" x1="34.4563" y1="3.05176e-05" x2="34.4563" y2="14" gradientUnits="userSpaceOnUse">
<stop stop-color="white" stop-opacity="0.5"/>
<stop offset="1" stop-color="white" stop-opacity="0.1"/>
</linearGradient>
<linearGradient id="paint4_linear_758_26502" x1="34.4563" y1="3.05176e-05" x2="34.4563" y2="14" gradientUnits="userSpaceOnUse">
<stop stop-color="white" stop-opacity="0.5"/>
<stop offset="1" stop-color="white" stop-opacity="0.1"/>
</linearGradient>
<linearGradient id="paint5_linear_758_26502" x1="34.4563" y1="27.9981" x2="34.4563" y2="41.9981" gradientUnits="userSpaceOnUse">
<stop stop-color="white" stop-opacity="0.5"/>
<stop offset="1" stop-color="white" stop-opacity="0.1"/>
</linearGradient>
<linearGradient id="paint6_linear_758_26502" x1="34.4563" y1="27.9981" x2="34.4563" y2="41.9981" gradientUnits="userSpaceOnUse">
<stop stop-color="white" stop-opacity="0.5"/>
<stop offset="1" stop-color="white" stop-opacity="0.1"/>
</linearGradient>
<linearGradient id="paint7_linear_758_26502" x1="34.4563" y1="27.9981" x2="34.4563" y2="41.9981" gradientUnits="userSpaceOnUse">
<stop stop-color="white" stop-opacity="0.5"/>
<stop offset="1" stop-color="white" stop-opacity="0.1"/>
</linearGradient>
<linearGradient id="paint8_linear_758_26502" x1="34.4563" y1="27.9981" x2="34.4563" y2="41.9981" gradientUnits="userSpaceOnUse">
<stop stop-color="white" stop-opacity="0.5"/>
<stop offset="1" stop-color="white" stop-opacity="0.1"/>
</linearGradient>
</defs>
</svg>
