<svg width="14" height="10" viewBox="0 0 14 10" fill="none" xmlns="http://www.w3.org/2000/svg">
    <path d="M13.4321 1.61012C13.631 1.37146 13.5988 1.01677 13.3601 0.81789C13.1215 0.61901 12.7668 0.651255 12.5679 0.88991L8.52488 5.74152C7.71276 6.71607 7.14145 7.39952 6.64593 7.84698C6.16196 8.28401 5.82796 8.4229 5.50001 8.4229C5.17207 8.4229 4.83807 8.28401 4.3541 7.84698C3.85857 7.39952 3.28727 6.71607 2.47514 5.74152L1.43214 4.48991C1.23326 4.25125 0.878566 4.21901 0.63991 4.41789C0.401255 4.61677 0.36901 4.97146 0.56789 5.21012L1.63984 6.49646C2.41629 7.42823 3.03811 8.17443 3.60013 8.68194C4.18067 9.20617 4.77412 9.5479 5.50001 9.5479C6.22591 9.5479 6.81936 9.20617 7.3999 8.68194C7.96192 8.17443 8.58372 7.42824 9.36017 6.49649L13.4321 1.61012Z"
          fill="url(#paint0_linear_267_5944)"/>
    <defs>
        <linearGradient id="paint0_linear_267_5944" x1="-6.8021" y1="0.687495" x2="11.6051" y2="1.87819"
                        gradientUnits="userSpaceOnUse">
            <stop stop-color="#F7BD50"/>
            <stop offset="1" stop-color="#DA7703"/>
        </linearGradient>
    </defs>
</svg>
