<svg width="20" height="20" viewBox="0 0 20 20" xmlns="http://www.w3.org/2000/svg">
<path fill-rule="evenodd" clip-rule="evenodd" d="M5.00081 4.35484C2.78628 4.35484 1.08518 6.30756 1.39836 8.49015L1.59469 9.85839L2.89033 14.3731C3.10641 15.1261 3.79766 15.6452 4.5842 15.6452C5.18363 15.6452 5.74192 15.3417 6.06606 14.8397L6.4057 14.3137C8.08768 11.7089 11.9123 11.7089 13.5943 14.3137L13.8021 14.6355C14.2084 15.2648 14.9083 15.6452 15.6597 15.6452C16.7587 15.6452 17.6904 14.8406 17.8458 13.7575L18.6016 8.49015C18.9148 6.30757 17.2137 4.35484 14.9992 4.35484C14.49 4.35484 13.9865 4.46122 13.5212 4.6671L13.0395 4.88025C13.0148 4.8912 12.9903 4.90203 12.9661 4.91274C12.1323 5.28177 11.6193 5.50884 11.0833 5.62213C10.369 5.77308 9.63096 5.77308 8.91675 5.62213C8.38069 5.50884 7.86766 5.28177 7.0339 4.91274C7.0097 4.90203 6.98523 4.8912 6.96048 4.88025L6.47875 4.6671C6.01347 4.46122 5.50997 4.35484 5.00081 4.35484ZM0.0511906 8.68175C-0.379107 5.68297 1.95814 3 5.00081 3C5.70038 3 6.39217 3.14616 7.03145 3.42903L7.51317 3.64218C8.44338 4.05378 8.81996 4.21665 9.19934 4.29683C9.72723 4.40839 10.2728 4.40839 10.8007 4.29683C11.18 4.21665 11.5566 4.05378 12.4868 3.64218L12.9686 3.42903C13.6078 3.14616 14.2996 3 14.9992 3C18.0419 3 20.3791 5.68297 19.9488 8.68175L19.193 13.9491C18.9418 15.6997 17.4359 17 15.6597 17C14.4452 17 13.3141 16.3852 12.6573 15.3681L12.4496 15.0464C11.3033 13.2711 8.69672 13.2711 7.55042 15.0464L7.21078 15.5723C6.63624 16.4621 5.64668 17 4.5842 17C3.19007 17 1.96484 16.0799 1.58185 14.7453L0.260667 10.1416L0.0511906 8.68175ZM5.46384 6.6129C5.83963 6.6129 6.14426 6.91619 6.14426 7.29032V8.41935H7.2783C7.65409 8.41935 7.95873 8.72265 7.95873 9.09677C7.95873 9.4709 7.65409 9.77419 7.2783 9.77419H6.14426V10.9032C6.14426 11.2774 5.83963 11.5806 5.46384 11.5806C5.08805 11.5806 4.78342 11.2774 4.78342 10.9032V9.77419H3.64938C3.27359 9.77419 2.96895 9.4709 2.96895 9.09677C2.96895 8.72265 3.27359 8.41935 3.64938 8.41935H4.78342V7.29032C4.78342 6.91619 5.08805 6.6129 5.46384 6.6129Z" />
<path d="M15.4428 7.29032C15.4428 7.78916 15.0366 8.19355 14.5356 8.19355C14.0345 8.19355 13.6283 7.78916 13.6283 7.29032C13.6283 6.79148 14.0345 6.3871 14.5356 6.3871C15.0366 6.3871 15.4428 6.79148 15.4428 7.29032Z" />
<path d="M13.6283 9.09677C13.6283 9.59561 13.2221 10 12.7211 10C12.22 10 11.8139 9.59561 11.8139 9.09677C11.8139 8.59794 12.22 8.19355 12.7211 8.19355C13.2221 8.19355 13.6283 8.59794 13.6283 9.09677Z" />
<path d="M17.2573 9.09677C17.2573 9.59561 16.8511 10 16.35 10C15.849 10 15.4428 9.59561 15.4428 9.09677C15.4428 8.59794 15.849 8.19355 16.35 8.19355C16.8511 8.19355 17.2573 8.59794 17.2573 9.09677Z" />
<path d="M15.4428 10.9032C15.4428 11.4021 15.0366 11.8064 14.5356 11.8064C14.0345 11.8064 13.6283 11.4021 13.6283 10.9032C13.6283 10.4044 14.0345 10 14.5356 10C15.0366 10 15.4428 10.4044 15.4428 10.9032Z" />
</svg>
