<svg width="21" height="22" viewBox="0 0 21 22" fill="none" xmlns="http://www.w3.org/2000/svg">
<path d="M19.5657 16.9134L20.2537 17.212L20.2537 17.212L19.5657 16.9134ZM16.7309 19.6194L17.0067 20.3169L17.0067 20.3169L16.7309 19.6194ZM16.7309 2.3806L17.0067 1.68314L17.0067 1.68314L16.7309 2.3806ZM19.5657 5.08658L20.2537 4.78803L20.2537 4.78803L19.5657 5.08658ZM9.46448 20L9.53085 19.2529L9.11773 19.2162L8.86702 19.5466L9.46448 20ZM4.96446 3.5L4.21446 3.5L4.21446 3.5L4.96446 3.5ZM3.85355 10.2322L4.38388 9.7019L4.38388 9.7019L3.85355 10.2322ZM1.73223 8.11091L2.26256 7.58058L2.26256 7.58058L1.73223 8.11091ZM1.73223 4.57538L2.26256 5.10571L2.26256 5.10571L1.73223 4.57538ZM4.96445 4.31651L5.71445 4.31646L5.71442 3.9337L5.40446 3.70915L4.96445 4.31651ZM3.85357 11.6109L4.3839 12.1412L4.3839 12.1412L3.85357 11.6109ZM1.73225 13.7322L2.26258 14.2625L2.26258 14.2625L1.73225 13.7322ZM1.73225 17.2678L2.26258 16.7374L2.26258 16.7374L1.73225 17.2678ZM18.9645 11L18.9645 10.25L18.9645 10.25L18.9645 11ZM9.43983 20.0325L10.0321 20.4926L10.0321 20.4926L9.43983 20.0325ZM9.51158 2.06461L8.89787 2.49572L9.51158 2.06461ZM19.2145 12.5C19.2145 13.6756 19.214 14.518 19.1665 15.1823C19.1196 15.8392 19.0294 16.2654 18.8777 16.6149L20.2537 17.212C20.5008 16.6426 20.61 16.0269 20.6627 15.2892C20.7149 14.559 20.7145 13.6541 20.7145 12.5L19.2145 12.5ZM12.1073 20.75C13.3179 20.75 14.2616 20.7503 15.0221 20.7008C15.7887 20.6509 16.4221 20.548 17.0067 20.3169L16.4551 18.9219C16.0771 19.0714 15.619 19.1588 14.9246 19.204C14.2242 19.2496 13.3375 19.25 12.1073 19.25L12.1073 20.75ZM18.8777 16.6149C18.4281 17.651 17.5607 18.4848 16.4551 18.9219L17.0067 20.3169C18.4681 19.739 19.6401 18.6262 20.2537 17.212L18.8777 16.6149ZM12.1073 2.75C13.3374 2.75 14.2242 2.75037 14.9246 2.79599C15.619 2.84121 16.0771 2.92859 16.4551 3.07806L17.0067 1.68314C16.4221 1.45201 15.7887 1.34909 15.0221 1.29916C14.2616 1.24963 13.3178 1.25 12.1073 1.25L12.1073 2.75ZM20.7145 9.5C20.7145 8.34589 20.7149 7.44097 20.6627 6.71075C20.61 5.97308 20.5008 5.35739 20.2537 4.78803L18.8777 5.38514C19.0294 5.73462 19.1196 6.1608 19.1665 6.81769C19.214 7.48204 19.2145 8.3244 19.2145 9.5L20.7145 9.5ZM16.4551 3.07806C17.5607 3.51518 18.4281 4.34904 18.8777 5.38514L20.2537 4.78803C19.6401 3.37384 18.4681 2.26096 17.0067 1.68314L16.4551 3.07806ZM12.1073 19.25C10.6341 19.25 10.2657 19.3182 9.53085 19.2529L9.3981 20.7471C10.2105 20.8192 10.8214 20.75 12.1073 20.75L12.1073 19.25ZM5.71446 3.5C5.71446 2.5335 6.49796 1.75 7.46446 1.75L7.46446 0.25C5.66953 0.25 4.21446 1.70507 4.21446 3.5L5.71446 3.5ZM4.21446 18.5C4.21446 20.2949 5.66954 21.75 7.46446 21.75L7.46446 20.25C6.49796 20.25 5.71446 19.4665 5.71446 18.5L4.21446 18.5ZM4.38388 9.7019L2.26256 7.58058L1.2019 8.64124L3.32322 10.7626L4.38388 9.7019ZM2.26256 7.58058C1.57915 6.89716 1.57914 5.78913 2.26256 5.10571L1.2019 4.04505C-0.0673017 5.31425 -0.0673016 7.37204 1.2019 8.64124L2.26256 7.58058ZM3.32322 10.7626C3.63678 11.0761 4.14706 11.5554 4.76812 11.7238L5.16083 10.2762C4.96806 10.2239 4.70934 10.0274 4.38388 9.7019L3.32322 10.7626ZM2.26256 5.10571C2.87851 4.48976 3.84078 4.42859 4.52443 4.92387L5.40446 3.70915C4.13337 2.78829 2.34725 2.8997 1.2019 4.04505L2.26256 5.10571ZM3.32324 11.0806L1.20192 13.2019L2.26258 14.2625L4.3839 12.1412L3.32324 11.0806ZM1.20192 13.2019C-0.0672879 14.4711 -0.0672878 16.5289 1.20192 17.7981L2.26258 16.7374C1.57916 16.054 1.57916 14.946 2.26258 14.2625L1.20192 13.2019ZM4.3839 12.1412C4.58497 11.9402 4.83942 11.811 5.16083 11.7238L4.76812 10.2762C4.2757 10.4097 3.76117 10.6426 3.32324 11.0806L4.3839 12.1412ZM1.20192 17.7981C2.34726 18.9434 4.13339 19.0548 5.40447 18.134L4.52445 16.9193C3.8408 17.4145 2.87853 17.3534 2.26258 16.7374L1.20192 17.7981ZM4.96448 11.75L18.9645 11.75L18.9645 10.25L4.96448 10.25L4.96448 11.75ZM5.71446 17.5266L5.71448 11L4.21448 11L4.21446 17.5266L5.71446 17.5266ZM9.21446 18.5C9.21446 18.905 9.07778 19.276 8.84757 19.5723L10.0321 20.4926C10.4595 19.9424 10.7145 19.2499 10.7145 18.5L9.21446 18.5ZM8.84757 19.5723C8.52615 19.9861 8.02631 20.25 7.46446 20.25L7.46446 21.75C8.50907 21.75 9.43875 21.2563 10.0321 20.4926L8.84757 19.5723ZM8.86702 19.5466L8.84238 19.5791L10.0373 20.4858L10.0619 20.4534L8.86702 19.5466ZM19.2145 9.5L19.2145 11L20.7145 11L20.7145 9.5L19.2145 9.5ZM19.2145 11L19.2145 12.5L20.7145 12.5L20.7145 11L19.2145 11ZM18.9645 11.75L19.9645 11.75L19.9645 10.25L18.9645 10.25L18.9645 11.75ZM9.21446 3.5L9.21446 11L10.7145 11L10.7145 3.5L9.21446 3.5ZM9.21446 11L9.21446 18.5L10.7145 18.5L10.7145 11L9.21446 11ZM7.46446 1.75C8.05643 1.75 8.58 2.04322 8.89787 2.49572L10.1253 1.63349C9.53862 0.798341 8.56562 0.25 7.46446 0.25L7.46446 1.75ZM8.89787 2.49572C9.09743 2.7798 9.21446 3.12511 9.21446 3.5L10.7145 3.5C10.7145 2.80659 10.4965 2.16186 10.1253 1.63349L8.89787 2.49572ZM12.1073 1.25C10.7624 1.25 10.2318 1.24951 9.44695 1.3174L9.57621 2.81182C10.2851 2.75049 10.7495 2.75 12.1073 2.75L12.1073 1.25ZM5.71448 11L5.71446 4.57538L4.21446 4.57538L4.21448 11L5.71448 11ZM5.71446 4.57533L5.71445 4.31646L4.21445 4.31655L4.21446 4.57542L5.71446 4.57533ZM5.71446 4.57538L5.71446 3.5L4.21446 3.5L4.21446 4.57538L5.71446 4.57538ZM4.21446 17.5266L4.21446 18.5L5.71446 18.5L5.71446 17.5266L4.21446 17.5266ZM5.71446 18.5L5.71447 14.75L4.21447 14.75L4.21446 18.5L5.71446 18.5ZM5.71447 14.75L5.71448 11L4.21448 11L4.21447 14.75L5.71447 14.75ZM5.71446 17.5266L5.71447 14.75L4.21447 14.75L4.21446 17.5266L5.71446 17.5266ZM5.71448 11L5.71445 4.31651L4.21445 4.31651L4.21448 11L5.71448 11Z" fill="url(#paint0_linear_1764_31136)"/>
<defs>
<linearGradient id="paint0_linear_1764_31136" x1="0.999991" y1="32.0317" x2="2.29439" y2="3.92496" gradientUnits="userSpaceOnUse">
<stop stop-color="#F7BD50"/>
<stop offset="1" stop-color="#DA7703"/>
</linearGradient>
</defs>
</svg>
