<svg width="14" height="14" viewBox="0 0 14 14" fill="none" xmlns="http://www.w3.org/2000/svg">
<path d="M13.4846 12.6289L12.7944 13.319C12.2324 13.8811 11.4221 14.117 10.6462 13.9446C5.35927 12.7697 1.23028 8.64073 0.0554039 3.35379C-0.117025 2.57786 0.118918 1.76762 0.680967 1.20557L1.37115 0.515389C1.42616 0.460378 1.45366 0.432872 1.47789 0.410606C2.07371 -0.136869 2.98953 -0.136869 3.58534 0.410606C3.60957 0.432872 3.63708 0.460378 3.69209 0.515389L4.82756 1.65086C5.4521 2.27541 5.63072 3.21857 5.27779 4.02824C4.92487 4.8379 5.10349 5.78107 5.72803 6.40561L7.59438 8.27197C8.21893 8.89651 9.1621 9.07514 9.97176 8.72221C10.7814 8.36928 11.7246 8.5479 12.3491 9.17244L13.4846 10.3079C13.5396 10.3629 13.5671 10.3904 13.5894 10.4147C14.1369 11.0105 14.1369 11.9263 13.5894 12.5221C13.5671 12.5463 13.5396 12.5738 13.4846 12.6289Z" fill="url(#paint0_linear_1703_31644)"/>
<defs>
<linearGradient id="paint0_linear_1703_31644" x1="-7.72222" y1="-7.12078e-06" x2="11.9567" y2="0.85934" gradientUnits="userSpaceOnUse">
<stop stop-color="#F7BD50"/>
<stop offset="1" stop-color="#DA7703"/>
</linearGradient>
</defs>
</svg>
