<svg width="14" height="12" viewBox="0 0 14 12" fill="none" xmlns="http://www.w3.org/2000/svg">
<path d="M0.207033 5.28249C1.33646 4.66039 2.57156 4.12109 3.77366 3.59624C4.06466 3.46919 4.35371 3.34299 4.63886 3.21669C7.15596 2.15499 9.68305 1.11169 12.2357 0.140392C12.7323 -0.0251077 13.6247 -0.186958 13.7122 0.549042C13.6782 1.28636 13.5696 2.02063 13.461 2.754L13.461 2.75454C13.4162 3.05719 13.3714 3.35969 13.3319 3.66224C13.0414 5.59084 12.7125 7.51389 12.3837 9.43624L12.3793 9.4617C12.3213 9.80106 12.2632 10.1404 12.2054 10.4797C12.0722 11.2359 11.1249 11.6273 10.5188 11.1434C10.1614 10.902 9.80327 10.6611 9.44513 10.4203L9.44451 10.4198L9.44052 10.4172C8.3406 9.67736 7.24005 8.93713 6.15641 8.17854C5.68536 7.69989 6.12221 7.01254 6.54286 6.67074C7.02586 6.19474 7.52066 5.74754 8.01366 5.30199L8.01576 5.3001C8.7465 4.63959 9.47331 3.98263 10.1519 3.24054C10.4391 2.54694 9.66256 3.05029 9.31731 3.27414L9.25346 3.31534C8.84816 3.59464 8.44531 3.87814 8.04236 4.16174L8.04199 4.162C6.81216 5.02747 5.58143 5.89357 4.27726 6.64274C3.4833 7.07977 2.57145 6.78927 1.75364 6.52874L1.75351 6.52869C1.66026 6.49899 1.56826 6.46969 1.47776 6.44184C1.36953 6.39706 1.25447 6.35223 1.13815 6.3069L1.13646 6.30624C0.401098 6.01974 -0.382707 5.71429 0.207033 5.28249Z" fill="url(#paint0_linear_1703_31645)"/>
<defs>
<linearGradient id="paint0_linear_1703_31645" x1="-7.56345" y1="-5.77618e-06" x2="11.6941" y2="1.01538" gradientUnits="userSpaceOnUse">
<stop stop-color="#F7BD50"/>
<stop offset="1" stop-color="#DA7703"/>
</linearGradient>
</defs>
</svg>
