<svg width="30" height="20" viewBox="0 0 30 20" xmlns="http://www.w3.org/2000/svg">
<path fill-rule="evenodd" clip-rule="evenodd" d="M20.7801 0.786817C21.2661 0.296489 22.0576 0.292957 22.5479 0.77893L25.5391 3.74356C26.6657 4.86014 27.5865 5.77272 28.2395 6.58585C28.9186 7.43139 29.4101 8.28962 29.5415 9.31981C29.5702 9.54567 29.5846 9.77287 29.5846 10.0001C29.5846 10.2273 29.5702 10.4545 29.5415 10.6804C29.4101 11.7105 28.9186 12.5688 28.2395 13.4143C27.5865 14.2274 26.6657 15.14 25.5391 16.2566L22.5479 19.2212C22.0576 19.7072 21.2661 19.7037 20.7801 19.2133C20.2942 18.723 20.2977 17.9316 20.788 17.4456L23.7263 14.5334C24.9188 13.3515 25.7368 12.5381 26.2903 11.8489C26.4702 11.6249 26.6105 11.4277 26.7195 11.2501L1.66797 11.2501C0.977613 11.2501 0.417969 10.6904 0.417969 10.0001C0.417969 9.30973 0.977613 8.75008 1.66797 8.75008L26.7195 8.75008C26.6105 8.57242 26.4702 8.37524 26.2903 8.15126C25.7368 7.46204 24.9188 6.64864 23.7263 5.46675L20.788 2.55457C20.2977 2.06859 20.2942 1.27715 20.7801 0.786817Z"/>
</svg>
