<svg width="20" height="18" viewBox="0 0 20 18" xmlns="http://www.w3.org/2000/svg">
<path fill-rule="evenodd" clip-rule="evenodd" d="M9.86396 0.0415175C9.90837 0.0415245 9.95332 0.0415315 9.99883 0.0415315C10.0443 0.0415315 10.0893 0.0415245 10.1337 0.0415175C11.5556 0.0412937 12.4233 0.0411572 13.1462 0.276052C14.605 0.750034 15.7487 1.89373 16.2226 3.35249C16.2251 3.35994 16.2275 3.3674 16.2298 3.37487H16.4733C19.5613 3.37487 20.8878 7.29326 18.4348 9.16903L18.4259 9.17582L16.3749 10.6311C16.2983 10.6854 16.2192 10.7358 16.1378 10.7822C16.1289 10.8054 16.1198 10.8286 16.1105 10.8518C15.8976 11.3806 15.482 12.0152 15.0823 12.4217C14.4309 13.0842 13.7569 13.378 12.6805 13.8471C12.6569 13.8574 12.633 13.8678 12.609 13.8783C12.1453 14.0804 11.6765 14.2638 11.2413 14.3975C11.0351 14.4609 10.827 14.5161 10.6238 14.5563V16.7082H13.3322C13.6773 16.7082 13.9572 16.988 13.9572 17.3332C13.9572 17.6784 13.6773 17.9582 13.3322 17.9582H6.66549C6.32032 17.9582 6.04049 17.6784 6.04049 17.3332C6.04049 16.988 6.32032 16.7082 6.66549 16.7082H9.37383V14.5563C9.17067 14.5161 8.96256 14.4609 8.7564 14.3975C8.32112 14.2638 7.85231 14.0804 7.38868 13.8783C7.36464 13.8678 7.3408 13.8574 7.31715 13.8471C6.24077 13.378 5.56671 13.0842 4.91535 12.4217C4.51567 12.0152 4.10009 11.3806 3.88718 10.8518C3.87759 10.828 3.86824 10.8041 3.85915 10.7802C3.7794 10.736 3.70209 10.6873 3.62758 10.6345L1.57182 9.17582L1.56295 9.16903C-0.889986 7.29326 0.436517 3.37487 3.52447 3.37487H3.76783C3.7702 3.3674 3.77259 3.35994 3.77501 3.35249C4.249 1.89373 5.39269 0.750034 6.85145 0.276052C7.57439 0.0411572 8.44206 0.0412937 9.86396 0.0415175ZM3.56805 4.62487H3.52447C1.63538 4.62487 0.821879 7.01755 2.31394 8.16969L3.55714 9.05179C3.54037 8.64994 3.54042 8.20073 3.54049 7.67985C3.54049 7.64801 3.54049 7.61591 3.54049 7.58353L3.54049 6.42991C3.54046 5.69723 3.54044 5.11246 3.56805 4.62487ZM16.4405 9.05187L17.6838 8.16969C19.1759 7.01755 18.3624 4.62487 16.4733 4.62487H16.4296C16.4572 5.11245 16.4572 5.69721 16.4572 6.42986L16.4572 7.58353C16.4572 7.61615 16.4572 7.64848 16.4572 7.68055C16.4572 8.20116 16.4573 8.65016 16.4405 9.05187ZM9.99883 1.29153C8.39911 1.29153 7.74748 1.29924 7.23773 1.46487C6.15951 1.81521 5.31417 2.66055 4.96384 3.73876C4.92859 3.84724 4.89977 3.96599 4.87657 4.10369C4.79267 4.6017 4.79049 5.27332 4.79049 6.49987V7.58353C4.79049 8.95022 4.79658 9.59206 4.96461 10.151C4.98833 10.2299 5.01549 10.3074 5.04674 10.385C5.19811 10.761 5.52253 11.2563 5.80669 11.5454C6.27292 12.0195 6.72454 12.2251 7.88825 12.7324C8.32675 12.9236 8.74887 13.0875 9.1236 13.2027C9.50749 13.3206 9.80213 13.3749 9.99883 13.3749C10.1955 13.3749 10.4902 13.3206 10.8741 13.2027C11.2488 13.0875 11.6709 12.9236 12.1094 12.7324C13.2731 12.2251 13.7247 12.0195 14.191 11.5454C14.4751 11.2563 14.7995 10.761 14.9509 10.385C14.9813 10.3096 15.0077 10.2344 15.031 10.1579C15.201 9.59768 15.2072 8.95608 15.2072 7.58353V6.49987C15.2072 5.27332 15.205 4.6017 15.1211 4.10369C15.0979 3.96599 15.0691 3.84724 15.0338 3.73876C14.6835 2.66055 13.8381 1.81521 12.7599 1.46487C12.2502 1.29924 11.5985 1.29153 9.99883 1.29153Z"/>
</svg>
