<svg width="57" height="22" viewBox="0 0 57 22" fill="none" xmlns="http://www.w3.org/2000/svg">
<g clip-path="url(#clip0_1409_17909)">
<path d="M14.5571 6.33766C13.7487 5.52935 12.4335 5.52935 11.6252 6.33766C10.8169 7.14597 10.8169 8.4612 11.6252 9.26951C12.4335 10.0778 13.7487 10.0778 14.5571 9.26951C15.3654 8.4612 15.3654 7.14602 14.5571 6.33766ZM12.3151 8.57965C11.8871 8.15173 11.8871 7.45543 12.3151 7.02752C12.743 6.59961 13.4393 6.59961 13.8672 7.02752C14.2951 7.45544 14.2951 8.15174 13.8672 8.57965C13.4393 9.00756 12.743 9.00756 12.3151 8.57965Z" fill="url(#paint0_linear_1409_17909)"/>
<path fill-rule="evenodd" clip-rule="evenodd" d="M14.3535 15.3489C14.5772 14.2886 14.3688 13.49 14.2247 13.1083C15.2696 12.3457 16.2191 11.491 16.8515 10.583C19.1488 7.28487 18.4058 3.18021 18.3731 3.00708C18.3265 2.76072 18.1337 2.56795 17.8874 2.52129C17.7143 2.48855 13.6096 1.74563 10.3115 4.04293C9.39235 4.6832 8.5277 5.64847 7.75803 6.70864C7.34525 6.56997 6.59341 6.41211 5.62166 6.61703C3.79511 7.00234 2.10205 8.45335 0.589603 10.9298C0.484888 11.1012 0.47133 11.3132 0.553257 11.4965C0.584064 11.5654 0.62685 11.6269 0.678735 11.6788C0.765029 11.7651 0.876456 11.8247 0.999771 11.8474L4.55081 12.4996C4.46686 12.6953 4.41646 12.8192 4.40327 12.8519C4.31175 13.0788 4.36467 13.3383 4.53757 13.5112L5.52924 14.5029L6.39155 15.3652L7.38322 16.3569C7.55612 16.5298 7.81568 16.5827 8.04249 16.4912C8.0783 16.4767 8.22359 16.4175 8.45239 16.3188L9.12315 19.9708C9.14586 20.0941 9.20553 20.2056 9.29178 20.2918C9.34366 20.3437 9.40519 20.3865 9.47401 20.4173C9.65736 20.4992 9.86927 20.4857 10.0407 20.3809C12.5171 18.8685 13.9682 17.1755 14.3535 15.3489ZM17.2063 6.13133C17.3354 5.07432 17.2839 4.16849 17.2315 3.66289C16.7262 3.6106 15.8203 3.55898 14.7631 3.68816L17.2063 6.13133ZM7.03101 7.77714C6.1564 7.61982 4.2486 7.74273 2.1193 10.8132L5.06894 11.3549C5.52888 10.3847 6.20482 9.06787 7.03101 7.77714ZM7.25386 14.5029L7.9548 15.2038C9.32038 14.6105 14.0954 12.406 15.8508 9.8859C16.4267 9.05931 16.7803 8.1602 16.9931 7.29779L13.5966 3.90128C12.7342 4.11404 11.8351 4.46778 11.0085 5.04355C8.48541 6.80097 6.28314 11.5744 5.69043 12.9394L6.39155 13.6406L7.25386 14.5029ZM9.59669 15.7985L10.1574 18.8513C13.3645 16.6272 13.3559 14.6448 13.1711 13.8289C11.8886 14.6545 10.5748 15.3328 9.59669 15.7985Z" fill="url(#paint1_linear_1409_17909)"/>
</g>
<path d="M31.4091 17H32.8182V12.75H35.3636C38.0739 12.75 39.2955 11.1023 39.2955 9.04545C39.2955 6.98864 38.0739 5.36364 35.3409 5.36364H31.4091V17ZM32.8182 11.5V6.61364H35.2955C37.1875 6.61364 37.9091 7.64773 37.9091 9.04545C37.9091 10.4432 37.1875 11.5 35.3182 11.5H32.8182ZM41.3835 17H42.7244V11.4773C42.7244 10.2955 43.6562 9.43182 44.929 9.43182C45.2869 9.43182 45.6562 9.5 45.7472 9.52273V8.15909C45.5938 8.14773 45.2415 8.13636 45.0426 8.13636C43.9972 8.13636 43.0881 8.72727 42.7699 9.59091H42.679V8.27273H41.3835V17ZM50.6165 17.1818C52.9801 17.1818 54.571 15.3864 54.571 12.6818C54.571 9.95455 52.9801 8.15909 50.6165 8.15909C48.2528 8.15909 46.6619 9.95455 46.6619 12.6818C46.6619 15.3864 48.2528 17.1818 50.6165 17.1818ZM50.6165 15.9773C48.821 15.9773 48.0028 14.4318 48.0028 12.6818C48.0028 10.9318 48.821 9.36364 50.6165 9.36364C52.4119 9.36364 53.2301 10.9318 53.2301 12.6818C53.2301 14.4318 52.4119 15.9773 50.6165 15.9773Z" fill="url(#paint2_linear_1409_17909)"/>
<defs>
<linearGradient id="paint0_linear_1409_17909" x1="11.474" y1="3.25456" x2="15.4151" y2="7.55565" gradientUnits="userSpaceOnUse">
<stop stop-color="#F7BD50"/>
<stop offset="1" stop-color="#DA7703"/>
</linearGradient>
<linearGradient id="paint1_linear_1409_17909" x1="7.69634" y1="-7.81951" x2="21.3395" y2="6.75587" gradientUnits="userSpaceOnUse">
<stop stop-color="#F7BD50"/>
<stop offset="1" stop-color="#DA7703"/>
</linearGradient>
<linearGradient id="paint2_linear_1409_17909" x1="15.1071" y1="-1.11898e-05" x2="53.0229" y2="2.03201" gradientUnits="userSpaceOnUse">
<stop stop-color="#F7BD50"/>
<stop offset="1" stop-color="#DA7703"/>
</linearGradient>
<clipPath id="clip0_1409_17909">
<rect width="22" height="22" fill="white"/>
</clipPath>
</defs>
</svg>
