<svg width="40" height="40" viewBox="0 0 40 40" fill="none" xmlns="http://www.w3.org/2000/svg">
<g opacity="0.6">
<path d="M14.2477 7.51291C16.0581 1.94101 23.9409 1.94101 25.7513 7.51291C26.5609 10.0047 28.883 11.6918 31.5031 11.6918C37.3617 11.6918 39.7976 19.1888 35.0579 22.6324C32.9382 24.1724 32.0513 26.9022 32.8609 29.394C34.6713 34.9659 28.2941 39.5993 23.5543 36.1557C21.4346 34.6156 18.5644 34.6156 16.4447 36.1557C11.705 39.5993 5.32768 34.9659 7.1381 29.394C7.94774 26.9022 7.06078 24.1724 4.94111 22.6324C0.201366 19.1888 2.63727 11.6918 8.49591 11.6918C11.116 11.6918 13.4381 10.0047 14.2477 7.51291Z" stroke="#FAFAFA" stroke-width="2.5"/>
</g>
</svg>
