<svg width="130" height="203" viewBox="0 0 130 203" fill="none" xmlns="http://www.w3.org/2000/svg">
<path opacity="0.1" fill-rule="evenodd" clip-rule="evenodd" d="M232 31.705C197.252 49.319 179.878 70.0151 179.878 93.7939C194.688 95.5553 206.936 101.794 216.62 112.509C226.304 123.224 231.146 135.627 231.146 149.718C231.146 164.69 226.446 177.313 217.047 187.588C207.648 197.863 195.828 203 181.587 203C165.637 203 151.823 196.321 140.145 182.964C128.467 169.607 122.629 153.388 122.629 134.306C122.629 77.0604 153.674 32.2923 215.765 0L232 31.705ZM109.371 31.705C74.3382 49.319 56.8219 70.0151 56.8219 93.7939C71.9175 95.5553 84.3071 101.794 93.9911 112.509C103.675 123.224 108.517 135.627 108.517 149.718C108.517 164.69 103.746 177.313 94.2047 187.588C84.6631 197.863 72.7719 203 58.5308 203C42.5807 203 28.8382 196.321 17.3029 182.964C5.76758 169.607 0 153.388 0 134.306C0 77.0604 30.9028 32.2923 92.7094 0L109.371 31.705Z" fill="#BABABA"/>
</svg>
