<svg width="40" height="40" viewBox="0 0 40 40" fill="none" xmlns="http://www.w3.org/2000/svg">
<rect width="40" height="40" rx="8" fill="white" fill-opacity="0.1"/>
<path d="M14.4549 29.7553L14.6867 29.042L14.4549 29.7553ZM11.2447 26.5451L11.958 26.3133L11.2447 26.5451ZM28.7553 26.5451L28.042 26.3133L28.7553 26.5451ZM25.5451 29.7553L25.3133 29.042L25.5451 29.7553ZM25.5451 16.2447L25.3133 16.958L25.5451 16.2447ZM28.7553 19.4549L28.042 19.6867L28.7553 19.4549ZM14.4549 16.2447L14.6867 16.958L14.4549 16.2447ZM11.2447 19.4549L11.958 19.6867L11.2447 19.4549ZM19.25 27C19.25 27.4142 19.5858 27.75 20 27.75C20.4142 27.75 20.75 27.4142 20.75 27H19.25ZM18 16.75H22V15.25H18V16.75ZM22 29.25H18V30.75H22V29.25ZM18 29.25C16.0803 29.25 15.2984 29.2407 14.6867 29.042L14.2232 30.4686C15.1178 30.7593 16.1971 30.75 18 30.75V29.25ZM10.25 23C10.25 24.8029 10.2407 25.8822 10.5314 26.7768L11.958 26.3133C11.7593 25.7016 11.75 24.9197 11.75 23H10.25ZM14.6867 29.042C13.3928 28.6216 12.3784 27.6072 11.958 26.3133L10.5314 26.7768C11.1002 28.5274 12.4726 29.8998 14.2232 30.4686L14.6867 29.042ZM28.25 23C28.25 24.9197 28.2407 25.7016 28.042 26.3133L29.4686 26.7768C29.7593 25.8822 29.75 24.8029 29.75 23H28.25ZM22 30.75C23.8029 30.75 24.8822 30.7593 25.7768 30.4686L25.3133 29.042C24.7016 29.2407 23.9197 29.25 22 29.25V30.75ZM28.042 26.3133C27.6216 27.6072 26.6072 28.6216 25.3133 29.042L25.7768 30.4686C27.5274 29.8998 28.8998 28.5274 29.4686 26.7768L28.042 26.3133ZM29.75 23C29.75 21.1971 29.7593 20.1178 29.4686 19.2232L28.042 19.6867C28.2407 20.2984 28.25 21.0803 28.25 23H29.75ZM25.3133 16.958C26.6072 17.3784 27.6216 18.3928 28.042 19.6867L29.4686 19.2232C28.8998 17.4726 27.5274 16.1002 25.7768 15.5314L25.3133 16.958ZM11.75 23C11.75 21.0803 11.7593 20.2984 11.958 19.6867L10.5314 19.2232C10.2407 20.1178 10.25 21.1971 10.25 23H11.75ZM14.2232 15.5314C12.4726 16.1002 11.1002 17.4726 10.5314 19.2232L11.958 19.6867C12.3784 18.3928 13.3928 17.3784 14.6867 16.958L14.2232 15.5314ZM24.25 15V16H25.75V15H24.25ZM15.75 16V15H14.25V16H15.75ZM20 10.75C22.3472 10.75 24.25 12.6528 24.25 15H25.75C25.75 11.8244 23.1756 9.25 20 9.25V10.75ZM20 9.25C16.8244 9.25 14.25 11.8244 14.25 15H15.75C15.75 12.6528 17.6528 10.75 20 10.75V9.25ZM19.25 23V27H20.75V23H19.25ZM17.25 21C17.25 22.5188 18.4812 23.75 20 23.75V22.25C19.3096 22.25 18.75 21.6904 18.75 21H17.25ZM20 23.75C21.5188 23.75 22.75 22.5188 22.75 21H21.25C21.25 21.6904 20.6904 22.25 20 22.25V23.75ZM22.75 21C22.75 19.4812 21.5188 18.25 20 18.25V19.75C20.6904 19.75 21.25 20.3096 21.25 21H22.75ZM20 18.25C18.4812 18.25 17.25 19.4812 17.25 21H18.75C18.75 20.3096 19.3096 19.75 20 19.75V18.25ZM18 15.25C16.5885 15.25 15.6278 15.2474 14.8754 15.3741L15.1246 16.8533C15.7222 16.7526 16.5281 16.75 18 16.75V15.25ZM14.8754 15.3741C14.6477 15.4125 14.4326 15.4634 14.2232 15.5314L14.6867 16.958C14.8169 16.9157 14.9593 16.8811 15.1246 16.8533L14.8754 15.3741ZM14.25 16V16.1137H15.75V16H14.25ZM22 16.75C23.4719 16.75 24.2778 16.7526 24.8754 16.8533L25.1246 15.3741C24.3722 15.2474 23.4115 15.25 22 15.25V16.75ZM24.8754 16.8533C25.0407 16.8811 25.1831 16.9157 25.3133 16.958L25.7768 15.5314C25.5674 15.4634 25.3523 15.4125 25.1246 15.3741L24.8754 16.8533ZM24.25 16V16.1137H25.75V16H24.25Z" fill="url(#paint0_linear_2085_22482)"/>
<defs>
<linearGradient id="paint0_linear_2085_22482" x1="7.2875" y1="6.57895" x2="33.5099" y2="9.17684" gradientUnits="userSpaceOnUse">
<stop stop-color="#85FF71"/>
<stop offset="1" stop-color="#13C424"/>
</linearGradient>
</defs>
</svg>
