<svg width="28" height="28" viewBox="0 0 28 28" fill="none" xmlns="http://www.w3.org/2000/svg">
<path fill-rule="evenodd" clip-rule="evenodd" d="M19.528 16.5327C19.8222 16.2411 19.8243 15.7662 19.5327 15.472L17.7539 13.6773C17.084 13.0013 16.5364 12.4489 16.0485 12.0571C15.5412 11.6496 15.0263 11.3547 14.4082 11.2759C14.1371 11.2414 13.8629 11.2414 13.5918 11.2759C12.9737 11.3547 12.4588 11.6496 11.9515 12.0571C11.4636 12.4489 10.916 13.0013 10.2461 13.6773L8.46731 15.472C8.17573 15.7662 8.17784 16.2411 8.47204 16.5327C8.76624 16.8243 9.24111 16.8222 9.53269 16.528L11.28 14.765C11.9891 14.0495 12.4772 13.5587 12.8907 13.2266C13.2924 12.904 13.5504 12.7933 13.7815 12.7639C13.9266 12.7454 14.0734 12.7454 14.2185 12.7639C14.4496 12.7933 14.7076 12.904 15.1093 13.2266C15.5228 13.5587 16.0109 14.0495 16.72 14.765L18.4673 16.528C18.7589 16.8222 19.2338 16.8243 19.528 16.5327Z" fill="#FAFAFA"/>
</svg>
