<svg width="40" height="40" viewBox="0 0 40 40" fill="none" xmlns="http://www.w3.org/2000/svg">
<rect width="40" height="40" rx="8" fill="white" fill-opacity="0.1"/>
<path d="M26.8891 24L26.2316 23.6392L26.8891 24ZM13.1112 24L12.4536 24.3608L13.1112 24ZM11.0254 16.2087L10.2763 16.2465L11.0254 16.2087ZM25.2551 26.2795L25.8222 26.7703L25.2551 26.2795ZM14.7452 26.2795L15.3123 25.7886L14.7452 26.2795ZM28.983 15.6369L29.7325 15.6656L28.983 15.6369ZM23.5841 18.4706C23.844 18.148 23.7932 17.6759 23.4707 17.416C23.1481 17.1561 22.676 17.2069 22.4161 17.5294L23.5841 18.4706ZM20.9786 20.5088L20.3946 20.0382L20.9786 20.5088ZM17.5216 20.5088L16.9376 20.9794V20.9794L17.5216 20.5088ZM17.5841 19.391C17.3242 19.0685 16.8521 19.0177 16.5295 19.2776C16.207 19.5375 16.1562 20.0096 16.4161 20.3321L17.5841 19.391ZM28.2336 15.6082C28.1545 17.6729 27.7519 20.8686 26.2316 23.6392L27.5466 24.3608C29.23 21.2931 29.6497 17.8267 29.7325 15.6656L28.2336 15.6082ZM26.2316 23.6392C25.8427 24.348 25.3041 25.0768 24.688 25.7886L25.8222 26.7703C26.481 26.0092 27.0904 25.1923 27.5466 24.3608L26.2316 23.6392ZM15.3123 25.7886C14.6962 25.0768 14.1576 24.348 13.7687 23.6392L12.4536 24.3608C12.9099 25.1923 13.5193 26.0092 14.1781 26.7703L15.3123 25.7886ZM13.7687 23.6392C12.2902 20.9448 11.8699 18.0616 11.7744 16.1709L10.2763 16.2465C10.3778 18.2575 10.8245 21.3918 12.4536 24.3608L13.7687 23.6392ZM13.1708 14.8333H13.4796V13.3333H13.1708V14.8333ZM26.229 14.25H26.8183V12.75H26.229V14.25ZM23.729 11.75C23.729 13.1307 24.8483 14.25 26.229 14.25V12.75C25.6767 12.75 25.229 12.3023 25.229 11.75H23.729ZM13.4796 14.8333C15.0214 14.8333 16.2713 13.5835 16.2713 12.0417H14.7713C14.7713 12.755 14.193 13.3333 13.4796 13.3333V14.8333ZM17.563 9.25C16.0212 9.25 14.7713 10.4999 14.7713 12.0417H16.2713C16.2713 11.3283 16.8496 10.75 17.563 10.75V9.25ZM11.7744 16.1709C11.7381 15.4515 12.3306 14.8333 13.1708 14.8333V13.3333C11.5947 13.3333 10.1908 14.5527 10.2763 16.2465L11.7744 16.1709ZM24.688 25.7886C23.6779 26.9557 22.9958 27.7373 22.2988 28.2479C21.6513 28.7223 20.9889 28.9607 20.0001 28.9607V30.4607C21.2964 30.4607 22.2716 30.1273 23.1853 29.4579C24.0496 28.8248 24.8524 27.8908 25.8222 26.7703L24.688 25.7886ZM14.1781 26.7703C15.1479 27.8908 15.9507 28.8248 16.815 29.4579C17.7287 30.1273 18.7038 30.4607 20.0001 30.4607V28.9607C19.0113 28.9607 18.349 28.7223 17.7014 28.2479C17.0045 27.7373 16.3224 26.9557 15.3123 25.7886L14.1781 26.7703ZM22.729 10.75C23.2813 10.75 23.729 11.1977 23.729 11.75H25.229C25.229 10.3693 24.1097 9.25 22.729 9.25V10.75ZM29.7325 15.6656C29.7971 13.98 28.4032 12.75 26.8183 12.75V14.25C27.656 14.25 28.2618 14.8731 28.2336 15.6082L29.7325 15.6656ZM22.4161 17.5294L20.3946 20.0382L21.5626 20.9794L23.5841 18.4706L22.4161 17.5294ZM18.1056 20.0382L17.5841 19.391L16.4161 20.3321L16.9376 20.9794L18.1056 20.0382ZM20.3946 20.0382C19.9795 20.5533 19.7176 20.8755 19.4996 21.0791C19.3972 21.1747 19.3318 21.2173 19.2942 21.2361C19.2649 21.2508 19.2553 21.25 19.2501 21.25V22.75C19.7878 22.75 20.1955 22.4816 20.5234 22.1753C20.8377 21.8818 21.1766 21.4584 21.5626 20.9794L20.3946 20.0382ZM16.9376 20.9794C17.3236 21.4584 17.6624 21.8818 17.9767 22.1753C18.3047 22.4816 18.7123 22.75 19.2501 22.75V21.25C19.2449 21.25 19.2353 21.2508 19.206 21.2361C19.1684 21.2173 19.103 21.1747 19.0005 21.0791C18.7826 20.8755 18.5207 20.5533 18.1056 20.0382L16.9376 20.9794ZM17.563 10.75H22.729V9.25H17.563V10.75Z" fill="url(#paint0_linear_2085_22481)"/>
<defs>
<linearGradient id="paint0_linear_2085_22481" x1="7.31807" y1="6.62843" x2="33.4786" y2="9.25266" gradientUnits="userSpaceOnUse">
<stop stop-color="#85FF71"/>
<stop offset="1" stop-color="#13C424"/>
</linearGradient>
</defs>
</svg>
