<svg width="28" height="28" viewBox="0 0 28 28" fill="none" xmlns="http://www.w3.org/2000/svg">
<path fill-rule="evenodd" clip-rule="evenodd" d="M19.528 11.4673C19.8222 11.7589 19.8243 12.2338 19.5327 12.528L17.7539 14.3227C17.084 14.9987 16.5364 15.5511 16.0485 15.9429C15.5412 16.3504 15.0263 16.6453 14.4082 16.7241C14.1371 16.7586 13.8629 16.7586 13.5918 16.7241C12.9737 16.6453 12.4588 16.3504 11.9515 15.9429C11.4636 15.5511 10.916 14.9987 10.2461 14.3227L8.46731 12.528C8.17573 12.2338 8.17784 11.7589 8.47204 11.4673C8.76624 11.1757 9.24111 11.1778 9.53269 11.472L11.28 13.235C11.9891 13.9505 12.4772 14.4413 12.8907 14.7734C13.2924 15.096 13.5504 15.2067 13.7815 15.2361C13.9266 15.2546 14.0734 15.2546 14.2185 15.2361C14.4496 15.2067 14.7076 15.096 15.1093 14.7734C15.5228 14.4413 16.0109 13.9505 16.72 13.235L18.4673 11.472C18.7589 11.1778 19.2338 11.1757 19.528 11.4673Z" fill="#FAFAFA"/>
</svg>
