<svg width="40" height="40" viewBox="0 0 40 40" fill="none" xmlns="http://www.w3.org/2000/svg">
<rect width="40" height="40" rx="8" fill="white" fill-opacity="0.1"/>
<path d="M13.73 27.455L14.0705 26.7868L13.73 27.455ZM11.545 25.27L12.2132 24.9295L11.545 25.27ZM28.455 25.27L27.7868 24.9295L28.455 25.27ZM26.27 27.455L25.9295 26.7868L26.27 27.455ZM26.27 12.545L25.9295 13.2132L26.27 12.545ZM28.455 14.73L29.1233 14.3896L28.455 14.73ZM13.73 12.545L14.0705 13.2132L13.73 12.545ZM11.545 14.73L10.8767 14.3896L11.545 14.73ZM25 25.75C25.4142 25.75 25.75 25.4142 25.75 25C25.75 24.5858 25.4142 24.25 25 24.25V25.75ZM21 24.25C20.5858 24.25 20.25 24.5858 20.25 25C20.25 25.4142 20.5858 25.75 21 25.75V24.25ZM28.989 18L29.7388 17.9856L28.989 18ZM11.011 18L10.2612 17.9856L11.011 18ZM19 12.75H21V11.25H19V12.75ZM21 27.25H19V28.75H21V27.25ZM19 27.25C17.5875 27.25 16.5732 27.2494 15.7771 27.1844C14.9897 27.12 14.482 26.9964 14.0705 26.7868L13.3896 28.1233C14.0477 28.4586 14.7748 28.6075 15.6549 28.6794C16.5263 28.7506 17.6122 28.75 19 28.75V27.25ZM10.25 20C10.25 21.3878 10.2494 22.4737 10.3206 23.3451C10.3925 24.2252 10.5414 24.9523 10.8767 25.6104L12.2132 24.9295C12.0036 24.518 11.88 24.0103 11.8156 23.2229C11.7506 22.4268 11.75 21.4125 11.75 20H10.25ZM14.0705 26.7868C13.2709 26.3793 12.6207 25.7291 12.2132 24.9295L10.8767 25.6104C11.428 26.6924 12.3076 27.572 13.3896 28.1233L14.0705 26.7868ZM28.25 20C28.25 21.4125 28.2494 22.4268 28.1844 23.2229C28.12 24.0103 27.9964 24.518 27.7868 24.9295L29.1233 25.6104C29.4586 24.9523 29.6075 24.2252 29.6794 23.3451C29.7506 22.4737 29.75 21.3878 29.75 20H28.25ZM21 28.75C22.3878 28.75 23.4737 28.7506 24.3451 28.6794C25.2252 28.6075 25.9523 28.4586 26.6104 28.1233L25.9295 26.7868C25.518 26.9964 25.0103 27.12 24.2229 27.1844C23.4268 27.2494 22.4125 27.25 21 27.25V28.75ZM27.7868 24.9295C27.3793 25.7291 26.7291 26.3793 25.9295 26.7868L26.6104 28.1233C27.6924 27.572 28.572 26.6924 29.1233 25.6104L27.7868 24.9295ZM21 12.75C22.4125 12.75 23.4268 12.7506 24.2229 12.8156C25.0103 12.88 25.518 13.0036 25.9295 13.2132L26.6104 11.8767C25.9523 11.5414 25.2252 11.3925 24.3451 11.3206C23.4737 11.2494 22.3878 11.25 21 11.25V12.75ZM25.9295 13.2132C26.7291 13.6207 27.3793 14.2709 27.7868 15.0705L29.1233 14.3896C28.572 13.3076 27.6924 12.428 26.6104 11.8767L25.9295 13.2132ZM19 11.25C17.6122 11.25 16.5263 11.2494 15.6549 11.3206C14.7748 11.3925 14.0477 11.5414 13.3896 11.8767L14.0705 13.2132C14.482 13.0036 14.9897 12.88 15.7771 12.8156C16.5732 12.7506 17.5875 12.75 19 12.75V11.25ZM13.3896 11.8767C12.3076 12.428 11.428 13.3076 10.8767 14.3896L12.2132 15.0705C12.6207 14.2709 13.2709 13.6207 14.0705 13.2132L13.3896 11.8767ZM25 24.25H21V25.75H25V24.25ZM29.75 20C29.75 19.2386 29.75 18.5713 29.7388 17.9856L28.2391 18.0144C28.25 18.5827 28.25 19.2343 28.25 20H29.75ZM29.7388 17.9856C29.7094 16.4494 29.6061 15.3371 29.1233 14.3896L27.7868 15.0705C28.0968 15.6789 28.2096 16.4722 28.2391 18.0144L29.7388 17.9856ZM28.989 17.25H11.011V18.75H28.989V17.25ZM11.75 20C11.75 19.2343 11.75 18.5827 11.7609 18.0144L10.2612 17.9856C10.25 18.5713 10.25 19.2386 10.25 20H11.75ZM11.7609 18.0144C11.7904 16.4722 11.9032 15.6789 12.2132 15.0705L10.8767 14.3896C10.3939 15.3371 10.2906 16.4494 10.2612 17.9856L11.7609 18.0144Z" fill="url(#paint0_linear_2085_22484)"/>
<defs>
<linearGradient id="paint0_linear_2085_22484" x1="7.2875" y1="9.26316" x2="33.3674" y2="12.4929" gradientUnits="userSpaceOnUse">
<stop stop-color="#85FF71"/>
<stop offset="1" stop-color="#13C424"/>
</linearGradient>
</defs>
</svg>
