<svg width="40" height="40" viewBox="0 0 40 40" fill="none" xmlns="http://www.w3.org/2000/svg">
<rect width="40" height="40" rx="8" fill="white" fill-opacity="0.1"/>
<path d="M17.356 20.2765L17.8864 19.7461L17.356 20.2765ZM19.7529 22.6733L19.2225 23.2036L19.7529 22.6733ZM23.6721 29.9582L23.8348 29.226L23.6721 29.9582ZM10.0712 16.3572L10.8033 16.1946L10.0712 16.3572ZM27.4518 28.1314L26.8995 27.6239L27.4518 28.1314ZM27.4518 25.425L26.8995 25.9324L27.4518 25.425ZM11.8979 12.5776L12.4054 13.1298L11.8979 12.5776ZM14.6044 12.5776L14.0969 13.1298L14.6044 12.5776ZM26.3639 18.6267H25.6139H26.3639ZM25.6139 19.1924C25.6139 19.6066 25.9497 19.9424 26.3639 19.9424C26.7782 19.9424 27.1139 19.6066 27.1139 19.1924H25.6139ZM20.7071 12.7855C20.2929 12.7855 19.9571 13.1213 19.9571 13.5355C19.9571 13.9497 20.2929 14.2855 20.7071 14.2855V12.7855ZM21.2728 13.5355V14.2855H21.2728L21.2728 13.5355ZM26.3634 18.4639L27.1134 18.4532L26.3634 18.4639ZM21.4355 13.536L21.4463 12.7861L21.4463 12.7861L21.4355 13.536ZM29.8996 18.9095H30.6496H29.8996ZM29.1496 19.8995C29.1496 20.3137 29.4854 20.6495 29.8996 20.6495C30.3138 20.6495 30.6496 20.3137 30.6496 19.8995H29.1496ZM20.0001 9.25C19.5859 9.25 19.2501 9.58579 19.2501 10C19.2501 10.4142 19.5859 10.75 20.0001 10.75V9.25ZM20.99 10V10.75H20.99L20.99 10ZM29.8677 17.2866L29.1207 17.3535V17.3535L29.8677 17.2866ZM22.613 10.0319L22.5461 10.7789V10.7789L22.613 10.0319ZM26.7869 27.7381L25.9005 28.6245L26.9612 29.6851L27.8475 28.7988L26.7869 27.7381ZM11.4048 14.1288L12.2912 13.2425L11.2305 12.1818L10.3442 13.0681L11.4048 14.1288ZM25.3287 24.36L26.7869 25.8182L27.8475 24.7575L26.3893 23.2993L25.3287 24.36ZM14.2111 13.2425L15.6693 14.7006L16.73 13.64L15.2718 12.1818L14.2111 13.2425ZM16.0903 16.9237C15.5139 18.2462 15.8056 19.7867 16.8257 20.8068L17.8864 19.7461C17.3024 19.1621 17.1353 18.2802 17.4654 17.5231L16.0903 16.9237ZM19.2225 23.2036C20.2426 24.2237 21.7832 24.5155 23.1056 23.939L22.5062 22.564C21.7491 22.894 20.8672 22.7269 20.2832 22.1429L19.2225 23.2036ZM23.8348 29.226C17.3294 27.7804 12.2489 22.6999 10.8033 16.1946L9.33901 16.5199C10.911 23.5938 16.4355 29.1183 23.5094 30.6903L23.8348 29.226ZM15.6693 14.7006C16.2533 15.2846 16.4203 16.1666 16.0903 16.9237L17.4654 17.5231C18.0418 16.2006 17.7501 14.6601 16.73 13.64L15.6693 14.7006ZM10.3442 13.0681C9.44107 13.9712 9.06195 15.2732 9.33901 16.5199L10.8033 16.1946C10.6375 15.4484 10.8644 14.6693 11.4048 14.1288L10.3442 13.0681ZM25.9005 28.6245C25.3601 29.165 24.5809 29.3918 23.8348 29.226L23.5094 30.6903C24.7562 30.9674 26.0581 30.5883 26.9612 29.6851L25.9005 28.6245ZM27.8475 28.7988C27.9128 28.7336 27.962 28.6846 28.004 28.6388L26.8995 27.6239C26.8843 27.6404 26.8629 27.6621 26.7869 27.7381L27.8475 28.7988ZM26.7869 25.8182C26.8629 25.8943 26.8843 25.9159 26.8995 25.9324L28.004 24.9175C27.962 24.8718 27.9128 24.8228 27.8475 24.7575L26.7869 25.8182ZM28.004 28.6388C28.9708 27.5867 28.9708 25.9696 28.004 24.9175L26.8995 25.9324C27.3389 26.4106 27.3389 27.1457 26.8995 27.6239L28.004 28.6388ZM26.3893 23.2993C25.3692 22.2792 23.8287 21.9875 22.5062 22.564L23.1056 23.939C23.8627 23.609 24.7447 23.776 25.3287 24.36L26.3893 23.2993ZM12.2912 13.2425C12.3672 13.1664 12.3889 13.145 12.4054 13.1298L11.3905 12.0253C11.3448 12.0673 11.2957 12.1166 11.2305 12.1818L12.2912 13.2425ZM15.2718 12.1818C15.2066 12.1166 15.1575 12.0673 15.1118 12.0253L14.0969 13.1298C14.1134 13.145 14.1351 13.1664 14.2111 13.2425L15.2718 12.1818ZM12.4054 13.1298C12.8836 12.6904 13.6187 12.6904 14.0969 13.1298L15.1118 12.0253C14.0597 11.0586 12.4426 11.0586 11.3905 12.0253L12.4054 13.1298ZM16.8257 20.8068L19.2225 23.2036L20.2832 22.1429L17.8864 19.7461L16.8257 20.8068ZM25.6139 18.6267V19.1924H27.1139V18.6267H25.6139ZM20.7071 14.2855H21.2728V12.7855H20.7071V14.2855ZM27.1139 18.6267C27.1139 18.5446 27.114 18.4957 27.1134 18.4532L25.6135 18.4747C25.6139 18.5037 25.6139 18.5395 25.6139 18.6267H27.1139ZM21.2728 14.2855C21.36 14.2855 21.3957 14.2856 21.4248 14.286L21.4463 12.7861C21.4038 12.7855 21.3548 12.7855 21.2728 12.7855L21.2728 14.2855ZM27.1134 18.4532C27.0688 15.342 24.5575 12.8307 21.4463 12.7861L21.4248 14.286C23.7244 14.3189 25.5806 16.1751 25.6135 18.4747L27.1134 18.4532ZM29.1496 18.9095V19.8995H30.6496V18.9095H29.1496ZM20.0001 10.75L20.99 10.75V9.25L20.0001 9.25V10.75ZM30.6496 18.9095C30.6496 18.0811 30.6503 17.6175 30.6147 17.2197L29.1207 17.3535C29.1488 17.6677 29.1496 18.0487 29.1496 18.9095H30.6496ZM20.99 10.75C21.8509 10.75 22.2319 10.7508 22.5461 10.7789L22.6799 9.28486C22.2821 9.24925 21.8184 9.25 20.99 9.25L20.99 10.75ZM30.6147 17.2197C30.2373 13.0036 26.8959 9.66233 22.6799 9.28486L22.5461 10.7789C26.0394 11.0916 28.8079 13.8602 29.1207 17.3535L30.6147 17.2197Z" fill="url(#paint0_linear_2085_22483)"/>
<defs>
<linearGradient id="paint0_linear_2085_22483" x1="5.89571" y1="6.57393" x2="34.824" y2="9.73771" gradientUnits="userSpaceOnUse">
<stop stop-color="#85FF71"/>
<stop offset="1" stop-color="#13C424"/>
</linearGradient>
</defs>
</svg>
