<svg width="12" height="13" viewBox="0 0 12 13" fill="none" xmlns="http://www.w3.org/2000/svg">
<path d="M9.09169 0.860836C9.63943 0.85826 10.0158 0.857141 10.3024 0.890137C10.3956 0.900861 10.4735 0.914679 10.5396 0.931381L4.76058 7.02225C4.60133 7.1901 4.60133 7.46223 4.76058 7.63008C4.91984 7.79793 5.17804 7.79793 5.3373 7.63008L11.1163 1.53922C11.1322 1.6089 11.1453 1.69097 11.1554 1.78916C11.1867 2.09131 11.1857 2.48795 11.1832 3.06525L11.1772 4.48769C11.1762 4.72506 11.358 4.91835 11.5832 4.91941C11.8084 4.92047 11.9918 4.7289 11.9928 4.49153L11.9989 3.04347C12.0013 2.49806 12.0031 2.05231 11.9662 1.69584C11.9278 1.32516 11.8432 0.996983 11.6359 0.714584C11.591 0.653452 11.5425 0.59541 11.4909 0.540773C11.4379 0.484746 11.3815 0.432305 11.322 0.383791C11.0541 0.165244 10.7427 0.0760915 10.391 0.0356113C10.0528 -0.0033168 9.62984 -0.00132001 9.11237 0.00112315L7.73844 0.00758408C7.51323 0.00864314 7.33146 0.201929 7.33247 0.439301C7.33347 0.676672 7.51686 0.868241 7.74208 0.867182L9.09169 0.860836Z" fill="#BABABA"/>
<path d="M6.39371 1.82927C6.06441 1.82511 5.70169 1.82511 5.30312 1.82511H5.27676C4.27818 1.82511 3.49543 1.82511 2.87441 1.89602C2.24068 1.96839 1.72719 2.11871 1.28877 2.45443C1.02335 2.65768 0.789936 2.90369 0.597098 3.18343C0.278566 3.64551 0.135936 4.1867 0.0672747 4.85464C-7.89965e-06 5.50917 -4.36805e-06 6.33416 7.19556e-08 7.38663V7.43849C-4.36805e-06 8.49095 -7.89965e-06 9.31595 0.0672747 9.97047C0.135936 10.6384 0.278566 11.1796 0.597098 11.6417C0.789935 11.9214 1.02335 12.1674 1.28877 12.3707C1.72719 12.7064 2.24068 12.8567 2.87441 12.9291C3.49541 13 4.27815 13 5.27671 13H5.32598C6.32453 13 7.10731 13 7.72831 12.9291C8.36205 12.8567 8.87554 12.7064 9.31396 12.3707C9.57938 12.1674 9.81279 11.9214 10.0056 11.6417C10.3242 11.1796 10.4668 10.6384 10.5355 9.97047C10.6027 9.31596 10.6027 8.49098 10.6027 7.43854V7.41058C10.6027 6.99055 10.6027 6.6083 10.5988 6.26126C10.5961 6.02391 10.4113 5.8338 10.1861 5.83664C9.96092 5.83949 9.78054 6.03421 9.78324 6.27157C9.78712 6.61298 9.78713 6.99038 9.78713 7.41256C9.78713 8.49656 9.78657 9.27504 9.7246 9.87788C9.66346 10.4727 9.54648 10.8453 9.3458 11.1364C9.20327 11.3432 9.03074 11.525 8.83457 11.6752C8.55835 11.8868 8.2048 12.01 7.64046 12.0745C7.06849 12.1398 6.32987 12.1404 5.30136 12.1404C4.27286 12.1404 3.53424 12.1398 2.96226 12.0745C2.39792 12.01 2.04438 11.8868 1.76816 11.6752C1.57198 11.525 1.39946 11.3432 1.25693 11.1364C1.05624 10.8453 0.939267 10.4727 0.878124 9.87788C0.816154 9.27504 0.815594 8.49656 0.815594 7.41256C0.815594 6.32855 0.816154 5.55007 0.878124 4.94723C0.939267 4.35243 1.05624 3.97981 1.25693 3.68869C1.39946 3.48193 1.57198 3.30009 1.76816 3.14987C2.04438 2.93836 2.39792 2.81507 2.96226 2.75062C3.53424 2.68531 4.27286 2.68472 5.30136 2.68472C5.70192 2.68472 6.06 2.68473 6.38393 2.68882C6.60914 2.69166 6.79389 2.50156 6.79659 2.2642C6.79929 2.02684 6.61891 1.83212 6.39371 1.82927Z" fill="#BABABA"/>
</svg>
