<svg width="25" height="25" viewBox="0 0 25 25" fill="none" xmlns="http://www.w3.org/2000/svg">
<path d="M24.7025 9.06497C24.626 8.83972 24.4852 8.6418 24.2976 8.49564C24.1099 8.34948 23.8835 8.26148 23.6464 8.2425L16.7102 7.69135L13.7087 1.04714C13.6131 0.833139 13.4576 0.65138 13.261 0.523796C13.0644 0.396211 12.8351 0.328254 12.6007 0.328125C12.3663 0.327997 12.1369 0.395702 11.9402 0.523071C11.7434 0.650439 11.5877 0.832027 11.4919 1.04592L8.49039 7.69135L1.55418 8.2425C1.32113 8.26096 1.09834 8.34618 0.912451 8.48794C0.726565 8.62971 0.585457 8.82203 0.506009 9.04189C0.426561 9.26175 0.412137 9.49985 0.464462 9.72769C0.516787 9.95554 0.633647 10.1635 0.801059 10.3267L5.92688 15.3235L4.11404 23.1734C4.059 23.4111 4.07664 23.6597 4.16468 23.8872C4.25272 24.1146 4.40709 24.3104 4.60777 24.449C4.80844 24.5877 5.04615 24.6628 5.29005 24.6646C5.53395 24.6665 5.77278 24.595 5.97554 24.4595L12.6003 20.043L19.225 24.4595C19.4323 24.5971 19.6767 24.6679 19.9254 24.6624C20.1741 24.657 20.4152 24.5755 20.6162 24.4289C20.8172 24.2824 20.9685 24.0778 21.0498 23.8427C21.131 23.6076 21.1383 23.3532 21.0707 23.1138L18.8454 15.3272L24.3642 10.3607C24.7256 10.0347 24.8582 9.52609 24.7025 9.06497V9.06497Z" fill="url(#paint0_linear_922_12422)"/>
<defs>
<linearGradient id="paint0_linear_922_12422" x1="-12.9883" y1="0.328113" x2="21.2154" y2="1.82153" gradientUnits="userSpaceOnUse">
<stop stop-color="#F7BD50"/>
<stop offset="1" stop-color="#DA7703"/>
</linearGradient>
</defs>
</svg>
