<svg width="20" height="20" viewBox="0 0 20 20" xmlns="http://www.w3.org/2000/svg">
<path fill-rule="evenodd" clip-rule="evenodd" d="M6.53113 3.56308C7.62343 0.201306 12.3794 0.201306 13.4717 3.56308C13.7929 4.55148 14.714 5.22067 15.7532 5.22067C19.288 5.22067 20.7577 9.7439 17.898 11.8216C17.0572 12.4325 16.7054 13.5152 17.0266 14.5036C18.1189 17.8654 14.2712 20.6609 11.4115 18.5832C10.5707 17.9724 9.43218 17.9724 8.5914 18.5832C5.73171 20.6609 1.88402 17.8654 2.97632 14.5036C3.29748 13.5152 2.94566 12.4325 2.10487 11.8216C-0.754818 9.7439 0.71487 5.22067 4.24964 5.22067C5.28891 5.22067 6.20998 4.55148 6.53113 3.56308ZM12.2829 3.94935C11.5648 1.73922 8.43806 1.73922 7.71995 3.94935C7.23146 5.45278 5.83044 6.47067 4.24964 6.47067C1.92577 6.47067 0.959556 9.44438 2.83961 10.8103C4.1185 11.7395 4.65364 13.3865 4.16515 14.8899C3.44703 17.1 5.97662 18.9379 7.85667 17.572C9.13556 16.6428 10.8673 16.6428 12.1462 17.572C14.0263 18.9379 16.5558 17.1 15.8377 14.8899C15.3492 13.3865 15.8844 11.7395 17.1633 10.8103C19.0433 9.44438 18.0771 6.47067 15.7532 6.47067C14.1724 6.47067 12.7714 5.45278 12.2829 3.94935ZM11.4676 5.97981C11.7945 5.86907 12.1493 6.04432 12.2601 6.37126C12.4386 6.89844 12.9623 7.27813 13.5785 7.27813C13.9237 7.27813 14.2035 7.55795 14.2035 7.90313C14.2035 8.24831 13.9237 8.52813 13.5785 8.52813C12.4543 8.52813 11.4354 7.83284 11.0761 6.77229C10.9654 6.44536 11.1407 6.09056 11.4676 5.97981Z"/>
</svg>
