<svg width="25" height="25" viewBox="0 0 25 25" fill="none" xmlns="http://www.w3.org/2000/svg">
<path d="M5.72887 15.3229L3.91604 23.1728C3.8599 23.4105 3.87676 23.6596 3.9644 23.8876C4.05204 24.1156 4.20639 24.3118 4.40729 24.4507C4.6082 24.5896 4.84632 24.6647 5.09055 24.6661C5.33479 24.6676 5.57378 24.5953 5.77632 24.4588L12.4011 20.0423L19.0258 24.4588C19.2331 24.5964 19.4775 24.6673 19.7262 24.6618C19.9749 24.6564 20.2159 24.5749 20.417 24.4283C20.618 24.2818 20.7693 24.0772 20.8505 23.8421C20.9318 23.607 20.9391 23.3526 20.8715 23.1132L18.6462 15.3265L24.165 10.3601C24.3418 10.201 24.468 9.99348 24.5281 9.76335C24.5882 9.53321 24.5795 9.29051 24.5031 9.06526C24.4268 8.84001 24.286 8.64208 24.0984 8.49596C23.9107 8.34984 23.6843 8.26193 23.4472 8.24311L16.511 7.69074L13.5095 1.04653C13.4137 0.832583 13.2582 0.65091 13.0615 0.523433C12.8648 0.395957 12.6354 0.328125 12.4011 0.328125C12.1667 0.328125 11.9373 0.395957 11.7407 0.523433C11.544 0.65091 11.3884 0.832583 11.2927 1.04653L8.29117 7.69074L1.35496 8.24189C1.12191 8.26036 0.899118 8.34557 0.713232 8.48733C0.527346 8.6291 0.386238 8.82142 0.30679 9.04128C0.227342 9.26114 0.212918 9.49924 0.265243 9.72708C0.317569 9.95493 0.434428 10.1629 0.60184 10.326L5.72887 15.3229ZM9.20002 10.0596C9.41719 10.0425 9.62576 9.96727 9.80386 9.84183C9.98196 9.71639 10.123 9.54534 10.2123 9.34663L12.4011 4.50308L14.5899 9.34663C14.6791 9.54534 14.8202 9.71639 14.9983 9.84183C15.1764 9.96727 15.385 10.0425 15.6021 10.0596L20.4347 10.4428L16.455 14.0247C16.1095 14.3362 15.972 14.8155 16.0985 15.2633L17.623 20.5984L13.0775 17.5676C12.878 17.4337 12.6432 17.3622 12.4029 17.3622C12.1626 17.3622 11.9278 17.4337 11.7283 17.5676L6.97839 20.7346L8.25589 15.2037C8.30273 15.0002 8.29644 14.7882 8.23763 14.5879C8.17883 14.3876 8.06947 14.2058 7.92009 14.06L4.22386 10.4562L9.20002 10.0596Z" fill="url(#paint0_linear_917_272)"/>
<defs>
<linearGradient id="paint0_linear_917_272" x1="-13.1875" y1="0.328113" x2="21.0162" y2="1.82144" gradientUnits="userSpaceOnUse">
<stop stop-color="#F7BD50"/>
<stop offset="1" stop-color="#DA7703"/>
</linearGradient>
</defs>
</svg>
