<svg width="20" height="16" viewBox="0 0 20 16" xmlns="http://www.w3.org/2000/svg">
<path fill-rule="evenodd" clip-rule="evenodd" d="M9.99927 1.75024C9.84386 1.75024 9.68423 1.79832 9.08835 2.01114L7.33219 2.63835C5.47942 3.30006 4.15357 3.77509 3.28351 4.22516C2.37227 4.69653 2.24615 4.99794 2.24615 5.18889C2.24615 5.37984 2.37227 5.68125 3.28351 6.15263C4.15357 6.60269 5.47941 7.07772 7.33219 7.73944L9.08835 8.36665C9.68422 8.57946 9.84386 8.62754 9.99927 8.62754C10.1547 8.62754 10.3143 8.57946 10.9102 8.36665L12.7251 7.71846C13.8762 7.30735 14.8281 6.9674 15.5978 6.65545C16.44 6.3141 17.0083 6.02827 17.3606 5.75775C17.699 5.49799 17.7524 5.32174 17.7524 5.18889C17.7524 4.99794 17.6263 4.69653 16.715 4.22516C15.845 3.77509 14.5191 3.30006 12.6664 2.63835L10.9102 2.01114C10.3143 1.79832 10.1547 1.75024 9.99927 1.75024ZM8.74963 0.80473C9.22445 0.634699 9.59993 0.500244 9.99927 0.500244C10.3986 0.500244 10.7741 0.634699 11.2489 0.804729C11.2758 0.814365 11.3031 0.824115 11.3306 0.833961L13.1389 1.47979C14.9285 2.11893 16.335 2.62125 17.2894 3.1149C18.2117 3.59203 19.0024 4.20532 19.0024 5.18889C19.0024 5.85497 18.6318 6.35776 18.1219 6.74924C17.7036 7.07034 17.1373 7.36076 16.4575 7.65163V9.35561C16.4575 9.40112 16.4575 9.44608 16.4575 9.49049C16.4578 10.9124 16.4579 11.7801 16.223 12.503C15.749 13.9617 14.6053 15.1054 13.1466 15.5794C12.4236 15.8143 11.5559 15.8142 10.134 15.814C10.0896 15.8139 10.0447 15.8139 9.99919 15.8139C9.95368 15.8139 9.90874 15.8139 9.86433 15.814C8.44242 15.8142 7.57475 15.8143 6.85181 15.5794C5.39305 15.1054 4.24936 13.9617 3.77537 12.503C3.54048 11.78 3.54062 10.9124 3.54084 9.49047C3.54085 9.44606 3.54085 9.40111 3.54085 9.35561V7.65057C3.23408 7.51927 2.95646 7.39079 2.7092 7.26288C2.56572 7.18866 2.42542 7.11115 2.2908 7.02945C1.55998 6.58599 0.996149 6.01946 0.996149 5.18889C0.996149 4.20532 1.78684 3.59203 2.7092 3.1149C3.66351 2.62125 5.07003 2.11893 6.85965 1.47978L8.66793 0.833961C8.69549 0.824115 8.72272 0.814365 8.74963 0.80473ZM4.79085 8.14742V9.35561C4.79085 10.9553 4.79856 11.607 4.96419 12.1167C5.31453 13.1949 6.15987 14.0403 7.23808 14.3906C7.74784 14.5562 8.39947 14.5639 9.99919 14.5639C11.5989 14.5639 12.2505 14.5562 12.7603 14.3906C13.8385 14.0403 14.6838 13.1949 15.0342 12.1167C15.1998 11.607 15.2075 10.9553 15.2075 9.35561V8.14802C14.6013 8.37573 13.9188 8.61947 13.1653 8.88859L11.3306 9.54382C11.3031 9.55367 11.2758 9.56342 11.2489 9.57305C10.7741 9.74308 10.3986 9.87754 9.99927 9.87754C9.59993 9.87754 9.22445 9.74308 8.74962 9.57305C8.72272 9.56342 8.69549 9.55367 8.66792 9.54382L6.85962 8.89799C6.09907 8.62637 5.40772 8.37946 4.79085 8.14742Z"/>
<path fill-rule="evenodd" clip-rule="evenodd" d="M6.85965 1.47978L8.66793 0.833961C8.69549 0.824115 8.72272 0.814365 8.74963 0.80473C9.22445 0.634699 9.59993 0.500244 9.99927 0.500244C10.3986 0.500244 10.7741 0.634699 11.2489 0.804729C11.2758 0.814365 11.3031 0.824115 11.3306 0.833961L13.1389 1.47979C14.9285 2.11893 16.335 2.62125 17.2894 3.1149C18.2117 3.59203 19.0024 4.20532 19.0024 5.18889C19.0024 6.17247 18.2117 6.78571 17.2893 7.26283C16.335 7.75649 14.9285 8.25881 13.1388 8.89795L11.3306 9.54382C11.3031 9.55367 11.2758 9.56342 11.2489 9.57305C10.7741 9.74308 10.3986 9.87754 9.99927 9.87754C9.59993 9.87754 9.22445 9.74308 8.74962 9.57305C8.72272 9.56342 8.69549 9.55367 8.66792 9.54382L6.85962 8.89799C5.07001 8.25885 3.66351 7.75653 2.7092 7.26288C2.56572 7.18866 2.42542 7.11115 2.2908 7.02945C1.55998 6.58599 0.996149 6.01946 0.996149 5.18889C0.996149 4.20532 1.78684 3.59203 2.7092 3.1149C3.66351 2.62125 5.07003 2.11893 6.85965 1.47978ZM3.28351 4.22516C2.37227 4.69653 2.24615 4.99794 2.24615 5.18889C2.24615 5.37984 2.37227 5.68125 3.28351 6.15263C4.15357 6.60269 5.47941 7.07772 7.33219 7.73944L9.08835 8.36665C9.68422 8.57946 9.84386 8.62754 9.99927 8.62754C10.1547 8.62754 10.3143 8.57946 10.9102 8.36665L12.6663 7.73939C14.5191 7.07768 15.8449 6.60265 16.715 6.15258C17.6262 5.6812 17.7524 5.37984 17.7524 5.18889C17.7524 4.99794 17.6263 4.69653 16.715 4.22516C15.845 3.77509 14.5191 3.30006 12.6664 2.63835L10.9102 2.01114C10.3143 1.79832 10.1547 1.75024 9.99927 1.75024C9.84386 1.75024 9.68423 1.79832 9.08835 2.01114L7.33219 2.63835C5.47942 3.30006 4.15357 3.77509 3.28351 4.22516Z"/>
<path d="M0.996094 11.0319C0.996094 11.3771 1.32062 11.6472 1.6658 11.6472C2.01098 11.6472 2.2908 11.3674 2.2908 11.0222V7.02945C1.55998 6.58599 0.996149 6.01946 0.996149 5.18889L0.996094 11.0319Z"/>
</svg>
