<svg width="20" height="19" viewBox="0 0 20 19" xmlns="http://www.w3.org/2000/svg">
<path d="M5.07345 16.9714L4.7749 17.6595L5.07345 16.9714ZM2.81847 14.6091L2.12101 14.8848H2.12101L2.81847 14.6091ZM17.1841 14.6091L17.8816 14.8848L17.1841 14.6091ZM14.9292 16.9714L15.2277 17.6595L14.9292 16.9714ZM2.5013 8.55373L3.24836 8.62011L3.28507 8.20699L2.95467 7.95627L2.5013 8.55373ZM16.2513 4.80372V4.05372H16.2513L16.2513 4.80372ZM10.6411 3.87796L11.1714 4.40829L10.6411 3.87796ZM12.4089 2.11019L12.9392 2.64052L12.4089 2.11019ZM15.3552 2.11019L14.8248 2.64052L15.3552 2.11019ZM15.5709 4.80371L15.5709 5.55371L15.9537 5.55368L16.1782 5.24372L15.5709 4.80371ZM9.49222 3.87797L8.96189 4.4083L9.49222 3.87797ZM7.72445 2.11021L7.19412 2.64054H7.19412L7.72445 2.11021ZM4.77817 2.11021L5.3085 2.64054L4.77817 2.11021ZM10.0013 16.4704H10.7513H10.0013ZM2.47424 8.53319L2.0141 9.12546H2.0141L2.47424 8.53319ZM17.4475 8.59298L17.0163 7.97927L17.4475 8.59298ZM8.7513 16.5537C7.76984 16.5537 7.07309 16.5533 6.52496 16.5141C5.98428 16.4754 5.64493 16.4019 5.37201 16.2834L4.7749 17.6595C5.2677 17.8733 5.79656 17.9659 6.41802 18.0103C7.03202 18.0542 7.79134 18.0537 8.7513 18.0537V16.5537ZM1.75133 10.7561C1.75133 11.7632 1.75095 12.5545 1.79255 13.1932C1.83454 13.8381 1.92159 14.3805 2.12101 14.8848L3.51593 14.3333C3.39818 14.0355 3.32666 13.6684 3.28938 13.0957C3.25169 12.517 3.25133 11.7829 3.25133 10.7561H1.75133ZM5.37201 16.2834C4.5401 15.9224 3.86847 15.2249 3.51593 14.3333L2.12101 14.8848C2.61426 16.1324 3.5649 17.1344 4.7749 17.6595L5.37201 16.2834ZM16.7513 10.7561C16.7513 11.7828 16.7509 12.517 16.7132 13.0957C16.6759 13.6683 16.6044 14.0355 16.4867 14.3333L17.8816 14.8848C18.081 14.3805 18.1681 13.8381 18.2101 13.1932C18.2517 12.5544 18.2513 11.7632 18.2513 10.7561H16.7513ZM11.2513 18.0537C12.2113 18.0537 12.9706 18.0542 13.5846 18.0103C14.206 17.9659 14.7349 17.8733 15.2277 17.6595L14.6306 16.2834C14.3577 16.4019 14.0183 16.4754 13.4776 16.5141C12.9295 16.5533 12.2328 16.5537 11.2513 16.5537V18.0537ZM16.4867 14.3333C16.1341 15.2249 15.4625 15.9224 14.6306 16.2834L15.2277 17.6595C16.4377 17.1344 17.3883 16.1324 17.8816 14.8848L16.4867 14.3333ZM3.25133 10.7561C3.25133 9.51279 3.19452 9.22605 3.24836 8.62011L1.75425 8.48735C1.69352 9.17077 1.75133 9.70015 1.75133 10.7561H3.25133ZM16.2513 5.55372C16.9877 5.55372 17.5846 6.15067 17.5846 6.88705H19.0846C19.0846 5.32224 17.8161 4.05372 16.2513 4.05372V5.55372ZM3.7513 4.05372C2.1865 4.05372 0.917969 5.32224 0.917969 6.88705H2.41797C2.41797 6.15067 3.01492 5.55372 3.7513 5.55372V4.05372ZM11.1714 4.40829L12.9392 2.64052L11.8785 1.57986L10.1108 3.34763L11.1714 4.40829ZM12.9392 2.64052C13.4599 2.11983 14.3041 2.11983 14.8248 2.64052L15.8855 1.57986C14.779 0.473379 12.985 0.473379 11.8785 1.57986L12.9392 2.64052ZM10.1108 3.34763C9.85048 3.60793 9.42754 4.05414 9.27746 4.60738L10.7251 5.00009C10.759 4.87513 10.8992 4.6805 11.1714 4.40829L10.1108 3.34763ZM14.8248 2.64052C15.294 3.1097 15.3408 3.84294 14.9635 4.36369L16.1782 5.24372C16.9811 4.13553 16.8841 2.57844 15.8855 1.57986L14.8248 2.64052ZM10.0225 3.34764L8.25478 1.57988L7.19412 2.64054L8.96189 4.4083L10.0225 3.34764ZM8.25478 1.57988C7.1483 0.47339 5.35433 0.47339 4.24784 1.57988L5.3085 2.64054C5.8292 2.11984 6.67342 2.11984 7.19412 2.64054L8.25478 1.57988ZM8.96189 4.4083C9.10971 4.55612 9.20867 4.74649 9.27746 5.00009L10.7251 4.60738C10.61 4.18278 10.4072 3.73233 10.0225 3.34764L8.96189 4.4083ZM4.24784 1.57988C3.24927 2.57845 3.15224 4.13554 3.95509 5.24373L5.16981 4.3637C4.79254 3.84295 4.83933 3.10971 5.3085 2.64054L4.24784 1.57988ZM9.2513 4.80373L9.2513 16.4704H10.7513L10.7513 4.80373H9.2513ZM4.56245 5.55372L10.0013 5.55373L10.0013 4.05373L4.56245 4.05372L4.56245 5.55372ZM3.7513 8.22038C3.44252 8.22038 3.16015 8.11634 2.93438 7.94093L2.0141 9.12546C2.49375 9.4981 3.09762 9.72038 3.7513 9.72038V8.22038ZM2.93438 7.94093C2.61878 7.69574 2.41797 7.31503 2.41797 6.88705H0.917969C0.917969 7.79779 1.3485 8.60834 2.0141 9.12546L2.93438 7.94093ZM2.95467 7.95627L2.92761 7.93574L2.02087 9.13065L2.04793 9.15119L2.95467 7.95627ZM11.2513 16.5537H10.0013V18.0537H11.2513V16.5537ZM10.0013 16.5537H8.7513V18.0537H10.0013V16.5537ZM9.2513 16.4704L9.2513 17.3037L10.7513 17.3037L10.7513 16.4704L9.2513 16.4704ZM16.2513 8.22038H10.0013V9.72038H16.2513V8.22038ZM10.0013 8.22038H3.7513V9.72038H10.0013V8.22038ZM17.5846 6.88705C17.5846 7.33793 17.3615 7.73678 17.0163 7.97927L17.8786 9.20669C18.6064 8.6954 19.0846 7.84711 19.0846 6.88705H17.5846ZM17.0163 7.97927C16.8 8.13127 16.5372 8.22038 16.2513 8.22038V9.72038C16.8557 9.72038 17.4179 9.5303 17.8786 9.20669L17.0163 7.97927ZM18.2513 10.7561C18.2513 9.63642 18.2518 9.18873 18.1947 8.52835L16.7003 8.65762C16.7508 9.24207 16.7513 9.62352 16.7513 10.7561H18.2513ZM10.0013 5.55373L15.3552 5.55372L15.3552 4.05372L10.0013 4.05373L10.0013 5.55373ZM15.3552 5.55372L15.5709 5.55371L15.5708 4.05371L15.3551 4.05372L15.3552 5.55372ZM15.3552 5.55372L16.2513 5.55372L16.2513 4.05372L15.3552 4.05372L15.3552 5.55372ZM4.56245 4.05372H3.7513V5.55372H4.56245V4.05372ZM3.7513 5.55372L6.8763 5.55372L6.8763 4.05372L3.7513 4.05372L3.7513 5.55372ZM6.8763 5.55372L10.0013 5.55373L10.0013 4.05373L6.8763 4.05372L6.8763 5.55372ZM4.56245 5.55372L6.8763 5.55372L6.8763 4.05372L4.56245 4.05372L4.56245 5.55372ZM10.0013 5.55373L15.5709 5.55371L15.5709 4.05371L10.0013 4.05373L10.0013 5.55373Z" />
</svg>
