<svg width="87" height="30" viewBox="0 0 87 30" fill="none" xmlns="http://www.w3.org/2000/svg">
<path fill-rule="evenodd" clip-rule="evenodd" d="M27.3889 8.09071C24.4774 8.09071 22.1171 10.451 22.1171 13.3625C22.1171 14.2029 22.3134 14.996 22.6621 15.6997C23.3781 17.1447 24.7369 18.2138 26.3622 18.5345C26.6939 18.5999 27.0371 18.6343 27.3889 18.6343C27.6898 18.6343 27.9844 18.6091 28.2708 18.5609C29.9302 18.2817 31.3285 17.2256 32.0762 15.7779C32.4496 15.0548 32.6607 14.2341 32.6607 13.3625C32.6607 10.451 30.3004 8.09071 27.3889 8.09071ZM21.0264 13.3625C21.0264 9.84858 23.875 7 27.3889 7C30.9028 7 33.7514 9.84858 33.7514 13.3625C33.7514 14.2807 33.5566 15.1546 33.2057 15.9441C33.3707 16.1691 33.5319 16.4487 33.731 16.7937C33.7459 16.8195 33.761 16.8457 33.7763 16.8723L35.0724 19.1172C35.2363 19.401 35.3879 19.6635 35.4753 19.8808C35.5609 20.0936 35.6687 20.4627 35.4305 20.8043C35.1892 21.1502 34.8019 21.1707 34.5724 21.1593C34.34 21.1477 34.0446 21.0896 33.7272 21.0271L33.1518 20.9139C32.8329 20.8512 32.6436 20.815 32.5032 20.8054C32.4391 20.8009 32.4047 20.8039 32.3877 20.8068C32.3799 20.8081 32.3763 20.8093 32.3753 20.8096C32.3745 20.8099 32.3741 20.8101 32.3732 20.8106C32.3728 20.8109 32.3725 20.811 32.3722 20.8112C32.3719 20.8115 32.3716 20.8117 32.3713 20.812C32.3705 20.8126 32.3676 20.8152 32.3626 20.8212C32.3517 20.8345 32.3319 20.8628 32.3036 20.9206C32.2418 21.047 32.1785 21.229 32.0734 21.5366L31.8837 22.0914C31.7791 22.3975 31.6818 22.6824 31.5756 22.8895C31.4707 23.094 31.2593 23.4191 30.8391 23.4551C30.4241 23.4906 30.1584 23.2127 30.0169 23.0322C29.8724 22.8478 29.7209 22.5853 29.557 22.3014L28.2559 20.0478C28.1813 19.9186 28.1129 19.8001 28.051 19.6909C27.8332 19.7134 27.6123 19.725 27.3889 19.725C27.1003 19.725 26.816 19.7057 26.5372 19.6684C26.4719 19.7839 26.3992 19.9099 26.3194 20.0481L25.0184 22.3014C24.8546 22.5853 24.703 22.8478 24.5586 23.0322C24.417 23.2127 24.1513 23.4906 23.7364 23.4551C23.3162 23.4191 23.1047 23.094 22.9999 22.8895C22.8937 22.6824 22.7963 22.3975 22.6917 22.0914L22.5021 21.5366C22.3969 21.229 22.3336 21.047 22.2718 20.9206C22.2436 20.8628 22.2238 20.8345 22.2128 20.8212C22.2078 20.8152 22.2049 20.8126 22.2042 20.812C22.2035 20.8114 22.2032 20.8111 22.2022 20.8106C22.2013 20.8101 22.2009 20.8099 22.2001 20.8096C22.1992 20.8093 22.1955 20.8081 22.1877 20.8068C22.1708 20.8039 22.1364 20.8009 22.0722 20.8054C21.9318 20.815 21.7426 20.8512 21.4236 20.9139L20.8482 21.0271C20.5309 21.0896 20.2355 21.1477 20.0031 21.1593C19.7735 21.1707 19.3862 21.1502 19.145 20.8043C18.9067 20.4627 19.0145 20.0936 19.1001 19.8808C19.1875 19.6635 19.3391 19.401 19.5031 19.1171L20.7992 16.8723C20.8098 16.8538 20.8204 16.8355 20.8308 16.8174C21.0942 16.3611 21.2898 16.0221 21.501 15.7776C21.195 15.0324 21.0264 14.2166 21.0264 13.3625ZM22.072 16.8582C21.9864 16.9984 21.8816 17.1788 21.7437 17.4176L20.4665 19.6299C20.3713 19.7947 20.2961 19.9257 20.2379 20.0324C20.3538 20.0124 20.4965 19.9847 20.6752 19.9495L21.2424 19.838C21.5222 19.7829 21.78 19.7322 21.9974 19.7172C22.2374 19.7007 22.4968 19.7212 22.7476 19.866C22.9984 20.0108 23.1459 20.2252 23.2516 20.4413C23.3473 20.6371 23.4323 20.8857 23.5245 21.1555L23.7115 21.7025C23.7704 21.8749 23.8177 22.0123 23.8583 22.1227C23.9217 22.0189 23.9975 21.8883 24.0926 21.7235L25.3699 19.5112C25.3888 19.4784 25.4071 19.4467 25.4249 19.4159C24.0367 18.9659 22.8586 18.0522 22.072 16.8582ZM29.1812 19.4689C29.1892 19.4828 29.1973 19.4969 29.2055 19.5112L30.4828 21.7235C30.578 21.8883 30.6538 22.0189 30.7171 22.1227C30.7577 22.0123 30.805 21.8749 30.864 21.7025L31.0509 21.1555C31.1431 20.8857 31.2281 20.6371 31.3239 20.4413C31.4296 20.2252 31.577 20.0108 31.8278 19.866C32.0787 19.7212 32.338 19.7007 32.578 19.7172C32.7955 19.7322 33.0533 19.7829 33.3331 19.838L33.9002 19.9495C34.079 19.9847 34.2217 20.0124 34.3375 20.0324C34.2793 19.9257 34.2041 19.7947 34.109 19.6299L32.8317 17.4176C32.7407 17.2601 32.6641 17.1281 32.5981 17.0165C31.78 18.1808 30.5811 19.0587 29.1812 19.4689Z" fill="url(#paint0_linear_1519_24860)"/>
<path d="M47.233 20V9.81818H48.4659V18.9062H53.1989V20H47.233ZM54.9489 20V12.3636H56.1222V20H54.9489ZM55.5455 11.0909C55.3168 11.0909 55.1196 11.013 54.9538 10.8572C54.7914 10.7015 54.7102 10.5142 54.7102 10.2955C54.7102 10.0767 54.7914 9.88944 54.9538 9.73366C55.1196 9.57789 55.3168 9.5 55.5455 9.5C55.7741 9.5 55.9697 9.57789 56.1321 9.73366C56.2978 9.88944 56.3807 10.0767 56.3807 10.2955C56.3807 10.5142 56.2978 10.7015 56.1321 10.8572C55.9697 11.013 55.7741 11.0909 55.5455 11.0909ZM61.5922 12.3636V13.358H57.6348V12.3636H61.5922ZM58.7882 10.5341H59.9615V17.8125C59.9615 18.1439 60.0095 18.3925 60.1056 18.5582C60.2051 18.7206 60.331 18.83 60.4835 18.8864C60.6393 18.9394 60.8033 18.9659 60.9757 18.9659C61.1049 18.9659 61.211 18.9593 61.2939 18.946C61.3767 18.9295 61.443 18.9162 61.4927 18.9062L61.7314 19.9602C61.6518 19.9901 61.5408 20.0199 61.3983 20.0497C61.2557 20.0829 61.0751 20.0994 60.8564 20.0994C60.5249 20.0994 60.2001 20.0282 59.8819 19.8857C59.5671 19.7431 59.3052 19.526 59.0964 19.2344C58.8909 18.9427 58.7882 18.5748 58.7882 18.1307V10.5341ZM66.4767 20.1591C65.7409 20.1591 65.1062 19.9967 64.5726 19.6719C64.0423 19.3438 63.633 18.8864 63.3446 18.2997C63.0596 17.7098 62.9171 17.0237 62.9171 16.2415C62.9171 15.4593 63.0596 14.7699 63.3446 14.1733C63.633 13.5734 64.034 13.1061 64.5478 12.7713C65.0648 12.4332 65.668 12.2642 66.3574 12.2642C66.7551 12.2642 67.1479 12.3305 67.5357 12.4631C67.9235 12.5956 68.2765 12.8111 68.5946 13.1094C68.9128 13.4044 69.1664 13.7955 69.3553 14.2827C69.5442 14.7699 69.6387 15.3698 69.6387 16.0824V16.5795H63.7523V15.5653H68.4455C68.4455 15.1345 68.3593 14.75 68.187 14.4119C68.0179 14.0739 67.776 13.8071 67.4611 13.6115C67.1496 13.416 66.7817 13.3182 66.3574 13.3182C65.8901 13.3182 65.4857 13.4342 65.1444 13.6662C64.8063 13.8949 64.5461 14.1932 64.3638 14.5611C64.1815 14.929 64.0904 15.3234 64.0904 15.7443V16.4205C64.0904 16.9972 64.1898 17.486 64.3887 17.8871C64.5908 18.2848 64.8709 18.5881 65.2289 18.7969C65.5868 19.0024 66.0028 19.1051 66.4767 19.1051C66.785 19.1051 67.0634 19.062 67.312 18.9759C67.5639 18.8864 67.781 18.7538 67.9632 18.5781C68.1455 18.3991 68.2864 18.1771 68.3858 17.9119L69.5194 18.2301C69.4 18.6146 69.1995 18.9527 68.9178 19.2443C68.6361 19.5327 68.2881 19.758 67.8738 19.9205C67.4595 20.0795 66.9938 20.1591 66.4767 20.1591Z" fill="url(#paint1_linear_1519_24860)"/>
<path d="M8 1H79V-1H8V1ZM86 8V22H88V8H86ZM79 29H8V31H79V29ZM1 22V8H-1V22H1ZM8 29C4.13401 29 1 25.866 1 22H-1C-1 26.9706 3.02944 31 8 31V29ZM86 22C86 25.866 82.866 29 79 29V31C83.9706 31 88 26.9706 88 22H86ZM79 1C82.866 1 86 4.13401 86 8H88C88 3.02944 83.9706 -1 79 -1V1ZM8 -1C3.02944 -1 -1 3.02944 -1 8H1C1 4.13401 4.13401 1 8 1V-1Z" fill="url(#paint2_linear_1519_24860)"/>
<defs>
<linearGradient id="paint0_linear_1519_24860" x1="15.5813" y1="4.18478" x2="39.6694" y2="6.85527" gradientUnits="userSpaceOnUse">
<stop stop-color="#7DC9FF"/>
<stop offset="1" stop-color="#0285CE"/>
</linearGradient>
<linearGradient id="paint1_linear_1519_24860" x1="40.8438" y1="0.236841" x2="77.0547" y2="4.76647" gradientUnits="userSpaceOnUse">
<stop stop-color="#7DC9FF"/>
<stop offset="1" stop-color="#0285CE"/>
</linearGradient>
<linearGradient id="paint2_linear_1519_24860" x1="-17.9437" y1="-5.13158" x2="98.2055" y2="31.9468" gradientUnits="userSpaceOnUse">
<stop stop-color="#7DC9FF"/>
<stop offset="1" stop-color="#0285CE"/>
</linearGradient>
</defs>
</svg>
