<svg width="85" height="30" viewBox="0 0 85 30" fill="none" xmlns="http://www.w3.org/2000/svg">
<g clip-path="url(#clip0_2157_29258)">
<path d="M30.5572 10.337C29.7489 9.52871 28.4337 9.52871 27.6254 10.337C26.8171 11.1453 26.8171 12.4606 27.6254 13.2689C28.4337 14.0772 29.7489 14.0772 30.5572 13.2689C31.3655 12.4606 31.3656 11.1454 30.5572 10.337ZM28.3152 12.579C27.8873 12.1511 27.8873 11.4548 28.3152 11.0269C28.7432 10.599 29.4395 10.599 29.8674 11.0269C30.2953 11.4548 30.2953 12.1511 29.8674 12.579C29.4395 13.0069 28.7432 13.0069 28.3152 12.579Z" fill="url(#paint0_linear_2157_29258)"/>
<path fill-rule="evenodd" clip-rule="evenodd" d="M30.3535 19.3492C30.5772 18.2889 30.3688 17.4903 30.2248 17.1085C31.2697 16.346 32.2192 15.4912 32.8516 14.5833C35.1489 11.2851 34.4059 7.18048 34.3732 7.00735C34.3265 6.76099 34.1338 6.56822 33.8874 6.52156C33.7143 6.48882 29.6096 5.74591 26.3116 8.0432C25.3924 8.68347 24.5278 9.64875 23.7581 10.7089C23.3453 10.5702 22.5935 10.4124 21.6217 10.6173C19.7952 11.0026 18.1021 12.4536 16.5897 14.9301C16.4849 15.1015 16.4714 15.3135 16.5533 15.4968C16.5841 15.5657 16.6269 15.6272 16.6788 15.679C16.7651 15.7653 16.8765 15.825 16.9998 15.8477L20.5509 16.4999C20.4669 16.6956 20.4165 16.8195 20.4033 16.8522C20.3118 17.079 20.3647 17.3386 20.5376 17.5115L21.5293 18.5032L22.3916 19.3655L23.3833 20.3571C23.5562 20.53 23.8157 20.583 24.0426 20.4914C24.0784 20.477 24.2237 20.4178 24.4525 20.3191L25.1232 23.971C25.1459 24.0944 25.2056 24.2058 25.2918 24.2921C25.3437 24.344 25.4052 24.3868 25.4741 24.4176C25.6574 24.4995 25.8693 24.4859 26.0408 24.3812C28.5172 22.8688 29.9682 21.1758 30.3535 19.3492ZM33.2063 10.1316C33.3355 9.07459 33.2839 8.16877 33.2316 7.66316C32.7262 7.61087 31.8204 7.55926 30.7632 7.68843L33.2063 10.1316ZM23.0311 11.7774C22.1565 11.6201 20.2487 11.743 18.1194 14.8134L21.069 15.3552C21.5289 14.385 22.2049 13.0681 23.0311 11.7774ZM23.2539 18.5032L23.9549 19.2041C25.3204 18.6108 30.0955 16.4063 31.8509 13.8862C32.4267 13.0596 32.7804 12.1605 32.9932 11.2981L29.5967 7.90155C28.7343 8.11432 27.8352 8.46805 27.0085 9.04383C24.4855 10.8012 22.2832 15.5747 21.6905 16.9397L22.3916 17.6408L23.2539 18.5032ZM25.5968 19.7987L26.1575 22.8516C29.3645 20.6275 29.356 18.6451 29.1711 17.8292C27.8886 18.6548 26.5748 19.333 25.5968 19.7987Z" fill="url(#paint1_linear_2157_29258)"/>
</g>
<path d="M47.233 20V9.81818H50.6733C51.4721 9.81818 52.125 9.96236 52.6321 10.2507C53.1425 10.5357 53.5204 10.9219 53.7656 11.4091C54.0109 11.8963 54.1335 12.4399 54.1335 13.0398C54.1335 13.6397 54.0109 14.1849 53.7656 14.6754C53.5237 15.166 53.1491 15.5571 52.642 15.8487C52.1349 16.1371 51.4853 16.2812 50.6932 16.2812H48.2273V15.1875H50.6534C51.2003 15.1875 51.6394 15.093 51.9709 14.9041C52.3023 14.7152 52.5426 14.46 52.6918 14.1385C52.8442 13.8137 52.9205 13.4474 52.9205 13.0398C52.9205 12.6321 52.8442 12.2675 52.6918 11.946C52.5426 11.6245 52.3007 11.3726 51.9659 11.1903C51.6312 11.0047 51.187 10.9119 50.6335 10.9119H48.4659V20H47.233ZM55.9606 20V12.3636H57.0941V13.517H57.1737C57.3129 13.1392 57.5647 12.8326 57.9293 12.5973C58.2939 12.362 58.7049 12.2443 59.1623 12.2443C59.2485 12.2443 59.3562 12.246 59.4854 12.2493C59.6147 12.2526 59.7125 12.2576 59.7788 12.2642V13.4574C59.739 13.4474 59.6478 13.4325 59.5053 13.4126C59.3661 13.3894 59.2186 13.3778 59.0629 13.3778C58.6916 13.3778 58.3602 13.4557 58.0685 13.6115C57.7802 13.764 57.5515 13.9761 57.3825 14.2479C57.2167 14.5163 57.1339 14.8229 57.1339 15.1676V20H55.9606ZM64.0394 20.1591C63.35 20.1591 62.7451 19.995 62.2248 19.6669C61.7077 19.3388 61.3034 18.8797 61.0117 18.2898C60.7234 17.6998 60.5792 17.0104 60.5792 16.2216C60.5792 15.4261 60.7234 14.7318 61.0117 14.1385C61.3034 13.5452 61.7077 13.0845 62.2248 12.7564C62.7451 12.4283 63.35 12.2642 64.0394 12.2642C64.7288 12.2642 65.332 12.4283 65.8491 12.7564C66.3694 13.0845 66.7738 13.5452 67.0621 14.1385C67.3538 14.7318 67.4996 15.4261 67.4996 16.2216C67.4996 17.0104 67.3538 17.6998 67.0621 18.2898C66.7738 18.8797 66.3694 19.3388 65.8491 19.6669C65.332 19.995 64.7288 20.1591 64.0394 20.1591ZM64.0394 19.1051C64.5631 19.1051 64.994 18.9709 65.332 18.7024C65.6701 18.4339 65.9203 18.081 66.0827 17.6435C66.2451 17.206 66.3263 16.732 66.3263 16.2216C66.3263 15.7112 66.2451 15.2356 66.0827 14.7947C65.9203 14.3539 65.6701 13.9976 65.332 13.7259C64.994 13.4541 64.5631 13.3182 64.0394 13.3182C63.5157 13.3182 63.0849 13.4541 62.7468 13.7259C62.4087 13.9976 62.1585 14.3539 61.9961 14.7947C61.8337 15.2356 61.7525 15.7112 61.7525 16.2216C61.7525 16.732 61.8337 17.206 61.9961 17.6435C62.1585 18.081 62.4087 18.4339 62.7468 18.7024C63.0849 18.9709 63.5157 19.1051 64.0394 19.1051Z" fill="url(#paint2_linear_2157_29258)"/>
<path d="M8 1H77V-1H8V1ZM84 8V22H86V8H84ZM77 29H8V31H77V29ZM1 22V8H-1V22H1ZM8 29C4.13401 29 1 25.866 1 22H-1C-1 26.9706 3.02944 31 8 31V29ZM84 22C84 25.866 80.866 29 77 29V31C81.9706 31 86 26.9706 86 22H84ZM77 1C80.866 1 84 4.13401 84 8H86C86 3.02944 81.9706 -1 77 -1V1ZM8 -1C3.02944 -1 -1 3.02944 -1 8H1C1 4.13401 4.13401 1 8 1V-1Z" fill="url(#paint3_linear_2157_29258)"/>
<defs>
<linearGradient id="paint0_linear_2157_29258" x1="27.4741" y1="7.25392" x2="31.4153" y2="11.555" gradientUnits="userSpaceOnUse">
<stop stop-color="#F7BD50"/>
<stop offset="1" stop-color="#DA7703"/>
</linearGradient>
<linearGradient id="paint1_linear_2157_29258" x1="23.6964" y1="-3.81924" x2="37.3396" y2="10.7561" gradientUnits="userSpaceOnUse">
<stop stop-color="#F7BD50"/>
<stop offset="1" stop-color="#DA7703"/>
</linearGradient>
<linearGradient id="paint2_linear_2157_29258" x1="33.3135" y1="3.99999" x2="65.6375" y2="5.47569" gradientUnits="userSpaceOnUse">
<stop stop-color="#F7BD50"/>
<stop offset="1" stop-color="#DA7703"/>
</linearGradient>
<linearGradient id="paint3_linear_2157_29258" x1="-46.8849" y1="-1.52588e-05" x2="71.0174" y2="14.5877" gradientUnits="userSpaceOnUse">
<stop stop-color="#F7BD50"/>
<stop offset="1" stop-color="#DA7703"/>
</linearGradient>
<clipPath id="clip0_2157_29258">
<rect width="22" height="22" fill="white" transform="translate(16 4)"/>
</clipPath>
</defs>
</svg>
