<svg width="85" height="30" viewBox="0 0 85 30" fill="none" xmlns="http://www.w3.org/2000/svg">
<g clip-path="url(#clip0_1417_22795)">
<path d="M30.5572 10.3376C29.7489 9.52932 28.4337 9.52932 27.6254 10.3376C26.8171 11.1459 26.8171 12.4612 27.6254 13.2695C28.4337 14.0778 29.7489 14.0778 30.5572 13.2695C31.3655 12.4612 31.3656 11.146 30.5572 10.3376ZM28.3152 12.5796C27.8873 12.1517 27.8873 11.4554 28.3152 11.0275C28.7432 10.5996 29.4395 10.5996 29.8674 11.0275C30.2953 11.4554 30.2953 12.1517 29.8674 12.5796C29.4395 13.0075 28.7432 13.0075 28.3152 12.5796Z" fill="url(#paint0_linear_1417_22795)"/>
<path fill-rule="evenodd" clip-rule="evenodd" d="M30.3535 19.3489C30.5772 18.2886 30.3688 17.49 30.2248 17.1082C31.2697 16.3457 32.2192 15.4909 32.8516 14.583C35.1489 11.2848 34.4059 7.18018 34.3732 7.00705C34.3265 6.76069 34.1338 6.56792 33.8874 6.52126C33.7143 6.48852 29.6096 5.7456 26.3116 8.0429C25.3924 8.68317 24.5278 9.64844 23.7581 10.7086C23.3453 10.5699 22.5935 10.4121 21.6217 10.617C19.7952 11.0023 18.1021 12.4533 16.5897 14.9298C16.4849 15.1012 16.4714 15.3132 16.5533 15.4965C16.5841 15.5654 16.6269 15.6269 16.6788 15.6787C16.7651 15.765 16.8765 15.8247 16.9998 15.8474L20.5509 16.4996C20.4669 16.6953 20.4165 16.8192 20.4033 16.8519C20.3118 17.0787 20.3647 17.3383 20.5376 17.5112L21.5293 18.5028L22.3916 19.3652L23.3833 20.3568C23.5562 20.5297 23.8157 20.5827 24.0426 20.4911C24.0784 20.4767 24.2237 20.4175 24.4525 20.3188L25.1232 23.9707C25.1459 24.0941 25.2056 24.2055 25.2918 24.2918C25.3437 24.3437 25.4052 24.3865 25.4741 24.4173C25.6574 24.4992 25.8693 24.4856 26.0408 24.3809C28.5172 22.8685 29.9682 21.1755 30.3535 19.3489ZM33.2063 10.1313C33.3355 9.07429 33.2839 8.16846 33.2316 7.66286C32.7262 7.61057 31.8204 7.55895 30.7632 7.68813L33.2063 10.1313ZM23.0311 11.7771C22.1565 11.6198 20.2487 11.7427 18.1194 14.8131L21.069 15.3549C21.5289 14.3847 22.2049 13.0678 23.0311 11.7771ZM23.2539 18.5028L23.9549 19.2038C25.3204 18.6104 30.0955 16.406 31.8509 13.8859C32.4267 13.0593 32.7804 12.1602 32.9932 11.2978L29.5967 7.90125C28.7343 8.11401 27.8352 8.46775 27.0085 9.04352C24.4855 10.8009 22.2832 15.5744 21.6905 16.9394L22.3916 17.6405L23.2539 18.5028ZM25.5968 19.7984L26.1575 22.8513C29.3645 20.6272 29.356 18.6448 29.1711 17.8289C27.8886 18.6545 26.5748 19.3327 25.5968 19.7984Z" fill="url(#paint1_linear_1417_22795)"/>
</g>
<path d="M47.233 20H48.4659V16.2812H50.6932C53.0646 16.2812 54.1335 14.8395 54.1335 13.0398C54.1335 11.2401 53.0646 9.81818 50.6733 9.81818H47.233V20ZM48.4659 15.1875V10.9119H50.6335C52.2891 10.9119 52.9205 11.8168 52.9205 13.0398C52.9205 14.2628 52.2891 15.1875 50.6534 15.1875H48.4659ZM55.9606 20H57.1339V15.1676C57.1339 14.1335 57.9492 13.3778 59.0629 13.3778C59.3761 13.3778 59.6992 13.4375 59.7788 13.4574V12.2642C59.6445 12.2543 59.3363 12.2443 59.1623 12.2443C58.2475 12.2443 57.4521 12.7614 57.1737 13.517H57.0941V12.3636H55.9606V20ZM64.0394 20.1591C66.1076 20.1591 67.4996 18.5881 67.4996 16.2216C67.4996 13.8352 66.1076 12.2642 64.0394 12.2642C61.9712 12.2642 60.5792 13.8352 60.5792 16.2216C60.5792 18.5881 61.9712 20.1591 64.0394 20.1591ZM64.0394 19.1051C62.4684 19.1051 61.7525 17.7528 61.7525 16.2216C61.7525 14.6903 62.4684 13.3182 64.0394 13.3182C65.6104 13.3182 66.3263 14.6903 66.3263 16.2216C66.3263 17.7528 65.6104 19.1051 64.0394 19.1051Z" fill="url(#paint2_linear_1417_22795)"/>
<path d="M8 1H77V-1H8V1ZM84 8V22H86V8H84ZM77 29H8V31H77V29ZM1 22V8H-1V22H1ZM8 29C4.13401 29 1 25.866 1 22H-1C-1 26.9706 3.02944 31 8 31V29ZM84 22C84 25.866 80.866 29 77 29V31C81.9706 31 86 26.9706 86 22H84ZM77 1C80.866 1 84 4.13401 84 8H86C86 3.02944 81.9706 -1 77 -1V1ZM8 -1C3.02944 -1 -1 3.02944 -1 8H1C1 4.13401 4.13401 1 8 1V-1Z" fill="url(#paint3_linear_1417_22795)"/>
<defs>
<linearGradient id="paint0_linear_1417_22795" x1="27.4741" y1="7.25453" x2="31.4153" y2="11.5556" gradientUnits="userSpaceOnUse">
<stop stop-color="#F7BD50"/>
<stop offset="1" stop-color="#DA7703"/>
</linearGradient>
<linearGradient id="paint1_linear_1417_22795" x1="23.6964" y1="-3.81954" x2="37.3396" y2="10.7558" gradientUnits="userSpaceOnUse">
<stop stop-color="#F7BD50"/>
<stop offset="1" stop-color="#DA7703"/>
</linearGradient>
<linearGradient id="paint2_linear_1417_22795" x1="33.3135" y1="3.99999" x2="65.6375" y2="5.47569" gradientUnits="userSpaceOnUse">
<stop stop-color="#F7BD50"/>
<stop offset="1" stop-color="#DA7703"/>
</linearGradient>
<linearGradient id="paint3_linear_1417_22795" x1="-46.8849" y1="-1.52588e-05" x2="71.0174" y2="14.5877" gradientUnits="userSpaceOnUse">
<stop stop-color="#F7BD50"/>
<stop offset="1" stop-color="#DA7703"/>
</linearGradient>
<clipPath id="clip0_1417_22795">
<rect width="22" height="22" fill="white" transform="translate(16 4)"/>
</clipPath>
</defs>
</svg>
