<svg width="34" height="34" viewBox="0 0 34 34" xmlns="http://www.w3.org/2000/svg">
    <path d="M6.64405 17.8064C8.197 16.951 9.89527 16.2095 11.5482 15.4878C11.9483 15.3131 12.3457 15.1396 12.7378 14.9659C16.1988 13.5061 19.6736 12.0715 23.1834 10.736C23.8662 10.5084 25.0933 10.2859 25.2136 11.2979C25.1669 12.3117 25.0175 13.3213 24.8683 14.3297L24.8682 14.3305C24.8066 14.7466 24.7451 15.1625 24.6907 15.5786C24.2912 18.2304 23.839 20.8746 23.3869 23.5178L23.3817 23.5481C23.3016 24.0163 23.2216 24.4844 23.1418 24.9526C22.9586 25.9923 21.6561 26.5306 20.8227 25.8652C20.3315 25.5333 19.8391 25.2022 19.3468 24.8711L19.3456 24.8702L19.3399 24.8664C17.8276 23.8492 16.3144 22.8315 14.8244 21.7885C14.1767 21.1303 14.7774 20.1852 15.3558 19.7152C16.0199 19.0607 16.7003 18.4458 17.3782 17.8332L17.3811 17.8306C18.3858 16.9224 19.3852 16.0191 20.3182 14.9987C20.7131 14.045 19.6454 14.7371 19.1707 15.0449C19.1384 15.0657 19.109 15.0849 19.0829 15.1016C18.5256 15.4856 17.9717 15.8754 17.4176 16.2654L17.4171 16.2657C15.7261 17.4557 14.0338 18.6466 12.2406 19.6767C11.1489 20.2776 9.89513 19.8782 8.77063 19.52L8.77045 19.5199C8.64223 19.4791 8.51573 19.4388 8.39129 19.4005C8.24246 19.3389 8.08424 19.2773 7.92427 19.2149L7.922 19.2141C6.91088 18.8201 5.83315 18.4001 6.64405 17.8064Z"/>
</svg>
