<svg width="15" height="15" viewBox="0 0 15 15" fill="none" xmlns="http://www.w3.org/2000/svg">
<path fill-rule="evenodd" clip-rule="evenodd" d="M3.22377 0.187671C3.39627 0.403302 3.36131 0.717948 3.14568 0.890453L1.47901 2.22379C1.26338 2.39629 0.948737 2.36133 0.776232 2.1457C0.603727 1.93007 0.638688 1.61542 0.854319 1.44292L2.52099 0.109584C2.73662 -0.0629208 3.05126 -0.0279601 3.22377 0.187671ZM11.1096 0.187671C11.2821 -0.0279601 11.5967 -0.0629208 11.8123 0.109584L13.479 1.44292C13.6946 1.61542 13.7296 1.93007 13.5571 2.1457C13.3846 2.36133 13.07 2.39629 12.8543 2.22379L11.1877 0.890453C10.972 0.717948 10.9371 0.403302 11.1096 0.187671ZM7.16667 1.50002C3.76091 1.50002 1 4.26093 1 7.66669C1 11.0724 3.76091 13.8334 7.16667 13.8334C10.5724 13.8334 13.3333 11.0724 13.3333 7.66669C13.3333 4.26093 10.5724 1.50002 7.16667 1.50002ZM0 7.66669C0 3.70864 3.20863 0.500018 7.16667 0.500018C11.1247 0.500018 14.3333 3.70864 14.3333 7.66669C14.3333 11.6247 11.1247 14.8334 7.16667 14.8334C3.20863 14.8334 0 11.6247 0 7.66669ZM7.16667 4.50002C7.44281 4.50002 7.66667 4.72388 7.66667 5.00002L7.66667 6.79373C7.66667 7.17915 7.66723 7.43228 7.68659 7.62867C7.70486 7.8141 7.73698 7.90861 7.77832 7.98021C7.81965 8.05181 7.88545 8.12688 8.0369 8.23542C8.19729 8.35038 8.41624 8.47743 8.75002 8.67013L9.14876 8.90034C9.38791 9.0384 9.46985 9.3442 9.33178 9.58335C9.19371 9.82249 8.88792 9.90444 8.64877 9.76637L8.22991 9.52455C7.92169 9.34662 7.65954 9.19528 7.45436 9.04823C7.2358 8.89158 7.04959 8.71802 6.91229 8.48022C6.775 8.24241 6.71779 7.99438 6.69141 7.72677C6.66665 7.47556 6.66666 7.17287 6.66667 6.81698L6.66667 5.00002C6.66667 4.72388 6.89052 4.50002 7.16667 4.50002Z" fill="white"/>
</svg>
