<svg width="45" height="12" viewBox="0 0 45 12" fill="none" xmlns="http://www.w3.org/2000/svg">
<path d="M1 5.25C0.585786 5.25 0.25 5.58579 0.25 6C0.25 6.41421 0.585786 6.75 1 6.75V5.25ZM44 6.75C44.4142 6.75 44.75 6.41421 44.75 6C44.75 5.58579 44.4142 5.25 44 5.25V6.75ZM40.528 0.467309C40.2338 0.175725 39.7589 0.177844 39.4673 0.472041C39.1757 0.766239 39.1778 1.24111 39.472 1.53269L40.528 0.467309ZM41.763 2.74731L42.2909 2.21462L42.2909 2.21462L41.763 2.74731ZM41.763 9.25269L42.2909 9.78538L42.2909 9.78538L41.763 9.25269ZM39.472 10.4673C39.1778 10.7589 39.1757 11.2338 39.4673 11.528C39.7589 11.8222 40.2338 11.8243 40.528 11.5327L39.472 10.4673ZM43.9801 5.68667L44.7241 5.59184L44.7241 5.59184L43.9801 5.68667ZM43.9801 6.31333L44.7241 6.40816L44.7241 6.40816L43.9801 6.31333ZM1 6.75H44V5.25H1V6.75ZM39.472 1.53269L41.235 3.28L42.2909 2.21462L40.528 0.467309L39.472 1.53269ZM41.235 8.72L39.472 10.4673L40.528 11.5327L42.2909 9.78538L41.235 8.72ZM41.235 3.28C41.9505 3.98914 42.4413 4.47718 42.7734 4.8907C43.096 5.2924 43.2067 5.55042 43.2361 5.7815L44.7241 5.59184C44.6453 4.97372 44.3504 4.45878 43.9429 3.95146C43.545 3.45597 42.9814 2.89892 42.2909 2.21462L41.235 3.28ZM42.2909 9.78538C42.9814 9.10108 43.545 8.54403 43.9429 8.04854C44.3504 7.54122 44.6453 7.02628 44.7241 6.40816L43.2361 6.2185C43.2067 6.44958 43.096 6.7076 42.7734 7.10929C42.4413 7.52282 41.9505 8.01086 41.235 8.72L42.2909 9.78538ZM43.2361 5.78149C43.2546 5.92659 43.2546 6.07341 43.2361 6.2185L44.7241 6.40816C44.7586 6.13714 44.7586 5.86286 44.7241 5.59184L43.2361 5.78149Z" fill="white" fill-opacity="0.4"/>
</svg>
