<svg width="90" height="90" viewBox="0 0 90 90" xmlns="http://www.w3.org/2000/svg">
<path fill-rule="evenodd" clip-rule="evenodd" d="M45 10.3125C25.8426 10.3125 10.3125 25.8426 10.3125 45C10.3125 64.1574 25.8426 79.6875 45 79.6875C64.1574 79.6875 79.6875 64.1574 79.6875 45C79.6875 25.8426 64.1574 10.3125 45 10.3125ZM4.6875 45C4.6875 22.736 22.736 4.6875 45 4.6875C67.264 4.6875 85.3125 22.736 85.3125 45C85.3125 67.264 67.264 85.3125 45 85.3125C22.736 85.3125 4.6875 67.264 4.6875 45ZM51.6778 32.3245L51.9255 32.4769C54.5418 34.087 56.6753 35.4 58.2557 36.5902C59.8602 37.7986 61.2513 39.1332 61.998 40.921C63.084 43.5211 63.084 46.4789 61.998 49.079C61.2513 50.8668 59.8602 52.2014 58.2557 53.4098C56.6753 54.6 54.5417 55.913 51.9253 57.5232L51.6779 57.6754C49.064 59.2842 46.9298 60.5977 45.17 61.4628C43.4018 62.332 41.5605 62.9877 39.6227 62.7706C36.8218 62.4568 34.3351 60.8971 32.7453 58.5646C31.6663 56.9815 31.2886 55.0601 31.1128 53.0168C30.9374 50.9796 30.9375 48.3687 30.9375 45.1347V44.8653C30.9375 41.6313 30.9374 39.0204 31.1128 36.9832C31.2886 34.9399 31.6663 33.0185 32.7453 31.4354C34.3351 29.1028 36.8218 27.5432 39.6227 27.2294C41.5605 27.0123 43.4018 27.668 45.17 28.5372C46.9297 29.4023 49.064 30.7158 51.6778 32.3245ZM42.6884 33.5852C41.1784 32.8429 40.5433 32.7865 40.249 32.8195C39.1558 32.9419 38.1049 33.5594 37.3933 34.6035C37.153 34.956 36.871 35.6766 36.7171 37.4655C36.565 39.2323 36.5625 41.5996 36.5625 45C36.5625 48.4004 36.565 50.7677 36.7171 52.5345C36.871 54.3234 37.153 55.044 37.3933 55.3965C38.1049 56.4406 39.1558 57.0581 40.249 57.1805C40.5433 57.2135 41.1784 57.1571 42.6884 56.4148C44.1791 55.682 46.0852 54.5124 48.8548 52.8079C51.6232 51.1042 53.5282 49.9283 54.8718 48.9165C56.2158 47.9043 56.6414 47.3089 56.8076 46.911C57.3141 45.6982 57.3141 44.3018 56.8076 43.089C56.6414 42.6911 56.2158 42.0957 54.8718 41.0835C53.5282 40.0717 51.6232 38.8958 48.8548 37.1921C46.0852 35.4876 44.1791 34.318 42.6884 33.5852Z"/>
</svg>
