<svg width="34" height="34" viewBox="0 0 34 34" xmlns="http://www.w3.org/2000/svg">
    <path fill-rule="evenodd" clip-rule="evenodd"
          d="M18.5789 23.3233C18.5789 23.3233 18.976 23.2798 19.1793 23.0644C19.3655 22.8671 19.359 22.4947 19.359 22.4947C19.359 22.4947 19.3343 20.7558 20.1531 20.4991C20.9601 20.2466 21.9964 22.1806 23.096 22.9244C23.9267 23.4867 24.5573 23.3636 24.5573 23.3636L27.4959 23.3233C27.4959 23.3233 29.0325 23.2299 28.304 22.0385C28.2437 21.9409 27.879 21.1568 26.1197 19.5464C24.2764 17.8605 24.5239 18.1332 26.7427 15.2167C28.0942 13.4407 28.6343 12.3564 28.4654 11.8928C28.3051 11.4493 27.3108 11.5671 27.3108 11.5671L24.0031 11.5872C24.0031 11.5872 23.7578 11.5543 23.576 11.6615C23.3984 11.7665 23.2833 12.0116 23.2833 12.0116C23.2833 12.0116 22.7603 13.3855 22.062 14.5547C20.5889 17.0203 20.0003 17.1508 19.7593 16.998C19.1987 16.6405 19.3386 15.5636 19.3386 14.7987C19.3386 12.4084 19.7066 11.4122 18.623 11.1544C18.2636 11.0684 17.9989 11.0122 17.0789 11.0027C15.8985 10.991 14.9 11.0069 14.334 11.2796C13.9574 11.461 13.6669 11.8663 13.8444 11.8896C14.0629 11.9182 14.5578 12.0212 14.8204 12.3734C15.1593 12.8285 15.1475 13.8491 15.1475 13.8491C15.1475 13.8491 15.3422 16.6627 14.6923 17.0118C14.2469 17.2516 13.6357 16.7625 12.3219 14.525C11.6493 13.3791 11.1415 12.1124 11.1415 12.1124C11.1415 12.1124 11.0435 11.8758 10.8681 11.7485C10.6562 11.5947 10.3603 11.5469 10.3603 11.5469L7.21721 11.5671C7.21721 11.5671 6.74484 11.5798 6.5716 11.7824C6.41773 11.9617 6.55976 12.3341 6.55976 12.3341C6.55976 12.3341 9.02062 18.0112 11.8075 20.8725C14.3631 23.4951 17.264 23.3233 17.264 23.3233H18.5789Z"/>
</svg>
