<svg width="24" height="18" viewBox="0 0 24 18" fill="none" xmlns="http://www.w3.org/2000/svg">
<path d="M17.6386 6.9254C17.4495 6.5879 17.4672 6.15559 17.7407 5.88203C18.0559 5.56681 18.578 5.58714 18.8136 5.96557C20.1814 8.16221 19.9277 11.0788 18.0526 13.0084C18.0239 13.0379 17.9906 13.0712 17.9359 13.1259L17.5303 13.5315C17.2375 13.8244 16.7626 13.8244 16.4697 13.5315C16.1768 13.2386 16.1768 12.7637 16.4697 12.4708L16.8697 12.0708C16.9314 12.0091 16.9566 11.9839 16.9769 11.963C18.3155 10.5855 18.5361 8.52727 17.6386 6.9254Z" fill="white"/>
<path d="M14.5303 6.97109C14.671 6.83043 14.7501 6.6395 14.7499 6.44058C14.7491 5.10236 14.7399 4.01839 14.6347 3.19155C14.5199 2.28896 14.2669 1.45788 13.548 0.968291C13.3094 0.805802 13.0467 0.681893 12.7695 0.601117C11.9345 0.357731 11.1322 0.691004 10.3627 1.17646C9.5898 1.66403 8.65177 2.43715 7.47816 3.40443L6.43797 4.26173C6.23851 4.42613 6.15785 4.49233 6.07791 4.5519C5.40104 5.05629 4.5893 5.34769 3.74617 5.38895C3.6466 5.39383 3.54225 5.39403 3.28377 5.39403L3.2422 5.39403C3.01938 5.39396 2.8477 5.39391 2.69421 5.41109C1.41758 5.55394 0.409921 6.56159 0.267071 7.83823C0.249896 7.99172 0.249945 8.1634 0.250007 8.38622V9.61614C0.249945 9.83895 0.249896 10.0106 0.267071 10.1641C0.409921 11.4408 1.41758 12.4484 2.69421 12.5913C2.84771 12.6084 3.01939 12.6084 3.24221 12.6083L3.28377 12.6083C3.54225 12.6083 3.6466 12.6085 3.74617 12.6134C4.5893 12.6547 5.40104 12.9461 6.07791 13.4505C6.15785 13.51 6.23851 13.5762 6.43797 13.7406L6.6375 13.9051C6.93564 14.1508 7.37165 14.1298 7.64484 13.8566C7.95783 13.5436 7.93309 13.0291 7.59151 12.7475L7.37636 12.5702C7.19728 12.4226 7.0871 12.3318 6.9742 12.2477C6.05843 11.5653 4.96019 11.171 3.81949 11.1152C3.67886 11.1083 3.53609 11.1083 3.30402 11.1083H3.28377C2.99997 11.1083 2.91982 11.1071 2.86101 11.1006C2.28072 11.0356 1.8227 10.5776 1.75777 9.99732C1.75119 9.93852 1.75002 9.85837 1.75002 9.57456V8.42779C1.75002 8.14399 1.75119 8.06384 1.75777 8.00503C1.8227 7.42474 2.28072 6.96672 2.86101 6.90179C2.91982 6.89521 2.99997 6.89403 3.28377 6.89403H3.30403C3.53607 6.89404 3.67887 6.89404 3.81949 6.88716C4.96019 6.83134 6.05843 6.43709 6.9742 5.75468C7.08711 5.67054 7.19728 5.57973 7.37636 5.43213L8.38797 4.59838C9.61585 3.5864 10.4806 2.8756 11.163 2.44512C11.8584 2.00642 12.1694 1.98861 12.3498 2.04119C12.4758 2.07791 12.5952 2.13423 12.7036 2.20809C12.8589 2.31387 13.043 2.56518 13.1467 3.38082C13.2485 4.18121 13.25 5.3006 13.25 6.89176C13.25 7.39351 13.8567 7.64478 14.2114 7.28999L14.5303 6.97109Z" fill="white"/>
<path d="M13.25 10.6834C13.25 10.4845 13.329 10.2937 13.4697 10.1531C13.9422 9.6806 14.75 10.0152 14.75 10.6834V11.1679C14.75 12.6887 14.75 13.9043 14.6347 14.8108C14.5199 15.7134 14.2669 16.5445 13.548 17.0341C13.3094 17.1966 13.0467 17.3205 12.7695 17.4012C11.9345 17.6446 11.1322 17.3113 10.3627 16.8259C9.95063 16.566 9.49164 16.2249 8.97504 15.8164C8.62615 15.5406 8.60063 15.0222 8.91511 14.7077C9.1871 14.4357 9.62002 14.4142 9.92181 14.6527C10.4021 15.0324 10.8073 15.3329 11.163 15.5572C11.8584 15.9959 12.1694 16.0137 12.3498 15.9612C12.4758 15.9244 12.5952 15.8681 12.7036 15.7943C12.8589 15.6885 13.043 15.4372 13.1467 14.6215C13.2485 13.8211 13.25 12.7018 13.25 11.1106V10.6834Z" fill="white"/>
<path d="M20.2496 4.35224C20.0034 4.05768 19.9974 3.62538 20.2688 3.35395L20.3038 3.31892C20.5988 3.02393 21.0846 3.0205 21.3558 3.33746C21.371 3.3552 21.3859 3.37283 21.4006 3.39039C24.1149 6.63851 24.1149 11.3638 21.4006 14.612C21.1497 14.9121 20.8295 15.2323 20.266 15.7959L19.5303 16.5315C19.2375 16.8244 18.7626 16.8244 18.4697 16.5315C18.1768 16.2386 18.1768 15.7637 18.4697 15.4708L19.1697 14.7708C19.7784 14.1621 20.0473 13.8922 20.2496 13.6501C22.4986 10.9588 22.4986 7.04354 20.2496 4.35224Z" fill="white"/>
<path d="M3.5625 17L19.5624 1" stroke="white" stroke-width="1.5" stroke-linecap="round"/>
</svg>
