<svg width="20" height="20" viewBox="0 0 20 20" xmlns="http://www.w3.org/2000/svg">
<path fill-rule="evenodd" clip-rule="evenodd" d="M14.402 2.34262C14.0493 2.29319 13.5738 2.29175 12.8524 2.29175H8.37845C6.96595 2.29175 5.95889 2.29268 5.18059 2.38059C4.41559 2.467 3.94655 2.63099 3.58178 2.90729C3.31819 3.10695 3.08535 3.3494 2.89236 3.62632C2.6638 3.95429 2.51401 4.36271 2.42255 4.96882C2.69399 4.69358 2.99869 4.45124 3.33059 4.24785C3.94627 3.87056 4.64469 3.70241 5.49765 3.62131C6.33447 3.54174 7.38194 3.54175 8.71809 3.54175H11.2702C12.4009 3.54175 13.3224 3.54175 14.0808 3.58854C14.4851 3.61349 14.8563 3.65229 15.2003 3.71524C15.1912 3.43194 15.1739 3.21049 15.1424 3.0293C15.0951 2.75832 15.025 2.63588 14.9472 2.55477C14.863 2.46707 14.7339 2.38915 14.402 2.34262ZM16.4583 4.12728C16.4539 3.62427 16.4383 3.18461 16.3738 2.81464C16.3004 2.39365 16.1554 2.00863 15.8493 1.68948C15.4966 1.3218 15.0558 1.17204 14.5755 1.10472C14.1258 1.04169 13.5618 1.04172 12.8963 1.04175L8.33961 1.04175C6.97453 1.04174 5.8969 1.04174 5.04029 1.13849C4.16228 1.23766 3.4423 1.44483 2.82704 1.91086C2.45761 2.19069 2.13376 2.5286 1.86683 2.91163C1.42502 3.5456 1.22912 4.28498 1.13491 5.19148C1.04255 6.08026 1.04255 7.20011 1.04256 8.62697L1.04256 8.66311C1.04256 8.94292 1.04057 9.21457 1.03865 9.4762C1.03502 9.97259 1.03165 10.433 1.04263 10.8448C1.04256 10.9664 1.04256 11.0905 1.04256 11.2173V11.2829C1.04255 12.619 1.04255 13.6665 1.12212 14.5033C1.20322 15.3563 1.37137 16.0547 1.74866 16.6704C2.14376 17.3151 2.68584 17.8572 3.33059 18.2523C3.94627 18.6296 4.64469 18.7978 5.49765 18.8789C6.33447 18.9584 7.38193 18.9584 8.71808 18.9584H11.2837C12.6199 18.9584 13.6673 18.9584 14.5041 18.8789C15.3571 18.7978 16.0555 18.6296 16.6712 18.2523C17.3159 17.8572 17.858 17.3151 18.2531 16.6704C18.8199 15.7454 18.924 14.6095 18.9506 13.0029C18.9592 12.4862 18.9592 11.9057 18.9592 11.2541V11.2305C18.9592 10.0941 18.9592 9.16882 18.9117 8.40808C18.8463 7.36238 18.6881 6.53966 18.2531 5.82978C17.858 5.18503 17.3159 4.64295 16.6712 4.24785C16.6015 4.20513 16.5305 4.16499 16.4583 4.12728ZM5.61597 4.86569C4.85451 4.93809 4.36998 5.07694 3.98371 5.31365C3.50716 5.60568 3.10649 6.00635 2.81446 6.4829C2.57775 6.86917 2.4389 7.3537 2.3665 8.11516C2.29322 8.88592 2.29256 9.87405 2.29256 11.2501C2.29256 12.6261 2.29322 13.6142 2.3665 14.385C2.4389 15.1465 2.57775 15.631 2.81446 16.0173C3.10649 16.4938 3.50716 16.8945 3.98371 17.1865C4.36998 17.4232 4.85451 17.5621 5.61597 17.6345C6.38673 17.7078 7.37486 17.7084 8.75089 17.7084H11.2509C12.6269 17.7084 13.6151 17.7078 14.3858 17.6345C15.1473 17.5621 15.6318 17.4232 16.0181 17.1865C16.4946 16.8945 16.8953 16.4938 17.1873 16.0173C17.5027 15.5026 17.6355 14.8345 17.6837 13.6175H13.0312C11.4308 13.6175 10.1335 12.3202 10.1335 10.7198C10.1335 9.11942 11.4308 7.82207 13.0312 7.82207H17.6023C17.5238 7.22591 17.3928 6.81827 17.1873 6.4829C16.8953 6.00635 16.4946 5.60568 16.0181 5.31365C15.8934 5.23725 15.7599 5.17191 15.6123 5.11588C15.2184 4.96626 14.7186 4.88028 14.0038 4.83617C13.2883 4.79202 12.4047 4.79175 11.2509 4.79175H8.75089C7.37486 4.79175 6.38673 4.79241 5.61597 4.86569ZM17.6905 9.07207H13.0312C12.1212 9.07207 11.3835 9.80978 11.3835 10.7198C11.3835 11.6298 12.1212 12.3675 13.0312 12.3675H17.7073C17.7092 12.0243 17.7092 11.6533 17.7092 11.2501C17.7092 10.3871 17.7091 9.67533 17.6905 9.07207ZM12.4062 10.7198C12.4062 10.3746 12.686 10.0948 13.0312 10.0948H15.3039C15.6491 10.0948 15.9289 10.3746 15.9289 10.7198C15.9289 11.065 15.6491 11.3448 15.3039 11.3448H13.0312C12.686 11.3448 12.4062 11.065 12.4062 10.7198Z" />
</svg>
