<svg width="40" height="40" viewBox="0 0 40 40" fill="none" xmlns="http://www.w3.org/2000/svg">
<g opacity="0.6">
<path d="M7.31292 35.4383L7.96605 34.3725L7.31292 35.4383ZM4.56175 32.6872L5.62755 32.034L4.56175 32.6872ZM35.4391 32.6872L34.3733 32.034L35.4391 32.6872ZM32.6879 35.4383L32.0348 34.3725L32.6879 35.4383ZM32.6879 9.56101L32.0348 10.6268L32.6879 9.56101ZM35.4391 12.3122L34.3733 12.9653L35.4391 12.3122ZM7.31292 9.56101L7.96605 10.6268L7.31292 9.56101ZM4.56175 12.3122L5.62755 12.9653L4.56175 12.3122ZM30.795 4.24376L31.6971 3.37847V3.37847L30.795 4.24376ZM6.40745 4.81766L7.16219 5.81408H7.16219L6.40745 4.81766ZM4.75782 6.53745L5.78335 7.25215L4.75782 6.53745ZM31.6671 8.55021H32.9171L32.9171 8.54404L31.6671 8.55021ZM30.6065 22.6891C31.2968 22.6891 31.8565 22.1294 31.8565 21.4391C31.8565 20.7487 31.2968 20.1891 30.6065 20.1891V22.6891ZM26.061 20.1891C25.3707 20.1891 24.811 20.7487 24.811 21.4391C24.811 22.1294 25.3707 22.6891 26.061 22.6891V20.1891ZM17.5004 9.58301H22.5004V7.08301H17.5004V9.58301ZM22.5004 35.4163H17.5004V37.9163H22.5004V35.4163ZM17.5004 35.4163C14.7483 35.4163 12.7721 35.415 11.2306 35.2684C9.70764 35.1236 8.73859 34.846 7.96605 34.3725L6.6598 36.5041C7.89117 37.2587 9.28801 37.595 10.9939 37.7572C12.6812 37.9177 14.7968 37.9163 17.5004 37.9163V35.4163ZM2.08375 22.4997C2.08375 25.2033 2.08243 27.3188 2.24286 29.0062C2.40506 30.7121 2.74136 32.1089 3.49595 33.3403L5.62755 32.034C5.15413 31.2615 4.87643 30.2924 4.73163 28.7695C4.58507 27.228 4.58375 25.2517 4.58375 22.4997H2.08375ZM7.96605 34.3725C7.01295 33.7885 6.21161 32.9871 5.62755 32.034L3.49595 33.3403C4.28615 34.6298 5.37031 35.7139 6.6598 36.5041L7.96605 34.3725ZM22.5004 37.9163C25.2041 37.9163 27.3196 37.9177 29.0069 37.7572C30.7128 37.595 32.1097 37.2587 33.341 36.5041L32.0348 34.3725C31.2622 34.846 30.2932 35.1236 28.7703 35.2684C27.2287 35.415 25.2525 35.4163 22.5004 35.4163V37.9163ZM34.3733 32.034C33.7892 32.9871 32.9879 33.7885 32.0348 34.3725L33.341 36.5041C34.6305 35.7139 35.7147 34.6298 36.5049 33.3403L34.3733 32.034ZM32.0348 10.6268C32.9879 11.2109 33.7892 12.0122 34.3733 12.9653L36.5049 11.6591C35.7147 10.3696 34.6305 9.28541 33.341 8.49521L32.0348 10.6268ZM17.5004 7.08301C14.7968 7.08301 12.6812 7.08169 10.9939 7.24212C9.28801 7.40432 7.89117 7.74062 6.6598 8.49521L7.96605 10.6268C8.73859 10.1534 9.70764 9.87569 11.2306 9.73089C12.7721 9.58433 14.7483 9.58301 17.5004 9.58301V7.08301ZM4.58375 22.4997C4.58375 19.7476 4.58507 17.7713 4.73163 16.2298C4.87643 14.7069 5.15413 13.7379 5.62755 12.9653L3.49595 11.6591C2.74136 12.8904 2.40506 14.2873 2.24286 15.9932C2.08243 17.6805 2.08375 19.796 2.08375 22.4997H4.58375ZM6.6598 8.49521C5.37031 9.28541 4.28615 10.3696 3.49595 11.6591L5.62755 12.9653C6.21161 12.0122 7.01295 11.2109 7.96605 10.6268L6.6598 8.49521ZM16.7555 4.58301H25.7034V2.08301H16.7555V4.58301ZM25.7034 4.58301C27.1462 4.58301 28.0973 4.58589 28.8026 4.68475C29.4665 4.7778 29.7247 4.93365 29.8929 5.10905L31.6971 3.37847C30.9918 2.64311 30.1102 2.34359 29.1496 2.20895C28.2306 2.08013 27.0726 2.08301 25.7034 2.08301V4.58301ZM16.7555 2.08301C13.9885 2.08301 11.8086 2.08115 10.0792 2.27649C8.32318 2.47483 6.88323 2.88918 5.6527 3.82123L7.16219 5.81408C7.89173 5.26149 8.82981 4.93351 10.3598 4.76069C11.9164 4.58487 13.9305 4.58301 16.7555 4.58301V2.08301ZM4.58375 17.3257C4.58375 14.3841 4.58533 12.2741 4.75506 10.6409C4.92267 9.02808 5.24291 8.02765 5.78335 7.25215L3.73229 5.82276C2.84866 7.0907 2.45686 8.56947 2.26845 10.3825C2.08217 12.175 2.08375 14.4375 2.08375 17.3257H4.58375ZM5.6527 3.82123C4.91384 4.38088 4.26616 5.0567 3.73229 5.82276L5.78335 7.25215C6.16932 6.69831 6.63501 6.2134 7.16219 5.81408L5.6527 3.82123ZM32.9171 8.54404C32.9115 7.41627 32.8874 6.43897 32.7462 5.62879C32.5994 4.7868 32.3094 4.01676 31.6971 3.37847L29.8929 5.10905C30.0485 5.27126 30.1889 5.51614 30.2833 6.05811C30.3834 6.63187 30.4114 7.40755 30.4171 8.55639L32.9171 8.54404ZM2.08375 17.3257C2.08375 18.9518 2.05015 20.44 2.08418 21.7001L4.58326 21.6326C4.55034 20.4133 4.58375 19.0397 4.58375 17.3257H2.08375ZM35.8337 24.7345H26.061V27.2345H35.8337V24.7345ZM20.2656 21.4391C20.2656 24.6398 22.8603 27.2345 26.061 27.2345V24.7345C24.241 24.7345 22.7656 23.2591 22.7656 21.4391H20.2656ZM22.7656 21.4391C22.7656 19.6191 24.241 18.1436 26.061 18.1436V15.6436C22.8603 15.6436 20.2656 18.2384 20.2656 21.4391H22.7656ZM30.6065 20.1891H26.061V22.6891H30.6065V20.1891ZM22.5004 9.58301C24.8081 9.58301 26.5753 9.58354 28.0063 9.67184C29.4359 9.76006 30.4354 9.93203 31.2233 10.2313L32.1109 7.89412C30.9774 7.46366 29.6869 7.2708 28.1602 7.17659C26.6349 7.08247 24.7794 7.08301 22.5004 7.08301V9.58301ZM31.2233 10.2313C31.5184 10.3433 31.7854 10.474 32.0348 10.6268L33.341 8.49521C32.952 8.25678 32.5439 8.05857 32.1109 7.89412L31.2233 10.2313ZM30.4171 8.55021V9.06269H32.9171V8.55021H30.4171ZM26.061 18.1436H36.5744V15.6436H26.061V18.1436ZM37.9171 22.4997C37.9171 20.2089 37.9176 18.3458 37.822 16.8157L35.3269 16.9716C35.4165 18.4062 35.4171 20.1797 35.4171 22.4997H37.9171ZM37.822 16.8157C37.6913 14.7243 37.3749 13.0788 36.5049 11.6591L34.3733 12.9653C34.9214 13.8598 35.2043 15.0115 35.3269 16.9716L37.822 16.8157ZM35.4171 22.4997C35.4171 23.8122 35.417 24.9533 35.4003 25.9638L37.8999 26.0053C37.9171 24.9699 37.9171 23.8063 37.9171 22.4997H35.4171ZM35.4003 25.9638C35.3461 29.228 35.1061 30.8381 34.3733 32.034L36.5049 33.3403C37.6385 31.4904 37.8466 29.2184 37.8999 26.0053L35.4003 25.9638ZM35.8337 27.2345H36.6501V24.7345H35.8337V27.2345Z" fill="#FAFAFA"/>
</g>
</svg>
