<svg width="12" height="12" viewBox="0 0 12 12" fill="none" xmlns="http://www.w3.org/2000/svg">
<path d="M2.78438 10.5419L2.6351 10.8859L2.6351 10.8859L2.78438 10.5419ZM1.43139 9.12448L1.08266 9.26236L1.08266 9.26236L1.43139 9.12448ZM10.0508 9.12448L10.3995 9.26236L10.3995 9.26236L10.0508 9.12448ZM8.6978 10.5419L8.84708 10.8859L8.84708 10.8859L8.6978 10.5419ZM1.24109 5.49127L1.61462 5.52446L1.63297 5.3179L1.46777 5.19254L1.24109 5.49127ZM9.49109 3.24126L9.49109 2.86626L9.49109 2.86626L9.49109 3.24126ZM6.12497 2.68581L6.39014 2.95098L6.39014 2.95098L6.12497 2.68581ZM7.18563 1.62515L7.4508 1.89031L7.4508 1.89031L7.18563 1.62515ZM8.9534 1.62515L8.68823 1.89031L8.68823 1.89031L8.9534 1.62515ZM9.08283 3.24126L9.08286 3.61626L9.27424 3.61625L9.38652 3.46126L9.08283 3.24126ZM5.43564 2.68582L5.17047 2.95098L5.17047 2.95098L5.43564 2.68582ZM4.37498 1.62516L4.10981 1.89032L4.10981 1.89032L4.37498 1.62516ZM2.60721 1.62516L2.87238 1.89032L2.87238 1.89032L2.60721 1.62516ZM5.74109 10.2413L6.11609 10.2413L6.11609 10.2413L5.74109 10.2413ZM1.22485 5.47895L0.994783 5.77508L0.994783 5.77508L1.22485 5.47895ZM10.2088 5.51482L9.99323 5.20797L10.2088 5.51482ZM4.99109 10.3663C4.40329 10.3663 3.98211 10.366 3.64994 10.3423C3.32149 10.3188 3.1084 10.2737 2.93366 10.1979L2.6351 10.8859C2.91979 11.0094 3.22763 11.064 3.59646 11.0904C3.96157 11.1165 4.41404 11.1163 4.99109 11.1163V10.3663ZM0.866105 6.8127C0.866105 7.41796 0.865916 7.88984 0.890677 8.27009C0.915637 8.65339 0.967093 8.97008 1.08266 9.26236L1.78012 8.9866C1.70539 8.79758 1.6617 8.56854 1.63909 8.22136C1.61629 7.87113 1.6161 7.42776 1.6161 6.8127H0.866105ZM2.93366 10.1979C2.41561 9.97309 1.99868 9.53937 1.78012 8.9866L1.08266 9.26236C1.37157 9.99308 1.92801 10.5791 2.6351 10.8859L2.93366 10.1979ZM9.86609 6.81269C9.86609 7.42775 9.8659 7.87112 9.84309 8.22135C9.82048 8.56853 9.77679 8.79758 9.70206 8.9866L10.3995 9.26236C10.5151 8.97008 10.5665 8.6534 10.5915 8.27009C10.6163 7.88983 10.6161 7.41795 10.6161 6.81269H9.86609ZM6.49109 11.1163C7.06814 11.1163 7.5206 11.1165 7.88571 11.0904C8.25455 11.064 8.56239 11.0094 8.84708 10.8859L8.54852 10.1979C8.37378 10.2737 8.16069 10.3188 7.83224 10.3423C7.50007 10.366 7.07889 10.3663 6.49109 10.3663V11.1163ZM9.70206 8.9866C9.4835 9.53937 9.06657 9.97309 8.54852 10.1979L8.84708 10.8859C9.55417 10.5791 10.1106 9.99308 10.3995 9.26236L9.70206 8.9866ZM1.6161 6.8127C1.6161 6.07608 1.58197 5.8919 1.61462 5.52446L0.86756 5.45808C0.831471 5.86426 0.866105 6.16976 0.866105 6.8127H1.6161ZM9.49109 3.61626C9.97434 3.61626 10.3661 4.00801 10.3661 4.49126H11.1161C11.1161 3.5938 10.3886 2.86626 9.49109 2.86626V3.61626ZM1.99109 2.86626C1.09363 2.86626 0.366089 3.5938 0.366089 4.49126H1.11609C1.11609 4.00801 1.50784 3.61626 1.99109 3.61626V2.86626ZM6.39014 2.95098L7.4508 1.89031L6.92047 1.35998L5.85981 2.42064L6.39014 2.95098ZM7.4508 1.89031C7.79251 1.54861 8.34653 1.54861 8.68823 1.89031L9.21856 1.35998C8.58396 0.725383 7.55507 0.725383 6.92047 1.35998L7.4508 1.89031ZM5.85981 2.42064C5.70303 2.57742 5.46341 2.83256 5.37917 3.14309L6.10301 3.33945C6.12916 3.24306 6.22741 3.1137 6.39014 2.95098L5.85981 2.42064ZM8.68823 1.89031C8.99621 2.19829 9.02679 2.67942 8.77915 3.02125L9.38652 3.46126C9.84694 2.82572 9.79124 1.93266 9.21856 1.35998L8.68823 1.89031ZM5.7008 2.42065L4.64014 1.35999L4.10981 1.89032L5.17047 2.95098L5.7008 2.42065ZM4.64014 1.35999C4.00554 0.725389 2.97665 0.725389 2.34205 1.35999L2.87238 1.89032C3.21409 1.54861 3.76811 1.54861 4.10981 1.89032L4.64014 1.35999ZM5.17047 2.95098C5.27101 3.05152 5.33557 3.17874 5.37917 3.33945L6.10301 3.14309C6.03622 2.89688 5.91977 2.63962 5.7008 2.42065L5.17047 2.95098ZM2.34205 1.35999C1.76937 1.93266 1.71367 2.82573 2.1741 3.46127L2.78146 3.02126C2.53382 2.67943 2.5644 2.1983 2.87238 1.89032L2.34205 1.35999ZM5.36609 3.24127L5.36609 10.2413L6.11609 10.2413L6.11609 3.24127L5.36609 3.24127ZM2.47778 3.61626L5.74109 3.61627L5.74109 2.86627L2.47778 2.86626L2.47778 3.61626ZM1.99109 5.36626C1.78857 5.36626 1.60308 5.29792 1.45492 5.18282L0.994783 5.77508C1.26988 5.98881 1.61613 6.11626 1.99109 6.11626V5.36626ZM1.45492 5.18282C1.24806 5.02211 1.11609 4.77219 1.11609 4.49126H0.366089C0.366089 5.01357 0.612924 5.47841 0.994783 5.77508L1.45492 5.18282ZM1.46777 5.19254L1.45154 5.18022L0.998166 5.77768L1.0144 5.79L1.46777 5.19254ZM6.49109 10.3663H5.74109V11.1163H6.49109V10.3663ZM5.74109 10.3663H4.99109V11.1163H5.74109V10.3663ZM5.36609 10.2413L5.36609 10.7413L6.11609 10.7413L6.11609 10.2413L5.36609 10.2413ZM9.49109 5.36626H5.74109V6.11626H9.49109V5.36626ZM5.74109 5.36626H1.99109V6.11626H5.74109V5.36626ZM10.3661 4.49126C10.3661 4.78725 10.2195 5.04903 9.99323 5.20797L10.4243 5.82168C10.8419 5.52834 11.1161 5.04184 11.1161 4.49126H10.3661ZM9.99323 5.20797C9.85119 5.30775 9.67853 5.36626 9.49109 5.36626V6.11626C9.83779 6.11626 10.1602 6.00726 10.4243 5.82168L9.99323 5.20797ZM10.6161 6.81269C10.6161 6.14024 10.6163 5.87494 10.5824 5.48251L9.83518 5.54714C9.86584 5.90161 9.86609 6.13379 9.86609 6.81269H10.6161ZM5.74109 3.61627L8.9534 3.61626L8.9534 2.86626L5.74109 2.86627L5.74109 3.61627ZM8.95342 3.61626L9.08286 3.61626L9.08281 2.86626L8.95338 2.86626L8.95342 3.61626ZM8.9534 3.61626L9.49109 3.61626L9.49109 2.86626L8.9534 2.86626L8.9534 3.61626ZM2.47778 2.86626H1.99109V3.61626H2.47778V2.86626ZM1.99109 3.61626L3.86609 3.61627L3.86609 2.86627L1.99109 2.86626L1.99109 3.61626ZM3.86609 3.61627L5.74109 3.61627L5.74109 2.86627L3.86609 2.86627L3.86609 3.61627ZM2.47778 3.61626L3.86609 3.61627L3.86609 2.86627L2.47778 2.86626L2.47778 3.61626ZM5.74109 3.61627L9.08284 3.61626L9.08283 2.86626L5.74109 2.86627L5.74109 3.61627Z" fill="#BABABA"/>
</svg>
