<svg width="13" height="13" viewBox="0 0 13 13" fill="none" xmlns="http://www.w3.org/2000/svg">
<g clip-path="url(#clip0_1761_31127)">
<path fill-rule="evenodd" clip-rule="evenodd" d="M4.70304 1.86376C5.21473 0.0708024 7.7557 0.0708024 8.26739 1.86376C8.4308 2.43635 9.01905 2.77598 9.59663 2.6312C11.4052 2.17785 12.6757 4.3784 11.3788 5.71802C10.9646 6.14583 10.9646 6.82509 11.3788 7.25289C12.6757 8.59251 11.4052 10.7931 9.59663 10.3397C9.01905 10.1949 8.4308 10.5346 8.26739 11.1071C7.7557 12.9001 5.21473 12.9001 4.70304 11.1071C4.53963 10.5346 3.95137 10.1949 3.3738 10.3397C1.56521 10.7931 0.294717 8.59251 1.59162 7.25289C2.00579 6.82509 2.00579 6.14583 1.59162 5.71802C0.294717 4.37841 1.56521 2.17785 3.3738 2.6312C3.95137 2.77598 4.53963 2.43635 4.70304 1.86376ZM7.54619 2.06959C7.24157 1.00219 5.72886 1.00219 5.42424 2.06959C5.14976 3.03139 4.16163 3.60188 3.19145 3.35869C2.11475 3.08881 1.3584 4.39885 2.13047 5.19635C2.82617 5.91496 2.82617 7.05595 2.13047 7.77456C1.3584 8.57207 2.11475 9.88211 3.19145 9.61222C4.16163 9.36903 5.14976 9.93953 5.42424 10.9013C5.72886 11.9687 7.24157 11.9687 7.54619 10.9013C7.82067 9.93953 8.8088 9.36903 9.77898 9.61222C10.8557 9.88211 11.612 8.57207 10.84 7.77456C10.1443 7.05595 10.1443 5.91496 10.84 5.19635C11.612 4.39885 10.8557 3.08881 9.77898 3.35869C8.8088 3.60188 7.82067 3.03139 7.54619 2.06959ZM8.07881 4.89186C8.22525 5.03831 8.22525 5.27575 8.07881 5.42219L5.25038 8.25062C5.10393 8.39707 4.8665 8.39707 4.72005 8.25062C4.5736 8.10417 4.5736 7.86674 4.72005 7.72029L7.54848 4.89186C7.69492 4.74542 7.93236 4.74542 8.07881 4.89186Z" fill="#BABABA"/>
<path d="M4.48523 4.98535C4.48523 5.26149 4.70909 5.48535 4.98523 5.48535C5.26137 5.48535 5.48523 5.26149 5.48523 4.98535C5.48523 4.70921 5.26137 4.48535 4.98523 4.48535C4.70909 4.48535 4.48523 4.70921 4.48523 4.98535Z" fill="#BABABA"/>
<path d="M7.48523 7.98535C7.48523 8.26149 7.70909 8.48535 7.98523 8.48535C8.26137 8.48535 8.48523 8.26149 8.48523 7.98535C8.48523 7.70921 8.26137 7.48535 7.98523 7.48535C7.70909 7.48535 7.48523 7.70921 7.48523 7.98535Z" fill="#BABABA"/>
</g>
<defs>
<clipPath id="clip0_1761_31127">
<rect width="12" height="12" fill="white" transform="translate(0.485229 0.485352)"/>
</clipPath>
</defs>
</svg>
