<svg width="24" height="24" viewBox="0 0 24 24" fill="none" xmlns="http://www.w3.org/2000/svg">
<path d="M23.9999 12C23.9999 14.3743 23.2955 16.6953 21.9759 18.6692C20.6564 20.643 18.7809 22.1811 16.5869 23.0887C14.3929 23.9963 11.979 24.2326 9.6506 23.7678C7.32222 23.303 5.18406 22.1578 3.50672 20.4774C1.82939 18.7969 0.688252 16.6567 0.227747 14.3274C-0.232757 11.9982 0.00807726 9.5847 0.919742 7.39238C1.83141 5.20006 3.37294 3.32746 5.34926 2.01156C7.32557 0.695669 9.64782 -0.00438439 12.0221 2.06616e-05C13.5969 1.79412e-05 15.1563 0.310554 16.6109 0.913883C18.0656 1.51721 19.387 2.40149 20.4995 3.51609C21.6121 4.63068 22.4939 5.95373 23.0945 7.4095C23.6951 8.86528 24.0028 10.4252 23.9999 12Z" fill="#1F1F1F"/>
</svg>
