<svg width="1192" height="300" viewBox="0 0 1192 300" fill="none" xmlns="http://www.w3.org/2000/svg">
<rect x="0.5" y="0.5" width="1191" height="299" rx="7.5" stroke="white" stroke-opacity="0.2"/>
<rect x="1" y="231" width="1190" height="1" fill="white" fill-opacity="0.2"/>
<path d="M590.233 272H591.466V268.281H593.693C596.065 268.281 597.134 266.839 597.134 265.04C597.134 263.24 596.065 261.818 593.673 261.818H590.233V272ZM591.466 267.188V262.912H593.634C595.289 262.912 595.92 263.817 595.92 265.04C595.92 266.263 595.289 267.188 593.653 267.188H591.466ZM598.961 272H600.134V267.168C600.134 266.134 600.949 265.378 602.063 265.378C602.376 265.378 602.699 265.438 602.779 265.457V264.264C602.645 264.254 602.336 264.244 602.162 264.244C601.248 264.244 600.452 264.761 600.174 265.517H600.094V264.364H598.961V272ZM607.039 272.159C609.108 272.159 610.5 270.588 610.5 268.222C610.5 265.835 609.108 264.264 607.039 264.264C604.971 264.264 603.579 265.835 603.579 268.222C603.579 270.588 604.971 272.159 607.039 272.159ZM607.039 271.105C605.468 271.105 604.752 269.753 604.752 268.222C604.752 266.69 605.468 265.318 607.039 265.318C608.61 265.318 609.326 266.69 609.326 268.222C609.326 269.753 608.61 271.105 607.039 271.105Z" fill="white" fill-opacity="0.4"/>
<rect x="549" y="276" width="20" height="20" rx="10" transform="rotate(-90 549 276)" fill="url(#paint0_linear_267_5552)"/>
<path d="M485.233 272H491.199V270.906H486.466V261.818H485.233V272ZM492.949 272H494.122V264.364H492.949V272ZM493.545 263.091C494.003 263.091 494.381 262.733 494.381 262.295C494.381 261.858 494.003 261.5 493.545 261.5C493.088 261.5 492.71 261.858 492.71 262.295C492.71 262.733 493.088 263.091 493.545 263.091ZM499.592 264.364H497.961V262.534H496.788V264.364H495.635V265.358H496.788V270.131C496.788 271.463 497.862 272.099 498.856 272.099C499.294 272.099 499.572 272.02 499.731 271.96L499.493 270.906C499.393 270.926 499.234 270.966 498.976 270.966C498.459 270.966 497.961 270.807 497.961 269.812V265.358H499.592V264.364ZM504.477 272.159C506.028 272.159 507.161 271.384 507.519 270.23L506.386 269.912C506.088 270.707 505.396 271.105 504.477 271.105C503.1 271.105 502.15 270.215 502.095 268.58H507.639V268.082C507.639 265.239 505.948 264.264 504.357 264.264C502.289 264.264 500.917 265.895 500.917 268.241C500.917 270.588 502.269 272.159 504.477 272.159ZM502.095 267.565C502.175 266.377 503.015 265.318 504.357 265.318C505.63 265.318 506.445 266.273 506.445 267.565H502.095Z" fill="white" fill-opacity="0.4"/>
<rect x="444" y="276" width="20" height="20" rx="10" transform="rotate(-90 444 276)" fill="url(#paint1_linear_267_5552)"/>
<path d="M693.233 272H699.199V270.906H694.466V261.818H693.233V272ZM700.949 272H702.122V264.364H700.949V272ZM701.545 263.091C702.003 263.091 702.381 262.733 702.381 262.295C702.381 261.858 702.003 261.5 701.545 261.5C701.088 261.5 700.71 261.858 700.71 262.295C700.71 262.733 701.088 263.091 701.545 263.091ZM707.592 264.364H705.961V262.534H704.788V264.364H703.635V265.358H704.788V270.131C704.788 271.463 705.862 272.099 706.856 272.099C707.294 272.099 707.572 272.02 707.731 271.96L707.493 270.906C707.393 270.926 707.234 270.966 706.976 270.966C706.459 270.966 705.961 270.807 705.961 269.812V265.358H707.592V264.364ZM712.477 272.159C714.028 272.159 715.161 271.384 715.519 270.23L714.386 269.912C714.088 270.707 713.396 271.105 712.477 271.105C711.1 271.105 710.15 270.215 710.095 268.58H715.639V268.082C715.639 265.239 713.948 264.264 712.357 264.264C710.289 264.264 708.917 265.895 708.917 268.241C708.917 270.588 710.269 272.159 712.477 272.159ZM710.095 267.565C710.175 266.377 711.015 265.318 712.357 265.318C713.63 265.318 714.445 266.273 714.445 267.565H710.095ZM720.406 271.304H721.52V268.58H724.244V267.466H721.52V264.741H720.406V267.466H717.682V268.58H720.406V271.304ZM726.811 272H728.044V268.281H730.271C732.643 268.281 733.712 266.839 733.712 265.04C733.712 263.24 732.643 261.818 730.251 261.818H726.811V272ZM728.044 267.188V262.912H730.212C731.867 262.912 732.499 263.817 732.499 265.04C732.499 266.263 731.867 267.188 730.232 267.188H728.044ZM735.539 272H736.712V267.168C736.712 266.134 737.527 265.378 738.641 265.378C738.954 265.378 739.277 265.438 739.357 265.457V264.264C739.223 264.254 738.914 264.244 738.74 264.244C737.826 264.244 737.03 264.761 736.752 265.517H736.672V264.364H735.539V272ZM743.618 272.159C745.686 272.159 747.078 270.588 747.078 268.222C747.078 265.835 745.686 264.264 743.618 264.264C741.549 264.264 740.157 265.835 740.157 268.222C740.157 270.588 741.549 272.159 743.618 272.159ZM743.618 271.105C742.047 271.105 741.331 269.753 741.331 268.222C741.331 266.69 742.047 265.318 743.618 265.318C745.189 265.318 745.904 266.69 745.904 268.222C745.904 269.753 745.189 271.105 743.618 271.105Z" fill="white" fill-opacity="0.4"/>
<rect x="652" y="276" width="20" height="20" rx="10" transform="rotate(-90 652 276)" fill="url(#paint2_linear_267_5552)"/>
<rect x="76" y="166" width="80" height="22" rx="11" transform="rotate(-90 76 166)" fill="url(#paint3_linear_267_5552)"/>
<rect x="48" y="166" width="31" height="22" rx="11" transform="rotate(-90 48 166)" fill="url(#paint4_linear_267_5552)"/>
<rect x="104" y="166" width="134" height="22" rx="11" transform="rotate(-90 104 166)" fill="url(#paint5_linear_267_5552)"/>
<path d="M63.5453 189C63.1674 186.912 61.497 185.679 59.4487 185.679C56.8436 185.679 54.9544 187.688 54.9544 190.909C54.9544 194.131 56.8436 196.139 59.4487 196.139C61.497 196.139 63.1674 194.906 63.5453 192.818H62.3123C62.014 194.23 60.801 194.986 59.4487 194.986C57.5993 194.986 56.1475 193.554 56.1475 190.909C56.1475 188.264 57.5993 186.832 59.4487 186.832C60.801 186.832 62.014 187.588 62.3123 189H63.5453ZM68.5803 196.159C70.1314 196.159 71.2649 195.384 71.6229 194.23L70.4893 193.912C70.1911 194.707 69.5 195.105 68.5803 195.105C67.2031 195.105 66.2536 194.215 66.1989 192.58H71.7422V192.082C71.7422 189.239 70.0518 188.264 68.4609 188.264C66.3928 188.264 65.0206 189.895 65.0206 192.241C65.0206 194.588 66.3729 196.159 68.5803 196.159ZM66.1989 191.565C66.2784 190.377 67.1186 189.318 68.4609 189.318C69.7337 189.318 70.549 190.273 70.549 191.565H66.1989ZM74.7003 188.364H73.527V196H74.7003V192.739H78.3594V196H79.5327V188.364H78.3594V191.645H74.7003V188.364ZM80.6364 189.457H83.1619V196H84.3352V189.457H86.8409V188.364H80.6364V189.457ZM93.1461 196H94.2598V188.364H91.1177C89.4721 188.364 88.4728 189.224 88.4728 190.631C88.4728 191.68 88.9998 192.425 89.9196 192.739L88.0552 196H89.3279L91.0978 192.898H93.1461V196ZM93.1461 191.804H90.9785C90.1483 191.804 89.6461 191.362 89.6461 190.631C89.6461 189.89 90.2029 189.438 91.1177 189.438H93.1461V191.804ZM102.081 185.5C101.708 185.813 101.152 185.813 100.371 185.808C100.118 185.808 99.8391 185.808 99.5359 185.818C97.2092 185.878 96.0558 187.648 96.0558 191.048V191.864C96.0558 194.688 97.4279 196.159 99.4762 196.159C101.52 196.159 102.877 194.678 102.877 192.281C102.877 189.875 101.5 188.602 99.7148 188.602C98.6658 188.602 97.6864 189.04 97.1694 189.994H97.07C97.229 188.026 97.9648 186.972 99.5558 186.912C100.968 186.852 101.982 186.892 102.678 186.216L102.081 185.5ZM99.4762 195.105C98.0842 195.105 97.229 193.991 97.229 192.281C97.2539 190.611 98.0941 189.656 99.4563 189.656C100.853 189.656 101.703 190.611 101.703 192.281C101.703 194.001 100.858 195.105 99.4762 195.105ZM104.672 198.864H105.845V194.827H105.944C106.203 195.244 106.7 196.159 108.172 196.159C110.081 196.159 111.413 194.628 111.413 192.202C111.413 189.795 110.081 188.264 108.152 188.264C106.66 188.264 106.203 189.179 105.944 189.577H105.805V188.364H104.672V198.864ZM105.825 192.182C105.825 190.472 106.581 189.318 108.012 189.318C109.504 189.318 110.24 190.571 110.24 192.182C110.24 193.812 109.484 195.105 108.012 195.105C106.6 195.105 105.825 193.912 105.825 192.182ZM114.376 191.128V188.364H113.203V196H116.404C118.194 196 119.169 194.906 119.169 193.534C119.169 192.142 118.194 191.128 116.404 191.128H114.376ZM114.376 192.222H116.404C117.334 192.222 117.995 192.788 117.995 193.594C117.995 194.364 117.334 194.906 116.404 194.906H114.376V192.222Z" fill="white"/>
<rect x="280" y="166" width="65" height="22" rx="11" transform="rotate(-90 280 166)" fill="url(#paint6_linear_267_5552)"/>
<rect x="252" y="166" width="6" height="22" rx="3" transform="rotate(-90 252 166)" fill="url(#paint7_linear_267_5552)"/>
<rect x="308" y="166" width="95" height="22" rx="11" transform="rotate(-90 308 166)" fill="url(#paint8_linear_267_5552)"/>
<path d="M271.792 190.909C271.792 187.688 269.902 185.679 267.297 185.679C264.692 185.679 262.803 187.688 262.803 190.909C262.803 194.131 264.692 196.139 267.297 196.139C269.902 196.139 271.792 194.131 271.792 190.909ZM270.598 190.909C270.598 193.554 269.147 194.986 267.297 194.986C265.448 194.986 263.996 193.554 263.996 190.909C263.996 188.264 265.448 186.832 267.297 186.832C269.147 186.832 270.598 188.264 270.598 190.909ZM273.706 196H274.879V192.778H275.933L278.439 196H279.95L276.828 192.043L279.91 188.364H278.399L275.655 191.685H274.879V188.364H273.706V196ZM280.788 189.457H283.313V196H284.487V189.457H286.992V188.364H280.788V189.457ZM293.297 196H294.411V188.364H291.269C289.623 188.364 288.624 189.224 288.624 190.631C288.624 191.68 289.151 192.425 290.071 192.739L288.207 196H289.479L291.249 192.898H293.297V196ZM293.297 191.804H291.13C290.3 191.804 289.797 191.362 289.797 190.631C289.797 189.89 290.354 189.438 291.269 189.438H293.297V191.804ZM302.233 185.5C301.86 185.813 301.303 185.813 300.522 185.808C300.269 185.808 299.991 185.808 299.687 185.818C297.361 185.878 296.207 187.648 296.207 191.048V191.864C296.207 194.688 297.579 196.159 299.628 196.159C301.671 196.159 303.028 194.678 303.028 192.281C303.028 189.875 301.651 188.602 299.866 188.602C298.817 188.602 297.838 189.04 297.321 189.994H297.221C297.38 188.026 298.116 186.972 299.707 186.912C301.119 186.852 302.133 186.892 302.829 186.216L302.233 185.5ZM299.628 195.105C298.236 195.105 297.38 193.991 297.38 192.281C297.405 190.611 298.245 189.656 299.608 189.656C301.005 189.656 301.855 190.611 301.855 192.281C301.855 194.001 301.01 195.105 299.628 195.105ZM304.823 198.864H305.996V194.827H306.096C306.354 195.244 306.851 196.159 308.323 196.159C310.232 196.159 311.564 194.628 311.564 192.202C311.564 189.795 310.232 188.264 308.303 188.264C306.812 188.264 306.354 189.179 306.096 189.577H305.956V188.364H304.823V198.864ZM305.976 192.182C305.976 190.472 306.732 189.318 308.164 189.318C309.655 189.318 310.391 190.571 310.391 192.182C310.391 193.812 309.635 195.105 308.164 195.105C306.752 195.105 305.976 193.912 305.976 192.182ZM314.527 191.128V188.364H313.354V196H316.556C318.346 196 319.32 194.906 319.32 193.534C319.32 192.142 318.346 191.128 316.556 191.128H314.527ZM314.527 192.222H316.556C317.486 192.222 318.147 192.788 318.147 193.594C318.147 194.364 317.486 194.906 316.556 194.906H314.527V192.222Z" fill="white"/>
<rect x="484" y="166" width="31" height="22" rx="11" transform="rotate(-90 484 166)" fill="url(#paint9_linear_267_5552)"/>
<rect x="456" y="166" width="13" height="22" rx="6.5" transform="rotate(-90 456 166)" fill="url(#paint10_linear_267_5552)"/>
<rect x="512" y="166" width="70" height="22" rx="11" transform="rotate(-90 512 166)" fill="url(#paint11_linear_267_5552)"/>
<path d="M470.673 196H471.906V191.446H477.335V196H478.568V185.818H477.335V190.352H471.906V185.818H470.673V196ZM483.98 196.159C486.048 196.159 487.44 194.588 487.44 192.222C487.44 189.835 486.048 188.264 483.98 188.264C481.912 188.264 480.52 189.835 480.52 192.222C480.52 194.588 481.912 196.159 483.98 196.159ZM483.98 195.105C482.409 195.105 481.693 193.753 481.693 192.222C481.693 190.69 482.409 189.318 483.98 189.318C485.551 189.318 486.267 190.69 486.267 192.222C486.267 193.753 485.551 195.105 483.98 195.105ZM493.825 196H494.938V188.364H491.796C490.151 188.364 489.152 189.224 489.152 190.631C489.152 191.68 489.679 192.425 490.598 192.739L488.734 196H490.007L491.777 192.898H493.825V196ZM493.825 191.804H491.657C490.827 191.804 490.325 191.362 490.325 190.631C490.325 189.89 490.882 189.438 491.796 189.438H493.825V191.804ZM502.76 185.5C502.387 185.813 501.83 185.813 501.05 185.808C500.796 185.808 500.518 185.808 500.215 185.818C497.888 185.878 496.734 187.648 496.734 191.048V191.864C496.734 194.688 498.107 196.159 500.155 196.159C502.198 196.159 503.555 194.678 503.555 192.281C503.555 189.875 502.178 188.602 500.394 188.602C499.345 188.602 498.365 189.04 497.848 189.994H497.749C497.908 188.026 498.644 186.972 500.234 186.912C501.646 186.852 502.661 186.892 503.357 186.216L502.76 185.5ZM500.155 195.105C498.763 195.105 497.908 193.991 497.908 192.281C497.933 190.611 498.773 189.656 500.135 189.656C501.532 189.656 502.382 190.611 502.382 192.281C502.382 194.001 501.537 195.105 500.155 195.105ZM505.35 198.864H506.524V194.827H506.623C506.881 195.244 507.379 196.159 508.85 196.159C510.759 196.159 512.092 194.628 512.092 192.202C512.092 189.795 510.759 188.264 508.83 188.264C507.339 188.264 506.881 189.179 506.623 189.577H506.484V188.364H505.35V198.864ZM506.504 192.182C506.504 190.472 507.259 189.318 508.691 189.318C510.183 189.318 510.918 190.571 510.918 192.182C510.918 193.812 510.163 195.105 508.691 195.105C507.279 195.105 506.504 193.912 506.504 192.182ZM515.055 191.128V188.364H513.881V196H517.083C518.873 196 519.847 194.906 519.847 193.534C519.847 192.142 518.873 191.128 517.083 191.128H515.055ZM515.055 192.222H517.083C518.013 192.222 518.674 192.788 518.674 193.594C518.674 194.364 518.013 194.906 517.083 194.906H515.055V192.222Z" fill="white"/>
<rect x="688" y="166" width="52" height="22" rx="11" transform="rotate(-90 688 166)" fill="url(#paint12_linear_267_5552)"/>
<rect x="660" y="166" width="31" height="22" rx="11" transform="rotate(-90 660 166)" fill="url(#paint13_linear_267_5552)"/>
<rect x="716" y="166" width="112" height="22" rx="11" transform="rotate(-90 716 166)" fill="url(#paint14_linear_267_5552)"/>
<path d="M670.052 198.466H671.226V196H678.405V198.446H679.578V194.906H678.405V185.818H672.359L672.14 190.114C672.001 193.037 671.385 194.29 670.709 194.906H670.052V198.466ZM672.18 194.906C672.797 193.932 673.194 192.341 673.314 190.114L673.473 186.912H677.231V194.906H672.18ZM684.484 196.159C686.035 196.159 687.168 195.384 687.526 194.23L686.393 193.912C686.094 194.707 685.403 195.105 684.484 195.105C683.106 195.105 682.157 194.215 682.102 192.58H687.646V192.082C687.646 189.239 685.955 188.264 684.364 188.264C682.296 188.264 680.924 189.895 680.924 192.241C680.924 194.588 682.276 196.159 684.484 196.159ZM682.102 191.565C682.182 190.377 683.022 189.318 684.364 189.318C685.637 189.318 686.452 190.273 686.452 191.565H682.102ZM689.43 196H690.604V192.778H691.658L694.163 196H695.675L692.552 192.043L695.635 188.364H694.123L691.379 191.685H690.604V188.364H689.43V196ZM699.197 196.179C700.529 196.179 701.225 195.463 701.464 194.966H701.524V196H702.697V190.969C702.697 188.543 700.848 188.264 699.873 188.264C698.72 188.264 697.407 188.662 696.811 190.054L697.924 190.452C698.183 189.895 698.794 189.298 699.913 189.298C700.992 189.298 701.524 189.87 701.524 190.849V190.889C701.524 191.456 700.947 191.406 699.555 191.585C698.138 191.769 696.592 192.082 696.592 193.832C696.592 195.324 697.745 196.179 699.197 196.179ZM699.376 195.125C698.441 195.125 697.765 194.707 697.765 193.892C697.765 192.997 698.581 192.719 699.495 192.599C699.992 192.54 701.325 192.401 701.524 192.162V193.236C701.524 194.19 700.768 195.125 699.376 195.125ZM710.506 185.5C710.133 185.813 709.576 185.813 708.796 185.808C708.542 185.808 708.264 185.808 707.961 185.818C705.634 185.878 704.481 187.648 704.481 191.048V191.864C704.481 194.688 705.853 196.159 707.901 196.159C709.944 196.159 711.302 194.678 711.302 192.281C711.302 189.875 709.924 188.602 708.14 188.602C707.091 188.602 706.111 189.04 705.594 189.994H705.495C705.654 188.026 706.39 186.972 707.981 186.912C709.392 186.852 710.407 186.892 711.103 186.216L710.506 185.5ZM707.901 195.105C706.509 195.105 705.654 193.991 705.654 192.281C705.679 190.611 706.519 189.656 707.881 189.656C709.278 189.656 710.128 190.611 710.128 192.281C710.128 194.001 709.283 195.105 707.901 195.105ZM713.096 198.864H714.27V194.827H714.369C714.628 195.244 715.125 196.159 716.596 196.159C718.505 196.159 719.838 194.628 719.838 192.202C719.838 189.795 718.505 188.264 716.576 188.264C715.085 188.264 714.628 189.179 714.369 189.577H714.23V188.364H713.096V198.864ZM714.25 192.182C714.25 190.472 715.005 189.318 716.437 189.318C717.929 189.318 718.665 190.571 718.665 192.182C718.665 193.812 717.909 195.105 716.437 195.105C715.025 195.105 714.25 193.912 714.25 192.182ZM722.801 191.128V188.364H721.628V196H724.829C726.619 196 727.593 194.906 727.593 193.534C727.593 192.142 726.619 191.128 724.829 191.128H722.801ZM722.801 192.222H724.829C725.759 192.222 726.42 192.788 726.42 193.594C726.42 194.364 725.759 194.906 724.829 194.906H722.801V192.222Z" fill="white"/>
<rect x="892" y="166" width="105" height="22" rx="11" transform="rotate(-90 892 166)" fill="url(#paint15_linear_267_5552)"/>
<rect x="864" y="166" width="59" height="22" rx="11" transform="rotate(-90 864 166)" fill="url(#paint16_linear_267_5552)"/>
<rect x="920" y="166" width="134" height="22" rx="11" transform="rotate(-90 920 166)" fill="url(#paint17_linear_267_5552)"/>
<path d="M886.148 196V185.818H882.707C880.321 185.818 879.247 187.141 879.247 188.94C879.247 190.293 879.854 191.352 881.151 191.794L878.849 196H880.281L882.429 192.018C882.513 192.023 882.598 192.023 882.687 192.023H884.915V196H886.148ZM884.915 190.909H882.727C881.096 190.909 880.46 190.163 880.46 188.94C880.46 187.717 881.096 186.912 882.747 186.912H884.915V190.909ZM889.634 188.364H888.461V196H889.634V192.739H893.293V196H894.466V188.364H893.293V191.645H889.634V188.364ZM896.609 196H900.208C901.76 196 902.694 195.125 902.694 193.952C902.694 192.754 901.784 192.107 900.944 191.983C901.804 191.804 902.416 191.322 902.416 190.392C902.416 189.174 901.372 188.364 899.731 188.364H896.609V196ZM897.723 194.926V192.58H900.208C901.014 192.58 901.501 193.062 901.501 193.852C901.501 194.518 901.014 194.926 900.208 194.926H897.723ZM897.723 191.565V189.438H899.731C900.671 189.438 901.243 189.83 901.243 190.472C901.243 191.153 900.671 191.565 899.731 191.565H897.723ZM906.718 196.179C908.05 196.179 908.746 195.463 908.985 194.966H909.044V196H910.218V190.969C910.218 188.543 908.368 188.264 907.394 188.264C906.24 188.264 904.928 188.662 904.331 190.054L905.445 190.452C905.703 189.895 906.315 189.298 907.433 189.298C908.512 189.298 909.044 189.87 909.044 190.849V190.889C909.044 191.456 908.468 191.406 907.075 191.585C905.659 191.769 904.112 192.082 904.112 193.832C904.112 195.324 905.266 196.179 906.718 196.179ZM906.896 195.125C905.962 195.125 905.286 194.707 905.286 193.892C905.286 192.997 906.101 192.719 907.016 192.599C907.513 192.54 908.845 192.401 909.044 192.162V193.236C909.044 194.19 908.289 195.125 906.896 195.125ZM912.359 198.864H913.532V194.827H913.632C913.89 195.244 914.387 196.159 915.859 196.159C917.768 196.159 919.1 194.628 919.1 192.202C919.1 189.795 917.768 188.264 915.839 188.264C914.348 188.264 913.89 189.179 913.632 189.577H913.493V188.364H912.359V198.864ZM913.512 192.182C913.512 190.472 914.268 189.318 915.7 189.318C917.191 189.318 917.927 190.571 917.927 192.182C917.927 193.812 917.172 195.105 915.7 195.105C914.288 195.105 913.512 193.912 913.512 192.182ZM922.064 191.128V188.364H920.89V196H924.092C925.882 196 926.856 194.906 926.856 193.534C926.856 192.142 925.882 191.128 924.092 191.128H922.064ZM922.064 192.222H924.092C925.022 192.222 925.683 192.788 925.683 193.594C925.683 194.364 925.022 194.906 924.092 194.906H922.064V192.222Z" fill="white"/>
<rect x="1096" y="166" width="95" height="22" rx="11" transform="rotate(-90 1096 166)" fill="url(#paint18_linear_267_5552)"/>
<rect x="1068" y="166" width="70" height="22" rx="11" transform="rotate(-90 1068 166)" fill="url(#paint19_linear_267_5552)"/>
<rect x="1124" y="166" width="112" height="22" rx="11" transform="rotate(-90 1124 166)" fill="url(#paint20_linear_267_5552)"/>
<path d="M1081.98 187.031C1079.71 187.031 1078.08 188.682 1078.08 191.068C1078.08 193.455 1079.71 195.085 1081.98 195.085H1082.17V196.418H1083.41V195.085H1083.59C1085.85 195.085 1087.48 193.435 1087.48 191.048C1087.48 188.662 1085.85 187.031 1083.59 187.031H1083.41V185.639H1082.17V187.031H1081.98ZM1081.98 188.125H1082.17V193.991H1081.98C1080.25 193.991 1079.31 192.838 1079.31 191.068C1079.31 189.278 1080.25 188.125 1081.98 188.125ZM1083.41 188.125H1083.59C1085.32 188.125 1086.25 189.278 1086.25 191.048C1086.25 192.838 1085.32 193.991 1083.59 193.991H1083.41V188.125ZM1092.59 196.159C1094.14 196.159 1095.28 195.384 1095.64 194.23L1094.5 193.912C1094.2 194.707 1093.51 195.105 1092.59 195.105C1091.22 195.105 1090.27 194.215 1090.21 192.58H1095.75V192.082C1095.75 189.239 1094.06 188.264 1092.47 188.264C1090.41 188.264 1089.03 189.895 1089.03 192.241C1089.03 194.588 1090.39 196.159 1092.59 196.159ZM1090.21 191.565C1090.29 190.377 1091.13 189.318 1092.47 189.318C1093.75 189.318 1094.56 190.273 1094.56 191.565H1090.21ZM1097.54 196H1101.14C1102.69 196 1103.62 195.125 1103.62 193.952C1103.62 192.754 1102.72 192.107 1101.87 191.983C1102.73 191.804 1103.35 191.322 1103.35 190.392C1103.35 189.174 1102.3 188.364 1100.66 188.364H1097.54V196ZM1098.65 194.926V192.58H1101.14C1101.94 192.58 1102.43 193.062 1102.43 193.852C1102.43 194.518 1101.94 194.926 1101.14 194.926H1098.65ZM1098.65 191.565V189.438H1100.66C1101.6 189.438 1102.17 189.83 1102.17 190.472C1102.17 191.153 1101.6 191.565 1100.66 191.565H1098.65ZM1105.4 198.864H1106.57V194.827H1106.67C1106.93 195.244 1107.43 196.159 1108.9 196.159C1110.81 196.159 1112.14 194.628 1112.14 192.202C1112.14 189.795 1110.81 188.264 1108.88 188.264C1107.39 188.264 1106.93 189.179 1106.67 189.577H1106.53V188.364H1105.4V198.864ZM1106.55 192.182C1106.55 190.472 1107.31 189.318 1108.74 189.318C1110.23 189.318 1110.97 190.571 1110.97 192.182C1110.97 193.812 1110.21 195.105 1108.74 195.105C1107.33 195.105 1106.55 193.912 1106.55 192.182ZM1116.18 196.179C1117.51 196.179 1118.21 195.463 1118.45 194.966H1118.51V196H1119.68V190.969C1119.68 188.543 1117.83 188.264 1116.86 188.264C1115.7 188.264 1114.39 188.662 1113.79 190.054L1114.91 190.452C1115.17 189.895 1115.78 189.298 1116.9 189.298C1117.97 189.298 1118.51 189.87 1118.51 190.849V190.889C1118.51 191.456 1117.93 191.406 1116.54 191.585C1115.12 191.769 1113.57 192.082 1113.57 193.832C1113.57 195.324 1114.73 196.179 1116.18 196.179ZM1116.36 195.125C1115.42 195.125 1114.75 194.707 1114.75 193.892C1114.75 192.997 1115.56 192.719 1116.48 192.599C1116.97 192.54 1118.31 192.401 1118.51 192.162V193.236C1118.51 194.19 1117.75 195.125 1116.36 195.125ZM1121.14 196H1121.54C1123.23 196 1123.72 194.688 1123.83 192.182L1123.95 189.457H1126.75V196H1127.93V188.364H1122.84L1122.7 191.744C1122.6 194.31 1122.34 194.906 1121.42 194.906H1121.14V196ZM1131.25 191.128V188.364H1130.08V196H1133.28C1135.07 196 1136.04 194.906 1136.04 193.534C1136.04 192.142 1135.07 191.128 1133.28 191.128H1131.25ZM1131.25 192.222H1133.28C1134.21 192.222 1134.87 192.788 1134.87 193.594C1134.87 194.364 1134.21 194.906 1133.28 194.906H1131.25V192.222Z" fill="white"/>
<defs>
<linearGradient id="paint0_linear_267_5552" x1="544.875" y1="272.579" x2="573.945" y2="275.779" gradientUnits="userSpaceOnUse">
<stop stop-color="#7DC9FF"/>
<stop offset="1" stop-color="#0285CE"/>
</linearGradient>
<linearGradient id="paint1_linear_267_5552" x1="439.875" y1="272.579" x2="468.945" y2="275.779" gradientUnits="userSpaceOnUse">
<stop stop-color="#85FF71"/>
<stop offset="1" stop-color="#13C424"/>
</linearGradient>
<linearGradient id="paint2_linear_267_5552" x1="640.968" y1="276" x2="669.081" y2="277.228" gradientUnits="userSpaceOnUse">
<stop stop-color="#F7BD50"/>
<stop offset="1" stop-color="#DA7703"/>
</linearGradient>
<linearGradient id="paint3_linear_267_5552" x1="59.5" y1="162.237" x2="160.935" y2="202.84" gradientUnits="userSpaceOnUse">
<stop stop-color="#7DC9FF"/>
<stop offset="1" stop-color="#0285CE"/>
</linearGradient>
<linearGradient id="paint4_linear_267_5552" x1="41.6063" y1="162.237" x2="86.1389" y2="169.144" gradientUnits="userSpaceOnUse">
<stop stop-color="#85FF71"/>
<stop offset="1" stop-color="#13C424"/>
</linearGradient>
<linearGradient id="paint5_linear_267_5552" x1="30.0873" y1="166" x2="206.334" y2="212.878" gradientUnits="userSpaceOnUse">
<stop stop-color="#F7BD50"/>
<stop offset="1" stop-color="#DA7703"/>
</linearGradient>
<linearGradient id="paint6_linear_267_5552" x1="266.594" y1="162.237" x2="353.068" y2="190.361" gradientUnits="userSpaceOnUse">
<stop stop-color="#7DC9FF"/>
<stop offset="1" stop-color="#0285CE"/>
</linearGradient>
<linearGradient id="paint7_linear_267_5552" x1="250.763" y1="162.237" x2="259.581" y2="162.502" gradientUnits="userSpaceOnUse">
<stop stop-color="#85FF71"/>
<stop offset="1" stop-color="#13C424"/>
</linearGradient>
<linearGradient id="paint8_linear_267_5552" x1="255.599" y1="166" x2="384.796" y2="190.362" gradientUnits="userSpaceOnUse">
<stop stop-color="#F7BD50"/>
<stop offset="1" stop-color="#DA7703"/>
</linearGradient>
<linearGradient id="paint9_linear_267_5552" x1="477.606" y1="162.237" x2="522.139" y2="169.144" gradientUnits="userSpaceOnUse">
<stop stop-color="#7DC9FF"/>
<stop offset="1" stop-color="#0285CE"/>
</linearGradient>
<linearGradient id="paint10_linear_267_5552" x1="453.319" y1="162.237" x2="472.362" y2="163.476" gradientUnits="userSpaceOnUse">
<stop stop-color="#85FF71"/>
<stop offset="1" stop-color="#13C424"/>
</linearGradient>
<linearGradient id="paint11_linear_267_5552" x1="473.389" y1="166" x2="570.104" y2="179.438" gradientUnits="userSpaceOnUse">
<stop stop-color="#F7BD50"/>
<stop offset="1" stop-color="#DA7703"/>
</linearGradient>
<linearGradient id="paint12_linear_267_5552" x1="677.275" y1="162.237" x2="748.922" y2="180.878" gradientUnits="userSpaceOnUse">
<stop stop-color="#7DC9FF"/>
<stop offset="1" stop-color="#0285CE"/>
</linearGradient>
<linearGradient id="paint13_linear_267_5552" x1="653.606" y1="162.237" x2="698.139" y2="169.144" gradientUnits="userSpaceOnUse">
<stop stop-color="#85FF71"/>
<stop offset="1" stop-color="#13C424"/>
</linearGradient>
<linearGradient id="paint14_linear_267_5552" x1="654.222" y1="166" x2="804.526" y2="199.414" gradientUnits="userSpaceOnUse">
<stop stop-color="#F7BD50"/>
<stop offset="1" stop-color="#DA7703"/>
</linearGradient>
<linearGradient id="paint15_linear_267_5552" x1="870.344" y1="162.237" x2="991.396" y2="225.835" gradientUnits="userSpaceOnUse">
<stop stop-color="#7DC9FF"/>
<stop offset="1" stop-color="#0285CE"/>
</linearGradient>
<linearGradient id="paint16_linear_267_5552" x1="851.831" y1="162.237" x2="931.668" y2="185.806" gradientUnits="userSpaceOnUse">
<stop stop-color="#85FF71"/>
<stop offset="1" stop-color="#13C424"/>
</linearGradient>
<linearGradient id="paint17_linear_267_5552" x1="846.087" y1="166" x2="1022.33" y2="212.878" gradientUnits="userSpaceOnUse">
<stop stop-color="#F7BD50"/>
<stop offset="1" stop-color="#DA7703"/>
</linearGradient>
<linearGradient id="paint18_linear_267_5552" x1="1076.41" y1="162.237" x2="1190.4" y2="216.424" gradientUnits="userSpaceOnUse">
<stop stop-color="#7DC9FF"/>
<stop offset="1" stop-color="#0285CE"/>
</linearGradient>
<linearGradient id="paint19_linear_267_5552" x1="1053.56" y1="162.237" x2="1145.29" y2="194.364" gradientUnits="userSpaceOnUse">
<stop stop-color="#85FF71"/>
<stop offset="1" stop-color="#13C424"/>
</linearGradient>
<linearGradient id="paint20_linear_267_5552" x1="1062.22" y1="166" x2="1212.53" y2="199.414" gradientUnits="userSpaceOnUse">
<stop stop-color="#F7BD50"/>
<stop offset="1" stop-color="#DA7703"/>
</linearGradient>
</defs>
</svg>
