<svg width="24" height="25" viewBox="0 0 24 25" fill="none" xmlns="http://www.w3.org/2000/svg">
<path d="M6.45492 21.7592L6.68668 21.0459L6.45492 21.7592ZM3.24472 18.549L3.95801 18.3172L3.24472 18.549ZM20.7553 18.549L20.042 18.3172L20.7553 18.549ZM17.5451 21.7592L17.3133 21.0459L17.5451 21.7592ZM17.5451 8.24862L17.3133 8.96192L17.5451 8.24862ZM20.7553 11.4588L20.042 11.6906L20.7553 11.4588ZM6.45492 8.24862L6.68668 8.96192L6.45492 8.24862ZM3.24472 11.4588L3.95801 11.6906L3.24472 11.4588ZM10 8.75391H14V7.25391H10V8.75391ZM14 21.2539H10V22.7539H14V21.2539ZM10 21.2539C8.08034 21.2539 7.29839 21.2447 6.68668 21.0459L6.22315 22.4725C7.11777 22.7632 8.19709 22.7539 10 22.7539V21.2539ZM2.25 15.0039C2.25 16.8068 2.24075 17.8861 2.53142 18.7808L3.95801 18.3172C3.75925 17.7055 3.75 16.9236 3.75 15.0039H2.25ZM6.68668 21.0459C5.39282 20.6255 4.37841 19.6111 3.95801 18.3172L2.53142 18.7808C3.1002 20.5313 4.47263 21.9037 6.22315 22.4725L6.68668 21.0459ZM20.25 15.0039C20.25 16.9236 20.2407 17.7055 20.042 18.3172L21.4686 18.7808C21.7593 17.8861 21.75 16.8068 21.75 15.0039H20.25ZM14 22.7539C15.8029 22.7539 16.8822 22.7632 17.7768 22.4725L17.3133 21.0459C16.7016 21.2447 15.9197 21.2539 14 21.2539V22.7539ZM20.042 18.3172C19.6216 19.6111 18.6072 20.6255 17.3133 21.0459L17.7768 22.4725C19.5274 21.9037 20.8998 20.5313 21.4686 18.7808L20.042 18.3172ZM21.75 15.0039C21.75 13.201 21.7593 12.1217 21.4686 11.2271L20.042 11.6906C20.2407 12.3023 20.25 13.0842 20.25 15.0039H21.75ZM17.3133 8.96192C18.6072 9.38232 19.6216 10.3967 20.042 11.6906L21.4686 11.2271C20.8998 9.47654 19.5274 8.10411 17.7768 7.53533L17.3133 8.96192ZM3.75 15.0039C3.75 13.0843 3.75925 12.3023 3.95801 11.6906L2.53142 11.2271C2.24075 12.1217 2.25 13.201 2.25 15.0039H3.75ZM6.22315 7.53533C4.47263 8.10411 3.1002 9.47654 2.53142 11.2271L3.95801 11.6906C4.37841 10.3967 5.39282 9.38232 6.68668 8.96192L6.22315 7.53533ZM16.25 7.00391V8.00391H17.75V7.00391H16.25ZM7.75 8.00391V7.00391H6.25V8.00391H7.75ZM12 2.75391C14.3472 2.75391 16.25 4.6567 16.25 7.00391H17.75C17.75 3.82827 15.1756 1.25391 12 1.25391V2.75391ZM12 1.25391C8.82436 1.25391 6.25 3.82827 6.25 7.00391H7.75C7.75 4.6567 9.65279 2.75391 12 2.75391V1.25391ZM9.25 15.0039C9.25 16.5227 10.4812 17.7539 12 17.7539V16.2539C11.3096 16.2539 10.75 15.6943 10.75 15.0039H9.25ZM12 17.7539C13.5188 17.7539 14.75 16.5227 14.75 15.0039H13.25C13.25 15.6943 12.6904 16.2539 12 16.2539V17.7539ZM14.75 15.0039C14.75 13.4851 13.5188 12.2539 12 12.2539V13.7539C12.6904 13.7539 13.25 14.3135 13.25 15.0039H14.75ZM12 12.2539C10.4812 12.2539 9.25 13.4851 9.25 15.0039H10.75C10.75 14.3135 11.3096 13.7539 12 13.7539V12.2539ZM10 7.25391C8.58853 7.25391 7.6278 7.25129 6.8754 7.37804L7.1246 8.8572C7.7222 8.75652 8.52815 8.75391 10 8.75391V7.25391ZM6.8754 7.37804C6.64772 7.4164 6.43257 7.46729 6.22315 7.53533L6.68668 8.96192C6.81685 8.91962 6.95935 8.88504 7.1246 8.8572L6.8754 7.37804ZM6.25 8.00391V8.11762H7.75V8.00391H6.25ZM14 8.75391C15.4719 8.75391 16.2778 8.75652 16.8754 8.8572L17.1246 7.37804C16.3722 7.25129 15.4115 7.25391 14 7.25391V8.75391ZM16.8754 8.8572C17.0407 8.88504 17.1831 8.91962 17.3133 8.96192L17.7768 7.53533C17.5674 7.46729 17.3523 7.4164 17.1246 7.37804L16.8754 8.8572ZM16.25 8.00391V8.11762H17.75V8.00391H16.25Z" fill="white" fill-opacity="0.4"/>
</svg>
